<?xml version="1.0" encoding="UTF-8" standalone="no"?><!DOCTYPE svg PUBLIC "-//W3C//DTD SVG 1.1//EN" "http://www.w3.org/Graphics/SVG/1.1/DTD/svg11.dtd"><svg width="100%" height="100%" viewBox="0 0 1679 433" version="1.1" xmlns="http://www.w3.org/2000/svg" xmlns:xlink="http://www.w3.org/1999/xlink" xml:space="preserve" xmlns:serif="http://www.serif.com/" style="fill-rule:evenodd;clip-rule:evenodd;stroke-linejoin:round;stroke-miterlimit:2;"><rect id="Mesa-de-trabajo1" serif:id="Mesa de trabajo1" x="0" y="0" width="1678.018" height="432.605" style="fill:none;"/><g id="Logo_Banco_Pichincha.jpg"><path d="M144.622,384.224c-26.343,-2.293 -27.203,0.674 -50.89,-11.125c-70.005,-34.871 -65.519,-101.232 -65.485,-111.614c0.328,-101.812 -0.987,-213.522 1.007,-215.577c2.126,-2.191 336.139,-1.411 337.315,-0.418c1.459,1.232 1.423,14.313 1.42,15.563c-0.424,155.41 1.273,319.948 -1.281,322.301c-0.4,0.368 -0.527,1.002 -222.086,0.871Z" style="fill:#fedf00;"/><path d="M1096.048,65.324c2.471,-2.359 18.111,-17.289 37.166,-21.032c88.087,-17.303 122.74,97.534 54.422,135.865c-71.858,40.317 -150.074,-48.347 -91.588,-114.833Zm96.803,56.708c2.973,-68.407 -77.757,-61.248 -84.454,-17.582c-10.683,69.656 77.188,77.072 84.454,17.582Z" style="fill:#0c235d;"/><path d="M588.38,172.737c-19.211,17.235 -23.931,14.572 -95.936,14.651c-4.524,0.005 -10.656,1.322 -10.768,-4.444c-0.041,-2.099 -0.017,-131.608 -0.02,-131.719c-0.082,-2.663 -0.743,-6.295 4.877,-6.346c71.684,-0.644 103.067,-3.079 108.388,35.795c2.809,20.524 -16.127,30.554 -11.667,34.967c17.243,17.061 22.752,32.508 5.126,57.095Zm-24.42,-90.295c-3.921,-8.42 -6.284,-10.38 -47.94,-9.586c-0.599,0.011 -4.115,-0.019 -4.236,3.886c-0.639,20.521 -1.068,25.533 6.201,25.535c27.68,0.007 49.087,3.332 45.975,-19.835Zm-40.083,77.607c8.157,-0.013 49.815,4.545 43.919,-20.559c-2.75,-11.709 -16.061,-12.811 -51.804,-11.938c-2.914,0.071 -4.162,1.878 -4.22,4.213c-0.051,2.049 -0.565,22.672 0.129,25.619c1.332,5.663 3.727,2.44 11.975,2.665Z" style="fill:#0d235d;"/><path d="M1120.589,324.752c-16.606,-28.109 -16.933,-27.887 -18.205,-30.422c-7.238,-14.427 -5.082,4.347 -5.082,24.139c0.001,62.922 0.134,63.011 -0.595,64.197c-1.522,2.476 -26.518,1.21 -26.73,1.143c-2.828,-0.891 -2.356,-2.196 -2.356,-77.13c0,-62.272 -1.007,-65.365 4.468,-65.448c25.566,-0.388 30.665,-1.587 38.374,10.991c46.417,75.727 43.994,77.135 48.902,83.085c4.562,5.531 1.09,-3.477 2.411,-89.588c0.053,-3.424 1.618,-4.452 4.634,-4.492c24.634,-0.322 24.486,0.921 24.784,1.297c2.285,2.883 0.951,125.914 0.833,136.863c-0.071,6.554 -12.227,4.75 -23.618,4.668c-16.972,-0.122 -15.833,-6.965 -47.821,-59.303Z" style="fill:#0c235d;"/><path d="M837.818,145.827c-8.06,-13.711 -16.796,-27.884 -18.281,-30.294c-8.388,-13.609 -16.514,-33.203 -15.078,-15.194c0.206,2.585 0.278,83.371 -0.015,84.4c-1.064,3.74 -14.99,2.706 -25.126,2.643c-5.31,-0.033 -5.033,-2.637 -5.031,-6.461c0.083,-131.036 -0.274,-131.057 0.428,-133.944c0.693,-2.85 15.386,-2.205 26.247,-2.068c10.609,0.134 10.996,2.321 38.518,48.052c26.99,44.847 26.681,49.544 29.628,46.282c0.006,-0.007 -0.56,-90.276 0.062,-92.173c0.737,-2.246 13.152,-2.189 14.31,-2.184c10.694,0.049 15.114,-2.28 15.113,8.306c-0.005,119.361 0.357,119.302 0.011,129.67c-0.213,6.394 -14.918,4.646 -26.929,4.52c-8.382,-0.088 -9.86,-0.749 -33.857,-41.555Z" style="fill:#0d235d;"/><path d="M481.55,249.687c0.315,-5.437 -0.807,-5.868 1.259,-7.611c3.037,-2.561 55.889,-0.987 60.747,-0.843c25.484,0.759 49.406,16.154 51.497,41.827c5.431,66.684 -79.482,55.257 -80.799,55.814c-4.994,2.111 -1.428,36.155 -2.605,42.379c-0.407,2.15 -0.822,4.345 -27.216,2.7c-4.909,-0.306 -2.02,-20.039 -2.882,-134.266Zm36.425,19.011c-10.597,0.791 -6.21,5.635 -6.209,16.368c0.002,14.668 -1.723,25.862 4.214,26.006c9.51,0.232 50.589,4.066 49.699,-22.092c-0.819,-24.064 -34.59,-20.286 -47.705,-20.281Z" style="fill:#0d245d;"/><path d="M934.206,249.502c1.455,-2.021 3.054,-5.879 10.149,-7.847c18.094,-5.02 18.096,4.548 18.097,6.075c0.029,133.711 0.122,133.968 -0.887,135.147c-1.867,2.18 -26.578,1.058 -27.172,0.847c-3.912,-1.388 -1.524,-34.573 -2.097,-55.398c-0.135,-4.888 -7.442,-3.634 -42.921,-3.661c-11.98,-0.009 -17.764,-4.464 -17.773,7.56c-0.035,46.455 1.273,51.605 -3.767,51.798c-25.075,0.961 -26.114,-1.097 -26.202,-4.613c-1.322,-52.73 -0.161,-122.986 0.015,-133.679c0.106,-6.412 12.908,-4.499 24.148,-4.477c10.042,0.02 5,5.96 5.795,51.677c0.079,4.523 2.406,4.492 55.124,4.309c12.109,-0.042 1.171,-30.419 7.492,-47.738Z" style="fill:#0c235d;"/><path d="M1577.866,255.873c4.99,-11.317 3.059,-13.804 9.035,-14.585c27.501,-3.594 27.185,4.214 37.228,30.085c41.392,106.619 48.461,112.478 39.541,112.69c-24.546,0.584 -26.105,-0.146 -28.006,-4.492c-3.654,-8.357 -6.507,-15.938 -8.037,-19.584c-2.098,-4.998 -3.69,-4.541 -52.464,-4.462c-6.793,0.011 -5.02,3.068 -15.627,25.88c-1.964,4.225 -30.465,4.106 -30.801,0.016c-0.025,-0.309 35.549,-90.629 35.628,-90.828c0.927,-2.342 0.896,-2.314 13.502,-34.719Zm33.338,60.376c-9.065,-23.644 -12.39,-38.078 -15.693,-28.941c-13.046,36.09 -14.519,35.691 -14.517,39.022c0.001,2.54 0.937,4.217 31.652,2.524c4.531,-0.25 -0.128,-9.356 -1.442,-12.605Z" style="fill:#0d235d;"/><path d="M618.977,167.444c47.026,-118.283 44.69,-122.373 52.262,-122.523c15.845,-0.314 23.687,-1.417 29.161,12.329c9.07,22.777 50.003,126.969 49.999,127.624c-0.026,3.717 -14.802,2.535 -24.122,2.516c-10.174,-0.021 -11.243,-16.686 -16.383,-25.718c-2.075,-3.647 -3.096,-3.309 -52.395,-2.411c-6.659,0.121 -11.325,18.761 -14.36,25.268c-1.705,3.656 -10.456,2.962 -26.939,2.895c-6.839,-0.028 -1.757,-8.589 2.776,-19.981Zm54.245,-34.566c17.606,-0.128 26.832,1.308 24.591,-4.706c-0.885,-2.376 -1.079,-2.279 -11.412,-29.565c-3.277,-8.652 -2.146,-10.447 -5.349,-10.182c-1.464,0.121 -1.081,0.861 -12.717,31.249c-3.644,9.518 -5.704,9.888 -3.18,12.331c0.466,0.452 0.588,0.064 8.068,0.872Z" style="fill:#0c235d;"/><path d="M1477.285,246.114c4.305,-3.392 3.967,-4.066 9.4,-4.761c11.557,-1.478 16.186,-3.225 16.198,8.345c0.132,131.228 -0.018,131.24 -0.148,131.729c-1.298,4.856 -27.577,2.215 -27.894,2.066c-4.031,-1.893 1.168,-54.673 -3.166,-58.076c-1.819,-1.428 -56.576,-0.818 -57.34,-0.358c-4.143,2.496 -0.874,51.483 -2.112,56.333c-1.182,4.629 -27.767,2.958 -28.972,1.39c-2.588,-3.367 -0.925,-126.063 -0.777,-137.024c0.066,-4.835 4.028,-5.026 25.709,-4.502c6.929,0.168 3.496,4.16 4.188,51.651c0.066,4.55 2.401,5.41 56.714,4.337c10.836,-0.214 -2.253,-36.216 8.201,-51.131Z" style="fill:#0c235d;"/><path d="M207.514,101.22c101.651,-0.111 101.666,0.268 102.46,0.597c1.813,0.751 1.8,13.106 1.798,14.256c-0.104,94.423 0.631,95.303 -1.369,97.115c-2.076,1.88 -47.053,0.803 -47.658,0.572c-4.463,-1.705 -1.163,-53.025 -2.185,-58.386c-1.505,-7.887 -59.677,2.043 -62.113,-6.01c-0.162,-0.536 -0.063,-44.665 -0.037,-44.986c0.353,-4.241 2.332,-2.355 9.104,-3.158Z" style="fill:#0d245e;"/><path d="M1220.239,312.577c4.915,-86.88 92.516,-85.131 124.533,-54.513c9.129,8.73 4.195,10.692 -1.939,16.692c-14.374,14.061 -25.541,-7.599 -46.684,-7.834c-64.346,-0.714 -57.016,98.112 3.913,90.838c30.748,-3.671 29.034,-24.9 38.529,-14.965c15.186,15.889 14.631,16.81 13.684,18.379c-20.634,34.202 -129.864,43.698 -132.037,-48.598Z" style="fill:#0c235d;"/><path d="M804.62,350.155c3.109,3.468 13.525,7.554 -0.461,18.566c-58.552,46.103 -142.006,-3.501 -122.272,-77.56c15.274,-57.32 92.733,-68.075 126.176,-29.037c5.281,6.164 -12.31,23.811 -26.385,14.509c-63.22,-41.783 -101.792,58.223 -41.665,79.227c6.273,2.191 29.649,6.126 46.721,-10.358c2.983,-2.88 4.239,-9.704 12.168,-1.411c0.498,0.521 0.324,0.493 0.91,1.109c0.381,0.4 0.356,0.367 4.807,4.956Z" style="fill:#0c235d;"/><path d="M1003.352,189.659c-107.578,-4.39 -91.579,-134.913 -17.578,-145.541c3.696,-0.531 42.561,-8.397 69.671,21.668c5.547,6.152 -12.261,24.528 -26.304,14.553c-43.655,-31.008 -87.549,17.365 -66.264,58.912c13.292,25.947 52.318,30.614 73.553,7.959c5.256,-5.608 6.605,-2.92 11.826,2.542c0.968,1.012 11.219,11.738 11.189,13.463c-0.054,3.056 -11.65,14.171 -24.514,19.977c-11.445,5.165 -29.005,6.3 -31.578,6.467Z" style="fill:#0c235d;"/><path d="M621.221,253.621c0.227,-9.759 -0.615,-10.016 1.132,-11.519c1.016,-0.874 12.448,-0.852 13.533,-0.85c11.008,0.021 15.737,-2.651 15.736,8.442c-0.017,131.574 -0.135,131.548 -0.152,131.623c-0.996,4.437 -29.813,4.219 -30.336,-0.109c-1.063,-8.81 -0.012,-117.381 0.087,-127.588Z" style="fill:#0e255f;"/><path d="M1000.146,316.505c-0,-23.198 -0.007,-69.626 0.026,-70.718c0.196,-6.425 13.626,-4.634 24.805,-4.532c6.613,0.06 4.801,6.113 4.79,10.408c-0.31,128.464 2.35,131.107 -2.689,132.282c-0.76,0.177 -23.547,0.112 -23.855,0.054c-3.743,-0.704 -3.077,-2.578 -3.077,-67.495Z" style="fill:#0c245d;"/></g></svg>