<?xml version="1.0" encoding="UTF-8" standalone="no"?><!DOCTYPE svg PUBLIC "-//W3C//DTD SVG 1.1//EN" "http://www.w3.org/Graphics/SVG/1.1/DTD/svg11.dtd"><svg width="100%" height="100%" viewBox="0 0 1600 1678" version="1.1" xmlns="http://www.w3.org/2000/svg" xmlns:xlink="http://www.w3.org/1999/xlink" xml:space="preserve" xmlns:serif="http://www.serif.com/" style="fill-rule:evenodd;clip-rule:evenodd;stroke-linejoin:round;stroke-miterlimit:2;"><rect id="Mesa-de-trabajo1" serif:id="Mesa de trabajo1" x="0" y="0" width="1599.745" height="1677.008" style="fill:none;"/><clipPath id="_clip1"><rect x="0" y="0" width="1599.745" height="1677.008"/></clipPath><g clip-path="url(#_clip1)"><g id="Jardin-Pagos_Logo.png" serif:id="Jardin Pagos_Logo.png"><path d="M1261.269,3.243l-1.636,2.228c-17.987,68.746 -21.54,124.574 0.175,227.213c55.817,213.801 185.273,296.587 163.727,304.126c-164.858,57.683 -239.133,139.455 -269.827,283.131c-10.306,63.885 -11.058,94.419 -0.171,164.723c59.635,293.604 275.986,362.989 205.598,608.889c-1.725,4.37 1.099,7.281 -8.379,10.333c-24.045,6.731 -23.713,6.988 -25.788,7.548c-17.53,6.762 -18.172,5.979 -539.705,5.979c-581.541,-0 -582.177,0.787 -599.706,-5.963c-12.197,-2.759 -81.196,-18.366 -138.996,-71.522c-75.995,-69.89 -92.467,-157.965 -95.013,-163.951c-1.382,-10.206 -1.937,-11.948 -2.256,-12.95c-2.588,-8.132 -2.3,-8.331 -2.3,-441.786c0,-666.808 -0.792,-667.511 6.022,-684.951c22.174,-71.468 32.684,-80.474 43.202,-97.87c1.96,-3.241 12.793,-21.159 28.264,-37.98c67.922,-73.847 156.249,-92.536 163.951,-95.008c10.201,-1.386 11.946,-1.942 12.948,-2.261c8.118,-2.587 8.31,-2.301 492.31,-2.301c561.618,0 561.807,-0.287 567.581,2.374Z" style="fill:#fefefe;fill-opacity:1;"/><path d="M1261.269,3.243c2.709,-0.33 2.488,-3.71 26.111,-1.307c12.664,1.288 12.322,1.466 18.814,3.302c-1.503,6.541 -1.063,6.454 -2.968,12.919c-24.345,82.601 -6.442,172.751 -3.274,173.691c5.44,1.614 158.327,-63.414 196.975,-76.691l1.327,1.398c7.927,9.96 7.546,10.008 14.831,20.635c0.517,1.44 1.035,2.879 1.552,4.319c-6.657,3.122 -14.381,6.745 -85.044,34.858c-23.456,9.332 -79.325,31.857 -82.975,33.041c-20.377,6.614 7.97,8.813 22.589,12.006c177.429,38.743 178.332,35.833 192.417,42.93c3.107,41.538 2.172,60.995 2.18,63.306c-0.646,0.612 0.427,2.049 -0.219,2.661c-1.046,0.991 -2.814,0.736 -4.085,1.416c-3.612,1.93 -2.484,3.283 -38.322,33.941c-7.863,6.727 -95.213,81.453 -96.936,85.645c-2.163,5.264 49.807,69.757 58.901,69.594c23.655,-0.424 22.863,-7.275 79.61,-9.837c0.483,3.744 1.058,8.202 0.926,47.182c-27.854,-7.751 -231.532,26.304 -315.831,149.466c-156.434,228.551 58.911,517.241 75.957,542.879c137.155,206.281 84.105,281.135 90.068,324.66c-1.18,0.693 -1.104,0.325 -2.244,0.994c-0.319,0.188 -0.288,0.187 -3.882,2.523c-0.498,0.27 -6.23,3.373 -6.23,3.373c-37.406,20.276 -41.666,16.546 -43.117,14.22c-0.513,-0.822 1.246,-1.991 0.733,-2.814c70.388,-245.9 -145.963,-315.285 -205.598,-608.889c5.029,-5.276 6.704,-4.505 6.317,-9.742c-1.073,-14.528 0.467,-14.479 0.135,-15.689c-0.395,-1.44 -2.681,-1.817 -3.076,-3.257c0.771,-39.572 -0.667,-49.431 -1.288,-53.682l0.161,-3.158l0.139,-3.158c1.041,-4.471 2.315,-4.411 0.803,-31.577l0,-3.158l0.066,-3.158l-0.004,-3.158l0.118,-3.158l-0.033,-3.158c0.4,-1.44 2.678,-1.822 3.078,-3.262c0.268,-0.966 -0.022,-0.928 -0.297,-12.527l0.19,-3.158l-0.042,-3.158l-1.418,-3.158l-4.678,-3.41c30.695,-143.676 104.969,-225.449 269.827,-283.131c21.546,-7.539 -107.91,-90.325 -163.727,-304.126l3.666,-2.987l0.317,-3.158l0.38,-3.158l0.418,-3.158c-0.113,-3.654 -6.098,-54.89 -9.661,-66.312l0.071,-3.158l0,-12.631l-0.032,-3.158l-0.093,-3.158c-0.494,-33.706 -1.272,-33.575 0.105,-47.366l0.046,-3.158l-0.015,-3.158l0,-6.315l0.076,-3.158l1.617,-3.158c0.568,-6.762 3.892,-26.258 4.457,-28.42l-0.023,-3.158l0.957,-3.158c0.353,-1.737 3.694,-18.159 1.558,-22.104c-0.814,-1.503 -3.206,-1.681 -4.019,-3.184l1.636,-2.228Z" style="fill:#040302;fill-opacity:0.99;"/><path d="M1563.68,558.252c-0.175,42.447 -0.207,42.408 -0.152,47.228c0.109,9.58 -0.052,9.342 -0.106,19.154c-1.736,0.542 -2.647,2.706 -4.383,3.248c-0.454,0.142 -55.858,8.307 -116.349,44.961c-195.852,118.675 -234.018,466.623 106.9,712.398c3.907,2.816 3.957,2.905 4.167,3.273c0.938,1.642 -1.349,1.661 -0.404,3.315c-31.907,113.988 -97.547,147.223 -106.227,162.909c-2.963,0.996 -2.17,1.772 -33.251,20.519c-5.964,-43.525 47.086,-118.379 -90.068,-324.66c-17.047,-25.638 -232.391,-314.328 -75.957,-542.879c84.299,-123.162 287.977,-157.216 315.831,-149.466Z" style="fill:#39a935;fill-opacity:1;"/><path d="M1563.741,662.513c-0.548,25.043 0.66,52.242 -0.986,66.435c-199.564,46.25 -210.549,232.691 -131.967,355.632c38.782,60.675 106.474,113.982 131.749,126.967c0.425,2.841 4.008,121.436 -1.837,145.252c-8.955,-23.176 -205.782,-131.678 -231.834,-366.14c-17.966,-161.693 79.182,-297.866 223.657,-328.699c8.894,-1.898 10.226,0.249 11.217,0.554Z" style="fill:#51a0d8;fill-opacity:1;"/><path d="M1563.422,624.634c0.014,3.03 0.088,18.716 0.319,37.879c-0.991,-0.305 -2.324,-2.452 -11.217,-0.554c-144.475,30.834 -241.623,167.007 -223.657,328.699c26.052,234.463 222.878,342.964 231.834,366.14c-1.978,11.613 -2.182,11.438 -7.347,35.03c-0.945,-1.654 1.342,-1.673 0.404,-3.315c-0.21,-0.368 -0.261,-0.456 -4.167,-3.273c-340.918,-245.775 -302.752,-593.723 -106.9,-712.398c60.49,-36.654 115.895,-44.82 116.349,-44.961c1.736,-0.542 2.647,-2.706 4.383,-3.248Z" style="fill:#010403;fill-opacity:0.99;"/><path d="M1563.672,763.607c-0.346,91.827 0.158,91.66 -0.896,101.107c-135.652,34.49 -108.354,188.347 -0,248.89c1.546,13.766 0.325,26.812 1.057,56.88c-5.107,-0.186 -5.027,-0.136 -10.132,-4.219c-42.166,-33.732 -160.08,-128.465 -130.91,-273.505c19.328,-96.104 123.085,-132.084 140.88,-129.153Z" style="fill:#cb5c9c;fill-opacity:1;"/><path d="M1306.194,5.239c14.531,-1.651 14.264,0.209 28.202,4.316c25.61,7.069 96.282,26.562 159.837,101.443c0.257,0.302 0.199,0.308 2.693,4.16c-38.648,13.278 -191.535,78.305 -196.975,76.691c-3.168,-0.94 -21.071,-91.09 3.274,-173.691c1.905,-6.465 1.465,-6.378 2.968,-12.919Z" style="fill:#eb9514;fill-opacity:1;"/><path d="M1518.321,324.938c-96.191,84.63 -113.637,100.942 -116.628,99.252c-0.129,-0.073 -51.693,-63.954 -84.937,-160.111c-0.559,-1.616 -6.685,-19.336 -3.809,-21.03c0.343,-0.202 236.403,48.982 236.624,52.944c0.189,3.39 -1.326,2.87 -31.249,28.945Z" style="fill:#eb9514;fill-opacity:1;"/><path d="M687.266,628.791c53.685,10.814 47.091,28.235 47.049,125.09c-0.027,61.642 -37.491,58.87 -103.818,57.856c-5.237,-0.08 -7.179,-1.651 -7.241,-7.3c-0.153,-13.895 -1.867,-169.907 0.982,-173.693c2.491,-3.31 31.761,-2.404 63.027,-1.953Z" style="fill:#10161c;"/><path d="M1562.755,728.948c1.455,17.291 0.969,17.095 0.917,34.659c-17.795,-2.932 -121.552,33.049 -140.88,129.153c-29.17,145.04 88.743,239.773 130.91,273.505c5.105,4.084 5.025,4.033 10.132,4.219c-0.092,20.627 -0.004,20.434 -1.296,41.064c-25.275,-12.985 -92.966,-66.292 -131.749,-126.967c-78.582,-122.941 -67.597,-309.382 131.967,-355.632Z" style="fill:#030204;fill-opacity:0.99;"/><path d="M848.813,883.794c8.849,-5.799 15.918,-13.588 46.956,-12.602c23.893,0.759 35.444,13.16 37.666,15.545c23.831,25.585 11.516,136.336 8.261,144.408c-14.253,35.344 -108.318,53.674 -108.633,-30.96c-0.352,-94.881 -1.634,-97.398 15.75,-116.391Z" style="fill:#10161d;"/><path d="M532.668,749.67c-0.934,0.045 -8.709,-1.134 -9.931,4.091c-0.383,1.636 -0.171,41.044 -0.235,50.633c-0.069,10.358 -18.212,7.793 -31.001,7.432c-8.376,-0.236 -5.585,-22.939 -5.584,-26.368c0.034,-153.29 -0.688,-155.067 3.055,-156.44c2.635,-0.967 63.104,-0.457 65.624,-0.138c63.194,8.009 36.941,96.039 34.587,99.537c-6.578,9.775 -10.079,10.179 -12.116,12.975c-5.108,7.011 24.309,64.683 18.958,69.623c-1.308,1.208 -30.964,0.756 -31.993,0.524c-3.918,-0.886 -9.532,-17.812 -10.085,-19.477c-9.098,-27.427 -9.685,-39.936 -21.28,-42.393Z" style="fill:#10171d;"/><path d="M1563.804,327.65c-0.924,64.119 0.797,160.109 -1.051,183.42c-56.747,2.562 -55.955,9.412 -79.61,9.837c-9.094,0.163 -61.064,-64.33 -58.901,-69.594c1.723,-4.193 89.072,-78.918 96.936,-85.645c35.838,-30.658 34.71,-32.011 38.322,-33.941c1.271,-0.679 3.039,-0.425 4.085,-1.416c0.646,-0.612 -0.427,-2.049 0.219,-2.661Z" style="fill:#ea5b95;fill-opacity:1;"/><path d="M911.164,195.344c21.448,27.123 40.722,96.733 -75.196,132.78c-4.369,1.359 -29.83,13.128 -40.483,-1.044c-9.201,-12.24 -14.416,-151.555 75.089,-149.179c21.859,0.58 37.963,15.078 40.59,17.443Z" style="fill:#e90327;"/><path d="M833.963,794.932c0.002,-162.452 -0.237,-162.917 1.372,-164.591c2.807,-2.919 33.186,-1.938 34.543,-1.198c2.459,1.342 20.117,45.316 36.433,102.252c1.975,6.891 7.317,6.211 6.875,0.193c-3.311,-45.083 -0.988,-99.948 -0.708,-100.359c2.114,-3.105 25.251,-2.72 27.457,-2.683c0.667,0.011 6.16,0.103 6.407,5.336c0.02,0.425 0.317,170.274 -0.154,173.654c-0.963,6.903 -31.476,3.977 -31.65,3.934c-8.562,-2.111 -5.176,-5.596 -12.602,-25.953c-26.847,-73.594 -37.178,-115.759 -34.13,-82.112c0.378,4.178 1.026,8.331 1.334,12.515c0.497,6.76 0.576,90.298 0.31,91.461c-1.612,7.037 -34.572,6.303 -35.382,-0.045c-0.523,-4.102 0.419,-8.303 -0.105,-12.405Z" style="fill:#10161d;"/><path d="M390.546,774.118c-10.251,1.239 -14.054,-2.09 -15.871,8.166c-3.773,21.305 -3.467,29.378 -12.53,29.472c-19.842,0.206 -31.022,5.986 -27.129,-13.379c2.699,-13.427 32.233,-160.346 37.508,-167.042c2.878,-3.653 49.995,-6.869 51.85,2.753c11.876,61.611 39.74,173.442 35.823,176.858c-0.687,0.599 -33.151,3.752 -35.437,-3.166c-5.155,-15.605 -0.711,-33.462 -15.28,-33.656c-6.311,-0.084 -12.624,0.077 -18.935,-0.007Z" style="fill:#10161c;"/><path d="M609.647,889.926c4.024,-13.279 3.315,-13.918 5.619,-15.027c1.856,-0.894 22.76,-0.844 24.74,-0.839c17.402,0.042 22.931,-4.139 26.884,12.814c3.046,13.064 34.722,148.904 35.383,163.905c0.385,8.745 -26.223,5.963 -30.65,5.83c-7.978,-0.24 -7.872,-15.54 -11.711,-31.418c-2.169,-8.974 -21.999,-6.26 -32.537,-6.129c-15.86,0.197 -10.013,8.024 -16.993,34.265c-1.059,3.98 -27.903,3.371 -30.344,3.315c-10.109,-0.23 -1.362,-22.547 6.428,-59.59c0.581,-2.763 6.83,-32.481 7.273,-34.534c14.424,-66.903 14.67,-66.779 15.908,-72.594Z" style="fill:#10161c;"/><path d="M209.185,1040.954c-3.196,10.81 -0.021,15.644 -11.266,15.707c-2.197,0.012 -26.381,0.148 -27.283,-3.088c-0.702,-2.521 -0.092,-2.511 24.228,-113.367c11.705,-53.352 12.092,-65.772 18.886,-66.036c44.427,-1.722 45.074,-0.171 46.51,3.271c2.15,5.155 30.875,141.543 36.411,166.717c4.078,18.543 -7.113,12.738 -26.118,12.517c-19.117,-0.222 -6.1,-37.321 -22.105,-37.594c-18.791,-0.321 -34.001,-2.115 -36.168,5.903c-0,0 -2.849,14.692 -3.097,15.97Z" style="fill:#10161c;"/><path d="M769.501,1190.022c56.517,0.923 55.665,29.477 54.747,100.683c-1.092,84.655 -74.396,57.47 -85.58,46.564c-22.317,-21.763 -17.735,-113.6 -3.286,-131.315c12.511,-15.34 14.925,-11.606 34.119,-15.932Z" style="fill:#5d6064;"/><path d="M501.031,1026.405c23.418,-1.81 19.577,-12.508 19.576,-117.794c-0,-10.448 -2.682,-34.23 5.743,-34.494c3.789,-0.119 30.88,-3.072 31.08,6.11c3.125,143.713 -1.823,150.299 -9.554,160.588c-17.38,23.13 -99.784,40.716 -100.621,-37.471c-0.108,-10.09 -1.318,-123.057 0.571,-126.129c2.675,-4.349 35.751,-7.158 36.463,3.044c0.101,1.453 -0.143,120.971 0.161,129.466c0.48,13.4 14.739,16.305 16.583,16.681Z" style="fill:#10161c;"/><path d="M1514.637,141.509c19.748,14.279 40.611,89.741 42.891,97.988c4.943,15.062 4.27,22.839 4.096,24.846c-14.085,-7.096 -14.988,-4.187 -192.417,-42.93c-14.62,-3.192 -42.966,-5.392 -22.589,-12.006c3.65,-1.185 59.519,-23.71 82.975,-33.041c70.662,-28.112 78.387,-31.735 85.044,-34.858Z" style="fill:#ea5b95;fill-opacity:1;"/><path d="M892.637,335.074c89.115,6.521 80.884,90.047 37.439,108.324c-55.181,23.215 -93.75,-30.327 -108.628,-50.534c-29.839,-40.523 1.977,-49.919 71.189,-57.79Z" style="fill:#e90327;"/><path d="M420.209,880.127c-0.543,28.045 -2.148,27.864 -15.917,54.322c-37.225,71.529 -37.009,71.527 -40.301,77.707c-9.556,17.941 7.571,9.532 48.606,11.175c10.537,0.422 7.14,29.142 6.223,30.465c-3.98,5.739 -99.752,2.291 -100.169,2.049c-2.338,-1.358 -1.84,-19.292 -1.793,-20.976c0.289,-10.408 56.818,-111.996 61.204,-123.071c1.611,-4.067 -2.139,-3.191 -54.435,-5.224l4.357,-4.278c1.401,-16.691 1.901,-17.522 2.685,-18.826c3.094,-5.144 4.636,-1.54 6.197,-2.059l3.158,-0.003l63.155,0l3.158,-0.163l3.158,-0.31l3.158,1.304l3.158,-1.694l4.402,-0.418Z" style="fill:#0f161c;"/><path d="M777.577,1009.655c0.012,24.309 2.119,46.637 -5.009,46.905c-4.813,0.18 -31.604,2.851 -31.851,-5.821c-1.046,-36.664 4.736,-37.427 -7.528,-72.119c-34.466,-97.494 -39.031,-104.416 -30.014,-104.591c12.353,-0.239 29.733,-3.965 33.683,9.609c16.241,55.814 20.494,84.406 25.289,65.673c18.8,-73.445 21.499,-75.213 29.432,-75.255c2.241,-0.012 26.351,-0.142 27.836,3.099c2.384,5.205 -40.903,104.581 -41.837,132.501Z" style="fill:#10161c;"/><path d="M732.741,466.486c0.62,-5.693 3.729,-34.259 27.478,-66.101c5.46,-7.321 24.687,-45.249 61.391,25.888c47.122,91.327 -75.139,138.052 -88.869,40.213Z" style="fill:#e90326;"/><path d="M246.512,772.355c9.057,14.638 30.073,15.61 30.26,-12.158c0.619,-91.907 4.312,-95.305 -3.113,-97.779c-2.578,-0.859 -30.507,2.474 -30.697,-6.497c-0.046,-2.159 -0.528,-24.887 2.921,-26.833c1.642,-0.926 63.491,-0.875 65.061,0.027c3.294,1.892 2.865,3.096 2.839,121.609c-0.002,10.856 7.435,72.039 -65.296,62.81c-30.728,-3.9 -35.793,-29.478 -36.264,-30.824l6.007,-3.566l-0.486,-3.158l-0.09,-3.158l0.009,-3.158l-0.127,-3.158l-0.029,-3.158l0.006,-3.158c2.009,-5.109 0.531,-7.019 5.489,-7.449c1.282,-0.111 14.251,-1.234 15.503,4.291c0.279,1.232 -0.724,1.251 0.469,15.789l2.53,3.158l5.009,-3.631Z" style="fill:#10161d;"/><path d="M456.885,1205.414c11.02,16.984 26.854,84.959 -37.969,87.115c-1.656,0.055 -19.927,-3.533 -20.029,7.596c-0.005,0.497 0,34.905 0.001,37.94c0.002,16.532 -22.834,11.716 -23.143,3.142c-0.4,-11.085 -0.029,-122.004 0.006,-132.613c0.005,-1.411 0.056,-16.628 5.158,-16.869c59.817,-2.833 71.658,9.273 75.976,13.688Z" style="fill:#5f6165;"/><path d="M564.218,1347.813c-10.985,-3.32 -7.138,-12.7 -12.299,-31.978c-1.052,-3.93 -8.061,-5.141 -38.34,-4.252c-9.014,0.265 -11.153,27.151 -11.698,29.781c-2.19,10.552 -22.587,7.33 -23.42,3.144c-0.839,-4.217 29.473,-140.087 32.036,-148.56c2.164,-7.157 33.137,-4.169 34.923,-3.405c8.262,3.534 32.856,136.588 35.076,148.599c2.059,11.141 -5.004,5.859 -16.278,6.671Z" style="fill:#5e6064;"/><path d="M1562.776,864.714c2.163,17.31 0.956,17.034 0.907,34.734c-24.779,-1.298 -122.272,69.126 -5.216,171.376c3.015,2.634 3.369,1.394 5.447,1.728c-0.056,6.877 0.038,33.631 -1.139,41.052c-108.353,-60.543 -135.652,-214.4 0,-248.89Z" style="fill:#050302;fill-opacity:0.99;"/><path d="M614.538,1202.074c2.738,-2.182 5.392,-6.421 18.84,-10.39c50.357,-14.863 74.04,41.216 60.647,46.167c-13.869,5.127 -16.434,3.277 -21.401,-10.703c-8.003,-22.526 -48.133,-27.959 -49.095,16.163c-1.538,70.6 2.343,76.584 13.162,82.395c38.093,20.459 51.364,-43.25 34.836,-43.685c-15.959,-0.421 -22.886,2.445 -21.508,-13.354c0.305,-3.501 1.232,-6.58 43.636,-5.033c8.837,0.322 6.984,20.376 6.164,36.528c-3.327,65.548 -73.169,56.357 -90.509,31.013c-8.032,-11.739 -21.122,-95.984 5.228,-129.1Z" style="fill:#5e6165;"/><path d="M703.035,341.325c36.34,6.3 77.219,10.496 34.518,58.574c-4.446,5.005 -44.051,49.599 -81.505,18.962c-17.717,-14.492 -15.519,-34.759 -14.86,-37.4c11.799,-47.273 57.566,-40.135 61.846,-40.136Z" style="fill:#e90426;"/><path d="M1563.683,899.448c0.259,159.379 0.122,159.256 0.231,173.104c-2.078,-0.334 -2.432,0.906 -5.447,-1.728c-117.057,-102.25 -19.563,-172.674 5.216,-171.376Z" style="fill:#ede430;fill-opacity:1;"/><path d="M785.262,628.534c10.04,0.356 14.965,-4.611 15.315,5.407c0.047,1.33 0.322,171.086 -0.132,173.501c-1.134,6.037 -37.655,8.953 -37.782,-3.018c-0.147,-13.872 -1.793,-169.226 0.959,-173.401c1.885,-2.86 2.468,-1.587 21.64,-2.489Z" style="fill:#11161c;"/><path d="M935.82,1224.573c-4.812,12.854 -18.029,11.361 -22.527,0.309c-15.596,-38.315 -62.132,0.933 -33.091,24.499c17.965,14.578 64.954,13.072 55.922,69.577c-7.1,44.423 -86.29,38.982 -88.215,-6.178c-0.271,-6.347 18.896,-8.741 21.466,-2.639c21.316,50.606 63.098,-1.184 38.11,-21.538c-12.092,-9.849 -71.679,-21.489 -57.075,-70.849c9.522,-32.184 69.294,-48.189 85.41,6.819Z" style="fill:#5d6064;"/><path d="M769.378,1211.017c2.59,-0.012 18.473,-3.036 27.22,10.941c10.127,16.181 4.798,74.856 4.209,81.345c-2.696,29.691 -52.329,47.292 -53.235,-12.608c-0.948,-62.624 -0.687,-74.287 21.806,-79.678Z" style="fill:#fefefe;"/><path d="M703.623,308.239c-42.56,-61.374 55.319,-95.499 67.652,-21.437c14.114,84.758 -57.485,31.181 -67.652,21.437Z" style="fill:#e90425;"/><path d="M909.468,937.03c-0,58.295 6.274,97.113 -26.392,88.765c-15.382,-3.932 -13.454,-18.018 -13.179,-88.765c0.042,-10.845 -3.373,-33.467 22.79,-32.447c8.566,0.334 12.141,6.05 12.759,7.039c5.521,8.831 3.934,22.091 4.021,25.408Z" style="fill:#fefefe;"/><path d="M660.076,731.777c0,-58.753 -1.578,-69.272 5.13,-69.807c31.168,-2.486 32.261,6.874 32.281,38.229c0.039,62.144 7.032,80.096 -32.12,78.242c-7.553,-0.358 -5.292,-24.535 -5.291,-46.665Z" style="fill:#fdfdfd;"/><path d="M188.43,5.432c-7.702,2.472 -96.03,21.162 -163.951,95.008c-15.471,16.821 -26.304,34.739 -28.264,37.98c-10.517,17.396 -21.028,26.401 -43.202,97.87c-16.298,-9.222 -2.344,-17.612 8.964,-53.654c7.644,-24.363 46.911,-77.059 50.847,-81.165c3.092,-3.226 31.48,-32.842 39.973,-39.009c26.613,-19.323 26.241,-19.811 28.724,-21.224c31.779,-18.083 31.197,-19.083 34.161,-20.224c64.034,-24.665 65.836,-22.582 67.385,-19.834c1.013,1.797 0.876,4.383 2.492,5.665c0.836,0.663 2.035,-2.076 2.87,-1.414Z" style="fill:#787878;fill-opacity:0.01;"/><path d="M-48.453,1375.977c2.547,5.987 19.018,94.061 95.013,163.951c57.8,53.157 126.798,68.763 138.996,71.522c-6.57,11.624 -9.566,8.311 -22.29,4.126c-27.485,-9.04 -26.315,-11.042 -28.697,-11.734c-27.257,-7.92 -24.933,-12.561 -40.474,-20.264c-22.545,-11.175 -31.564,-22.048 -37.822,-25.503c-7.073,-3.905 -58.623,-57.105 -68.913,-75.192c-18.081,-31.78 -19.083,-31.197 -20.224,-34.161c-24.664,-64.037 -22.549,-65.836 -19.823,-67.377c1.792,-1.013 4.371,-0.884 5.646,-2.5c0.66,-0.837 -2.072,-2.032 -1.412,-2.869Z" style="fill:#787878;fill-opacity:0.01;"/><path d="M425.411,1272.337c-2.328,0.176 -25.909,4.4 -26.384,-3.528c-3.311,-55.303 -0.546,-56.648 3.94,-57.82c2.736,-0.715 22.876,-5.977 34.571,7.394c4.82,5.511 5.974,15.275 5.555,28.076c-0.757,23.12 -12.176,23.449 -17.681,25.879Z" style="fill:#fefefe;"/><path d="M1259.633,5.471c0.814,1.503 3.206,1.681 4.019,3.184c2.135,3.945 -1.205,20.367 -1.558,22.104l-0.957,3.158l0.023,3.158c-0.565,2.162 -3.889,21.658 -4.457,28.42l-1.617,3.158l-0.076,3.158l0,6.315l0.015,3.158l-0.046,3.158c-1.377,13.791 -0.599,13.66 -0.105,47.366l0.093,3.158l0.032,3.158l0,12.631l-0.071,3.158c3.563,11.422 9.547,62.658 9.661,66.312l-0.418,3.158l-0.38,3.158l-0.317,3.158l-3.666,2.987c-21.715,-102.639 -18.162,-158.466 -0.175,-227.213Z" style="fill:#111;fill-opacity:1;"/><path d="M558.754,690.726c-0.369,24.663 -4.77,27.676 -29.232,27.538c-7.146,-0.04 -6.991,-5.112 -7.004,-8.58c-0.114,-31.644 -2.597,-47.589 6.941,-47.815c30.293,-0.719 28.733,8.559 29.295,28.857Z" style="fill:#fefefe;"/><path d="M1334.397,9.554c-6.97,-8.562 -6.583,-9.348 -5.737,-9.651c4.928,-1.763 7.826,-2.8 62.466,19.456c10.162,4.139 20.375,13.38 25.183,15.484c16.284,7.127 15.308,8.665 31.859,21.369c13.469,10.338 13.004,10.6 25.02,22.416c27.02,26.571 36.551,29.357 25.066,37.927l-1.327,-1.398c-2.493,-3.852 -2.436,-3.858 -2.693,-4.16c-63.556,-74.882 -134.227,-94.375 -159.837,-101.443Z" style="fill:#764b04;fill-opacity:0.01;"/><path d="M522.709,1236.921c2.431,-14.462 4.588,-28.119 9.216,-21.577c0.488,0.689 12.629,63.457 13.698,68.981c2.394,12.377 -28.619,7.665 -29.146,7.624c-6.462,-0.492 -1.503,-16.955 6.233,-55.028Z" style="fill:#fdfdfd;"/><path d="M1153.707,819.941l4.678,3.41l1.418,3.158l0.042,3.158l-0.19,3.158c0.275,11.599 0.565,11.561 0.297,12.527c-0.4,1.44 -2.678,1.822 -3.078,3.262l0.033,3.158l-0.118,3.158l0.004,3.158l-0.066,3.158l0,3.158c1.513,27.167 0.238,27.106 -0.803,31.577l-0.139,3.158l-0.161,3.158c0.62,4.251 2.058,14.11 1.288,53.682c0.395,1.44 2.681,1.817 3.076,3.257c0.332,1.21 -1.208,1.161 -0.135,15.689c0.387,5.236 -1.289,4.466 -6.317,9.742c-10.887,-70.304 -10.135,-100.838 0.171,-164.723Z" style="fill:#090909;fill-opacity:1;"/><path d="M650.61,974.724c1.36,8.682 4.658,12.797 -4.274,12.992c-1.805,0.039 -21.454,0.468 -22.336,-3.247c-0.197,-0.828 11.604,-70.625 13.279,-71.713c4.253,-2.762 2.06,2.575 13.332,61.968Z" style="fill:#fbfbfb;"/><path d="M228.164,939.925c3.791,-25.642 2.987,-26.361 4.983,-27.219c3.43,-1.475 4.317,5.061 4.394,5.627c8.283,61.006 11.423,60.701 10.51,65.966c-0.641,3.694 -19.959,3.444 -21.717,3.421c-10.747,-0.139 -4.857,-12.627 1.831,-47.794Z" style="fill:#fbfbfb;"/><path d="M396.861,742.197c-7.215,-0.737 -15.557,3.332 -12.432,-13.54c10.514,-56.763 7.471,-59.838 12.375,-60.221c4.452,-0.349 2.783,7.909 10.755,50.485c0.417,2.229 1.102,4.402 1.537,6.628c0.241,1.234 2.693,13.776 0.407,15.716c-0,0 -11.629,0.858 -12.64,0.932Z" style="fill:#fcfcfc;"/><path d="M1513.085,137.191c2.099,-0.564 2.52,-4.039 4.62,-4.603c1.002,-0.269 9.008,9.03 11.872,15.495c3.209,7.245 13.166,16.411 19.099,34.492c9.825,29.941 20.493,48.379 15.533,52.972c-1.898,1.758 -4.782,2.193 -6.68,3.951c-2.28,-8.248 -23.143,-83.709 -42.891,-97.988c-0.517,-1.44 -1.035,-2.879 -1.552,-4.319Z" style="fill:#7a274c;fill-opacity:0.01;"/><path d="M420.209,880.127l-4.402,0.418l-3.158,1.694l-3.158,-1.304l-3.158,0.31l-3.158,0.163l-63.155,0l-3.158,0.003c-1.561,0.519 -3.103,-3.086 -6.197,2.059c-0.784,1.304 -1.284,2.135 -2.685,18.826l-4.357,4.278c-7.641,-11.497 -3.289,-12.425 -2.911,-26.411c0.235,-8.705 21.684,-6.103 38.253,-6.103c55.343,0 58.161,-2.171 61.241,6.067Z" style="fill:#09090a;"/><path d="M788.417,578.243c4.043,0.645 8.239,-0.612 12.282,0.033c5.789,0.924 -9.754,30.81 -21.738,31.107c-7.708,0.19 -17.363,3.475 -13.062,-10.366c4.704,-15.136 3.651,-15.502 6.822,-18.718c2.517,-2.553 2.905,-1.37 15.695,-2.056Z" style="fill:#0f1319;"/><path d="M246.512,772.355l-5.009,3.631l-2.53,-3.158c-1.193,-14.537 -0.19,-14.556 -0.469,-15.789c-1.252,-5.525 -14.221,-4.402 -15.503,-4.291c-4.958,0.429 -3.48,2.34 -5.489,7.449l-0.006,3.158l0.029,3.158l0.127,3.158l-0.009,3.158l0.09,3.158l0.486,3.158l-6.007,3.566c-2.062,-13.646 -5.745,-38.524 4.618,-38.755c2.253,-0.05 26.74,-0.595 27.915,3.765c0.65,2.41 -0.512,13.44 1.757,24.636Z" style="fill:#0d0e0f;"/><path d="M1447.126,1554.738l2.57,4.366c-2.067,2.555 -15.896,19.65 -33.045,24.393c-0.777,0.215 -1.843,0.51 -8.903,-4.723c3.594,-2.336 3.563,-2.335 3.882,-2.523c1.14,-0.67 1.064,-0.301 2.244,-0.994c31.081,-18.746 30.288,-19.523 33.251,-20.519Z" style="fill:#256323;fill-opacity:0;"/><path d="M1350.755,1603.887c10.002,10.081 1.091,11.794 -12.908,14.769c-8.491,1.804 -8.744,0.119 -12.88,-7.222c2.076,-0.559 1.743,-0.817 25.788,-7.548Z" style="fill:#7f7f7f;fill-opacity:0.01;"/><path d="M1562.962,1395.106c-0.132,-1.49 -2.841,-1.872 -2.974,-3.362c-0.911,-10.246 4.19,-3.079 4.398,-2.721c0.251,0.432 -0.105,0.451 -1.424,6.083Z" style="fill:#356b35;fill-opacity:0.01;"/></g></g></svg>