<?xml version="1.0" encoding="UTF-8" standalone="no"?><!DOCTYPE svg PUBLIC "-//W3C//DTD SVG 1.1//EN" "http://www.w3.org/Graphics/SVG/1.1/DTD/svg11.dtd"><svg width="100%" height="100%" viewBox="0 0 1078 656" version="1.1" xmlns="http://www.w3.org/2000/svg" xmlns:xlink="http://www.w3.org/1999/xlink" xml:space="preserve" xmlns:serif="http://www.serif.com/" style="fill-rule:evenodd;clip-rule:evenodd;stroke-linejoin:round;stroke-miterlimit:2;"><g id="Mesa-de-trabajo1" serif:id="Mesa de trabajo1"><path d="M280.771,413.847c185.202,-363.639 184.699,-364.44 187.298,-365.635c3.679,-1.692 486.599,-0.319 580.361,-1.059c4.23,-0.033 -0.681,6.665 -4.298,13.672c-14.81,28.689 -185.702,361.101 -186.279,361.871c-1.996,2.662 -2.776,2.561 -107.716,2.516c-472.457,-0.205 -472.758,0.189 -473.472,-0.6c-1.467,-1.621 -0.163,-1.799 4.106,-10.764Z" style="fill:#119e54;"/><path d="M707.785,121.002c-44.264,3.239 -121.191,14.168 -187.042,65.437c-10.069,7.839 -26.676,24.301 -26.204,25.663c0.531,1.532 1.281,1.261 117.527,1.2c310.78,-0.165 311.242,-0.413 312.343,0.911c1.607,1.932 -31.806,66.319 -79.137,105.247c-6.581,5.413 -97.904,91.3 -264.414,80.653c-54.974,-3.515 -140.197,-28.506 -169.905,-98.468c-0.309,-0.729 -3.517,-8.282 -2.2,-9.646c2.064,-2.137 50.756,-0.701 55.168,-0.571c11.357,0.335 5.151,16.03 32.376,38.474c38.728,31.928 169.421,47.895 273.289,-15.478c23.442,-14.303 45.335,-29.213 73.169,-56.024c5.73,-5.519 -2.112,-4.301 -21.063,-4.303c-408.809,-0.023 -409.188,0.204 -409.938,-0.792c-1.907,-2.533 12.654,-27.81 27.353,-46.916c97.914,-127.267 298.417,-148.503 394.542,-115.799c51.825,17.632 77.239,47.425 93.242,79.029c3.716,7.338 1.344,7.647 0.727,7.685c-1.928,0.117 -46.084,0.15 -48.531,-0.183c-9.332,-1.272 -33.858,-62.752 -154.116,-57.211c-1.376,0.063 -2.753,0.127 -17.185,1.092Z" style="fill:#fcfdfc;"/><path d="M952.801,130.943c-3.647,0.444 -17.076,4.632 -29.11,-11.665c-18.023,-24.408 12.825,-55.375 38.802,-38.72c14.93,9.572 19.407,41.911 -9.692,50.385Z" style="fill:#f5faf7;"/><path d="M535.914,483.253c-0.472,21.987 -1.657,32.535 2.119,25.891c14.378,-25.299 16.072,-30.602 22.636,-30.632c0.662,-0.003 7.918,-0.037 8.099,1.705c0.081,0.782 -29.004,54.495 -31.491,56.07c-0.526,0.333 -17.122,2.606 -18.336,-1.511c-1.009,-3.419 0.097,-26.07 0.208,-28.335c0.634,-12.982 -15.853,29.84 -22.949,30.49c-10.043,0.92 -9.567,-1.601 -9.367,-2.347c0.004,-0.014 27.407,-53.71 30.527,-55.324c1,-0.517 2.621,-1.355 14.057,-0.745c5.522,0.295 4.445,4.364 4.498,4.738Z" style="fill:#272324;"/><path d="M386.316,630.995c-2.428,-0.617 -3.632,-0.193 -3.075,-2.632c0.066,-0.287 1.386,-6.066 -2.615,-2.583c-14.149,12.316 -44.453,5.943 -32.179,-18.359c7.258,-14.371 33.053,-28.046 46.276,-16.744c2.81,2.402 4.324,-2.492 4.427,-2.734c5.161,-12.099 6.412,-21.831 14.34,-20.792c5.056,0.663 2.826,3.555 -8.422,30.823c-12.948,31.39 -12.804,32.085 -15.637,32.71c-0.245,0.054 -0.231,0.023 -3.115,0.31Z" style="fill:#2b2728;"/><path d="M786.412,519.976c-3.413,-0.012 -12.724,-0.659 -15.734,1.994c-0.562,0.495 -8.592,9.242 -11.729,12.399c-4.448,4.477 -17.205,2.988 -17.208,1.303c-0.003,-1.618 54.863,-55.857 55.07,-56.006c2.182,-1.563 13.574,-1.34 14.961,-0.824c4.007,1.489 -2.885,23.165 -2.088,28.577c0.679,4.609 24.209,-0.413 23.027,4.039c-3.136,11.81 -6.882,8.876 -19.082,8.9c-9.089,0.018 -7.882,3.285 -9.043,12.275c-0.132,1.023 -0.74,5.73 -12.168,4.271c-8.438,-1.077 4.782,-16.141 -6.007,-16.928Z" style="fill:#272324;"/><path d="M723.988,525.036c9.028,-1.466 7.622,-8.843 5.686,-10.064c-3.263,-2.059 2.408,-7.744 2.749,-8.18c4.423,-5.653 20.572,-2.47 20.679,-2.33c1.602,2.094 -14.824,28.77 -15.133,29.107c-4.611,5.031 -67.645,18.079 -32.556,-33.445c12.799,-18.793 36.748,-22.134 43.716,-21.934c11.058,0.317 17.234,0.305 12.306,10.195c-4.361,8.752 -7.258,3.42 -17.362,3.575c-21.928,0.336 -29.884,22.464 -30.506,26.518c-1.279,8.334 8.652,6.699 10.42,6.56Z" style="fill:#272324;"/><path d="M276.407,631.981c-4.509,0.221 -15.912,1.99 -21.664,-8.866c-8.416,-15.883 22.08,-44.279 47.813,-34.776c15.677,5.79 13.498,35.031 -26.148,43.641Z" style="fill:#2b2728;"/><path d="M554.603,631.956c-3.783,-0.341 -26.028,-0.161 -16.701,-23.576c11.281,-28.322 67.771,-29.388 53.822,1.771c-0.601,1.343 -3.818,8.528 -12.144,13.82c-10.865,6.906 -20.086,7.353 -24.978,7.985Z" style="fill:#2b2728;"/><path d="M751.138,631.963c-47.658,-4.289 -1.602,-55.89 29.16,-43.722c17.412,6.888 10.879,39.062 -29.16,43.722Z" style="fill:#2b2728;"/><path d="M635.251,537.034c-7.685,-0.101 -11.418,1.153 -10.141,-6.431c4.298,-25.536 6.288,-25.035 7.065,-25.296c0.248,-0.083 16.024,-1.975 15.256,-9.977c-0.407,-4.245 -11.087,-7.224 -14.86,-0.797c-11.021,18.771 -21.557,41.99 -26.526,42.351c-5.056,0.367 -12.638,1.182 -9.81,-4.102c26.078,-48.724 25.896,-48.834 29.149,-52.356c2.381,-2.578 32.946,-3.986 37.852,1.033c1.116,1.142 8.254,13.438 -12.568,26.466c-7.284,4.557 -8.007,4.436 -8.472,8.565c-1.717,15.234 0.624,19.734 -6.945,20.544Z" style="fill:#272324;"/><path d="M316.781,537.037c-0.978,-0.016 -8.046,0.764 -7.821,-2.365c0.013,-0.177 27.799,-53.03 31.102,-55.287c0.014,-0.01 38.287,-5.883 38.786,6.907c0.491,12.579 -14.515,21.489 -16.439,22.631c-10.735,6.375 -5.615,9.615 -8.63,24.642c-0.907,4.52 -7.063,3.592 -12.836,3.314c-4.79,-0.23 -1.938,-7.882 0.681,-21.453c1.418,-7.345 0.02,-9.666 7.429,-10.821c13.101,-2.042 16.245,-14.064 2.983,-13.495c-5.912,0.254 -5.675,3.088 -17.576,24.127c-9.655,17.068 -10.06,17.646 -11.075,19.091c-2.216,3.158 -2.765,2.367 -6.605,2.708Z" style="fill:#282425;"/><path d="M674.546,523.997c11.596,0.11 16.563,-1.201 13.616,4.341c-0.423,0.795 -4.02,7.56 -7.561,8.335c-1.565,0.342 -34.725,0.954 -35.874,-0.391c-1.298,-1.52 6.031,-12.015 22.229,-40.671c9.049,-16.01 9.317,-17.098 15.663,-17.249c2.403,-0.057 27.559,-0.655 30.045,0.274c1.87,0.699 -0.025,13.272 -10.91,12.95c-4.637,-0.137 -16.166,-2.716 -20.185,6.758c-2.737,6.452 21.368,-1.579 16.676,6.777c-7.966,14.186 -14.381,5.887 -22.652,8.46c-3.172,0.987 -5.544,6.378 -5.839,7.048c-1.742,3.959 3.43,3.305 4.793,3.367Z" style="fill:#272425;"/><path d="M295.614,523.995c0.819,-0.007 9.278,-0.08 10.23,0.289c0.89,0.344 2.951,1.474 -4.611,11.003c-2.291,2.886 -38.609,2.185 -39.07,0.448c-0.372,-1.405 0.159,-1.326 8.671,-15.967c17.315,-29.782 22.274,-39.11 23.946,-40.312c3.977,-2.86 32.258,-1.19 35.059,-1.024c3.817,0.225 -1.085,7.943 -1.456,8.527c-7.277,11.457 -24.029,-3.066 -29.076,11.299c-1.476,4.201 9.489,2.816 13.444,2.842c6.616,0.044 3.486,3.363 2.315,5.495c-5.673,10.325 -8.674,5.834 -20.48,6.653c-4.308,0.299 -7.711,8.147 -7.367,9.448c0.311,1.176 7.716,1.289 8.396,1.299Z" style="fill:#272324;"/><path d="M473.996,523.997c3.295,0.01 12.339,-1.208 11.256,2.636c-0.282,1.003 -2.702,9.591 -8.225,10.095c-0.218,0.02 -35.015,1.386 -35.735,-0.883c-0.526,-1.658 4.464,-9.33 20.181,-36.721c10.855,-18.918 11.771,-19.88 13.477,-20.173c6.505,-1.117 34.116,-1.489 34.968,0.452c0.374,0.851 -2.023,12.211 -9.721,12.005c-11.549,-0.309 -17.528,-2.712 -21.731,6.142c-3.837,8.084 19.262,-0.461 16.424,6.771c-4.842,12.337 -8.801,7.636 -21.921,9.017c-0.692,0.073 -3.807,0.401 -6.172,6.122c-2.219,5.369 1.398,4.381 7.197,4.537Z" style="fill:#272324;"/><path d="M408.689,516.695c-17.481,18.155 -18.152,19.933 -22.341,20.208c-5.216,0.342 -14.489,1.809 -13.215,-4.29c4.36,-20.885 10.036,-51.917 12.255,-53.261c1.641,-0.994 14.34,-2.475 14,1.878c-0.386,4.939 -8.774,33.924 -6.909,34.777c2.243,1.026 30.76,-35.873 37.098,-37.124c3.299,-0.651 17.302,-1.716 12.761,2.987c-2.691,2.787 -24.519,25.389 -33.65,34.826Z" style="fill:#272324;"/><path d="M233.135,537.037c-18.387,0.153 -24.084,0.419 -22.688,-3.243c5.409,-14.185 10.374,-7.82 28.716,-9.395c19.401,-1.666 -5.831,-17.626 8.411,-35.845c11.833,-15.139 35.111,-11.353 35.686,-9.248c0.362,1.325 -3.531,12.292 -7.803,11.96c-1.301,-0.101 -17.885,-4.261 -14.618,6.969c0.145,0.497 11.239,21.471 -6.864,33.949c-8.444,5.821 -16.412,4.671 -20.84,4.853Z" style="fill:#272324;"/><path d="M608.044,491.963c-5.807,0.218 -5.842,-0.221 -7.923,0.721c-5.241,2.372 -23.029,42.191 -27.38,43.928c-1.709,0.682 -12.942,0.322 -13.134,0.285c-2.42,-0.471 -1.993,-2.196 8.595,-20.11c9.842,-16.65 13.935,-22.839 12.482,-24.31c-0.976,-0.988 -1.206,-0.435 -7.926,-0.401c-5.89,0.03 -3.364,-4.177 1.459,-11.525c1.091,-1.661 1.678,-2.556 24.745,-2.195c17.572,0.275 22.354,-0.696 20.149,3.878c-4.98,10.334 -6.411,9.573 -11.068,9.729Z" style="fill:#282425;"/><path d="M412.941,616.275c2.323,18.181 34.271,2.328 29.538,10.965c-3.169,5.783 -47.34,11.658 -38.325,-16.1c9.364,-28.833 63.236,-34.025 51.279,-5.105c-2.826,6.836 -5.364,3.646 -37.857,4.685c-4.855,0.155 -4.378,4.096 -4.635,5.555Z" style="fill:#2c2829;"/><path d="M105.142,631.948c-0.447,-0.058 -19.01,-0.323 -20.061,-11.652c-3.144,-33.904 67.686,-49.308 51.297,-12.081c-3.063,6.958 -39.578,-2.561 -41.399,6.029c-3.449,16.269 27.669,9.137 29.36,11.061c1.073,1.221 1.743,5.735 -19.198,6.643Z" style="fill:#2d292a;"/><path d="M867.024,631.978c-1.855,-0.014 -21.508,1.995 -22.718,-13.711c-1.057,-13.726 21.634,-35.814 42.912,-31.293c14.967,3.179 13.586,23.202 3.028,23.639c-31.412,1.3 -36.277,-2.51 -36.001,5.654c0.363,10.729 15.31,9.408 16.842,9.273c2.117,-0.187 14.016,-2.825 12.797,1.725c-0.736,2.746 -15.47,4.544 -16.86,4.713Z" style="fill:#2d292a;"/><path d="M926.093,103.297c4.205,-29.233 41.866,-23.569 40.306,1.991c-1.484,24.313 -38.484,25.059 -40.306,-1.991Z" style="fill:#19a05a;"/><path d="M498.186,631.994c-9.117,-0.944 -9.18,-0.48 -13.039,-1.812c-0.336,-0.116 -3.376,-1.166 -3.442,-2.803c-0.248,-6.241 8.768,-3.722 9.552,-3.503c22.681,6.338 46.337,-11.763 21.096,-20.878c-31.035,-11.207 -3.232,-37.863 29.092,-32.697c8.191,1.309 4.237,8.643 -1.91,7.503c-1.978,-0.367 -18.053,-3.348 -25.022,2.456c-13.616,11.34 6.224,16.236 8.72,17.203c18.88,7.316 12.926,32.029 -25.047,34.53Z" style="fill:#2c2829;"/><path d="M28.015,612.295c0.233,-1.231 0.909,-33.826 46.833,-41.699c18.839,-3.23 32.263,1.544 22.225,6.375c-6.241,3.003 -28.155,-9.103 -50.066,14.397c-10.206,10.946 -15.999,37.772 20.799,33.504c2.021,-0.234 4.024,-0.61 6.036,-0.913c4.93,-0.743 5.102,3.897 0.161,5.71c-7.05,2.587 -43.075,7.525 -45.944,-14.377c-0.014,-0.999 -0.029,-1.998 -0.043,-2.996Z" style="fill:#2b2728;"/><path d="M650.346,630.953c-3.565,-0.368 -2.982,-1.499 -2.926,-4.613c0.073,-4.03 -3.578,3.056 -14.237,4.719c-29.499,4.603 -19.852,-15.257 -9.746,-37.837c4.853,-10.843 11.773,-5.172 11.326,-3.216c-1.745,7.634 -22.363,39.415 1.409,34.92c22.13,-4.185 19.32,-36.051 30.355,-37.498c7.93,-1.039 4.723,4.497 2.561,9.518c-6.336,14.708 -6.168,14.699 -12.397,29.527c-1.893,4.506 -2.836,3.859 -6.345,4.48Z" style="fill:#2a2627;"/><path d="M138.39,630.977c-0.436,-0.037 -5.067,-0.432 -5.238,-1.559c-0.2,-1.325 15.491,-40.876 18.262,-41.597c6.899,-1.793 6.166,2.714 6.077,3.259c-1.103,6.773 5.515,-6.21 25.241,-3.985c15.916,1.796 7.118,20.406 -1.886,40.324c-2.569,5.683 -12.328,5.19 -9.91,-0.958c3.089,-7.858 22.17,-39.201 -4.362,-32.494c-9.142,2.311 -15.569,15.416 -16.404,17.119c-4.933,10.058 -4.712,18.79 -11.78,19.891Z" style="fill:#2c292a;"/><path d="M789.447,630.979c-0.36,-0.037 -4.103,-0.426 -4.249,-1.566c-0.263,-2.048 12.308,-30.892 16.195,-39.407c1.997,-4.374 7.985,-2.329 8.37,-1c0.485,1.672 -0.962,4.716 2.767,2.884c1.569,-0.771 12.851,-6.313 21.277,-4.991c15.914,2.496 8.745,17.145 7.026,21.313c-6.922,16.786 -8.33,23.394 -14.101,23.052c-9.077,-0.538 -0.646,-8.568 4.686,-24.183c7.099,-20.79 -18.819,-17.394 -27.531,0.305c-7.086,14.396 -5.857,22.651 -14.44,23.592Z" style="fill:#2b2728;"/><path d="M421.587,537.055c-2.621,-0.382 -4.035,0.099 -3.275,-2.481c0.625,-2.121 4.454,-8.522 4.884,-9.24c12.365,-20.669 25.213,-44.355 27.731,-45.909c2.105,-1.299 12.475,-1.231 13.905,-0.893c3.178,0.751 0.857,2.596 -26.577,50.805c-4.979,8.749 -6.56,7.631 -16.668,7.718Z" style="fill:#262323;"/><path d="M264.034,616.288c1.3,-23.386 37.005,-31.518 36.805,-15.132c-0.244,20.046 -33.94,36.487 -36.805,15.132Z" style="fill:#fbfbfb;"/><path d="M545.933,617.27c2.411,-23.146 28.503,-29.919 34.623,-20.958c12.643,18.511 -31.614,42.995 -34.623,20.958Z" style="fill:#fbfbfb;"/><path d="M753.152,625.889c-30.812,-2.233 7.78,-46.435 22.73,-30.358c6.342,6.82 0.965,27.459 -22.73,30.358Z" style="fill:#fbfbfb;"/><path d="M391.907,601.156c-2.921,32.754 -50.326,30.467 -31.325,3.375c6.971,-9.939 28.858,-19.374 31.325,-3.375Z" style="fill:#fbfbfb;"/><path d="M667.068,618.302c3.749,-36.288 57.172,-34.845 52.687,-27.301c-2.706,4.55 -3.801,3.077 -8.944,2.229c-16.221,-2.672 -29.11,8.185 -31.917,18.099c-5.472,19.326 23.38,13.271 23.818,13.327c0.642,0.082 5.327,4.125 -5.06,6.306c-28.434,5.971 -30.28,-10.029 -30.584,-12.66Z" style="fill:#2c2829;"/><path d="M206.913,631.977c-9.653,-0.722 -12.867,-2.272 -11.839,-10.619c0.832,-6.763 13.29,-26.127 8.879,-27.368c-4.22,-1.187 -6.511,-1.336 -4.183,-5.005c1.382,-2.178 9.107,-0.213 10.753,-4.127c0.385,-0.916 3.772,-8.973 10.453,-6.703c3.706,1.259 -4.454,8.611 2.053,9.109c0.743,0.057 8.878,0.678 9.138,1.788c1.657,7.062 -13.785,2.026 -16.79,7.297c-0.05,0.088 -9.245,20.306 -9.603,23.943c-0.788,8.005 13.872,2.506 9.038,8.971c-2.194,2.934 -6.945,2.621 -7.897,2.714Z" style="fill:#2d292a;"/><path d="M902.325,631.963c-0.512,-0.068 -15.472,-0.854 -11.961,-5.506c2.76,-3.657 3.496,-2.556 8.012,-1.546c1.473,0.329 13.544,3.029 18.624,-3.029c8.662,-10.33 -13.796,-9.04 -14.978,-18.667c-2.015,-16.411 39.401,-21.106 35.85,-12.013c-2.487,6.367 -20.488,-3.906 -24.683,6.845c-2.444,6.264 7.448,7.965 9.066,8.632c9.668,3.984 14.322,22.43 -19.93,25.284Z" style="fill:#2c2829;"/><path d="M24.512,0c-0.745,10.992 -0.741,642.413 -0,655.077c-0.113,-0.491 -1.398,0.491 -1.512,0c-0.491,-2.127 0,-4.367 0,-6.55l0,-648.527c0.356,-0.356 1.155,0.356 1.512,0Z" style="fill:none;"/><path d="M592.921,630.996c-3.17,-0.161 -4.182,-0.6 -3.053,-3.643c4.772,-12.862 10.903,-26.958 13.698,-33.439c10.49,-24.323 10.079,-26.785 17.56,-26.688c4.618,0.06 2.467,3.469 -18.997,54.149c-2.874,6.786 -1.785,8.989 -9.208,9.621Z" style="fill:#2c292a;"/><path d="M226.072,630.977c-9.262,-0.654 -3.836,-5.195 -0.297,-13.813c11.989,-29.196 12.716,-29.573 15.444,-29.708c7.911,-0.39 1.717,6.207 3.981,6.697c1.264,0.274 10.563,-8.436 18.192,-7.278c2.029,0.308 4.025,6.514 -6.117,7.839c-6.312,0.825 -11.902,2.196 -18.759,15.692c-6.172,12.15 -4.318,18.939 -12.445,20.57Z" style="fill:#2c2829;"/><path d="M713.858,630.985c-0.256,-0.014 -2.706,-0.153 -3.178,-0.379c-2.38,-1.143 13.805,-36.787 15.756,-40.268c0.349,-0.623 2.814,-5.023 8.611,-2.329c2.151,1 1.691,2.181 -9.599,28.048c-5.642,12.928 -5.348,14.484 -11.59,14.928Z" style="fill:#2d2a2b;"/><path d="M938.162,97.256c0.039,-0.683 -0.01,-1.37 0.03,-2.053c0.493,-8.553 28.151,-2.991 16.631,8.208c-4.325,4.204 5.734,10.743 0.949,12.103c-5.79,1.646 -8.842,-8.758 -9.473,-9.826c-2.951,-4.989 0.455,8.397 -3.588,9.896c-5.826,2.16 -4.503,-9.039 -4.548,-18.327Z" style="fill:#eaf6f0;"/><path d="M883.161,604.956c-18.898,0.34 -25.245,0.744 -23.052,-2.722c9.161,-14.474 32.347,-11.254 28.333,0.02c-1.114,3.129 -1.98,2.198 -5.282,2.701Z" style="fill:#f7f7f7;"/><path d="M123.272,604.959c-19.437,0.324 -24.494,0.835 -22.306,-2.873c6.8,-11.526 29.943,-13.667 28.305,-0.933c-0.56,4.358 -5.858,3.79 -5.999,3.806Z" style="fill:#f6f6f6;"/><path d="M425.622,604.95c-1.668,-0.088 -3.341,-0.011 -5.009,-0.098c-11.908,-0.625 21.436,-22.562 26.04,-7.681c3.042,9.833 -8.29,7.838 -21.031,7.779Z" style="fill:#f7f7f7;"/><path d="M737.073,570.061c12.797,-1.343 5.799,7.334 1.873,8.633c-7.972,2.638 -10.367,-5.305 -1.873,-8.633Z" style="fill:#2e2b2b;"/><path d="M787.439,509.046c-0.944,-0.239 -4.846,0.643 -1.605,-3.246c0.582,-0.698 4.87,-5.844 7.699,-8.347c2.251,-1.992 1.836,1.707 1.812,1.917c-1.253,11.176 -4.55,9.406 -7.906,9.676Z" style="fill:#e9e9e9;"/><path d="M944.081,97.263c0.913,-3.839 2.112,-3.937 5.643,-2.087c4.386,2.298 -4.205,10.977 -5.643,2.087Z" style="fill:#21a460;"/></g></svg>