<?xml version="1.0" encoding="UTF-8" standalone="no"?><!DOCTYPE svg PUBLIC "-//W3C//DTD SVG 1.1//EN" "http://www.w3.org/Graphics/SVG/1.1/DTD/svg11.dtd"><svg width="100%" height="100%" viewBox="0 0 1038 1200" version="1.1" xmlns="http://www.w3.org/2000/svg" xmlns:xlink="http://www.w3.org/1999/xlink" xml:space="preserve" xmlns:serif="http://www.serif.com/" style="fill-rule:evenodd;clip-rule:evenodd;stroke-linejoin:round;stroke-miterlimit:2;"><rect id="Mesa-de-trabajo1" serif:id="Mesa de trabajo1" x="0" y="0" width="1037.277" height="1199.91" style="fill:none;"/><g id="Gemini_Generated_Image_sysxomsysxomsysx.png"><path d="M295.431,1138.738c-12.669,-3.247 -57.467,-12.803 -65.38,-73.176c-7.384,-56.335 -70.459,-537.554 -91.004,-704.362c-19.311,-156.793 -28.571,-165.654 -15.264,-165.632c764.681,1.273 764.638,-0.237 831.127,0.079c8.965,0.043 3.426,21.341 2.47,28.244c-0.98,7.079 -41.959,322.779 -45.602,350.847c-66.504,512.345 -67.959,512.274 -70.181,517.345c-24.322,55.52 -83.284,48.217 -95.107,48.232c-415.066,0.534 -415.077,1.132 -451.06,-1.578Z" style="fill:#ff1c00;"/><path d="M126.197,54.977c8.191,-0.616 7.783,-1.792 31.528,-1.758c202.061,0.284 770.02,-0.145 783.695,0.523c60.929,2.979 81.43,46.671 85.934,61.537c6.759,22.305 3.747,54.146 3.293,54.773c-1.917,2.65 -2.909,1.474 -880.843,2.493c-92.343,0.107 -97.937,2.302 -97.934,-7.481c0.01,-28.553 -5.41,-90.294 74.326,-110.087Z" style="fill:#ff1c00;"/><path d="M683.178,564.335c26.722,-14.275 26.203,-14.806 53.074,-28.336c9.458,-4.762 10.955,5.365 44.4,62.688c38.866,66.615 23.559,74.434 -33.612,182.286c-32.167,60.683 -42.295,56.542 -111.395,56.919c-16.508,0.09 -4.252,52.131 -23.217,39.688c-6.227,-4.086 -61.328,-105.915 -61.661,-107.388c-1.031,-4.566 57.119,-104.503 58.56,-105.546c14.483,-10.481 15.676,33.845 15.82,34.214c2.418,6.214 56.563,3.346 57.475,2.177c3.114,-3.988 -39.961,-73.558 -51.544,-97.478c-5.488,-11.332 6.939,-13.903 52.1,-39.224Z" style="fill:#030303;"/><path d="M633.065,531.548c-51.485,-1.717 -90.552,-2.23 -95.211,-3.603c-19.407,-5.72 21.156,-29.454 22.823,-30.721c5.523,-4.194 -26.21,-54.868 -27.918,-54.881c-5.735,-0.042 -51.901,101.276 -60.699,101.079c-5.437,-0.122 -94.971,-50.99 -104.812,-56.787c-12.484,-7.354 -2.349,-10.958 28.065,-70.217c32.53,-63.38 43.505,-64.187 179.663,-63.272c83.414,0.561 71.371,28.42 103.904,70.558c5.853,7.581 46.184,-21.831 42.332,-1.694c-1.903,9.948 -50.358,96.463 -54.981,104.718c-4.584,8.184 -26.726,4.912 -33.166,4.819Z" style="fill:#030303;"/><path d="M353.34,549.418c15.235,-0.075 45.895,-0.329 47.29,0.059c6.304,1.754 13.089,16.967 14.518,19.456c40.561,70.627 58.147,93.35 43.653,95.161c-11.665,1.457 -32.598,-20.168 -41.527,-4.46c-1.765,3.105 -20.488,36.039 -21.141,39.324c-1.68,8.443 5.546,0.698 107.546,3.585c8.921,0.253 6.883,11.741 6.906,17.454c0.452,114.766 -0.516,116.228 -4.003,116.985c-6.566,1.425 -85.164,0.059 -92.569,-0.07c-46.789,-0.813 -52.412,-14.843 -109.581,-112.373c-36.977,-63.082 -37.571,-69.418 -4.818,-131.705c7.195,-13.682 -0.72,-13.072 -13.148,-21.967c-36.89,-26.402 10.467,-21.43 66.875,-21.449Z" style="fill:#030303;"/><path d="M598.855,735.889c0.478,-0.759 5.161,-8.204 7.788,-8.062c30.423,1.649 30.155,0.941 60.689,0.93c72.744,-0.027 72.405,-5.594 78.681,-4.963c5.25,0.528 0.444,3.591 -29.861,58.804c-24.669,44.947 -39.466,20.698 -107.157,31.499c-3.219,0.514 -4.494,0.19 -22.708,-33.833c-7.524,-14.055 -3.656,-15.203 12.568,-44.375Z" style="fill:#00ff56;"/><path d="M549.06,416.269c-11.354,-18.598 -10.685,-18.795 -16.582,-25.901c-0.608,-0.733 -7.495,-9.033 -5.009,-10.795c1.577,-1.118 63.111,0.449 68.597,0.589c47.082,1.199 54.092,60.467 72.129,74.968c3.109,2.499 6.364,5.117 -18.899,46.136c-3.94,6.397 -52.16,5.272 -53.717,-0.145c-2.139,-7.44 -3.077,-10.706 -46.52,-84.853Z" style="fill:#00ff56;"/><path d="M363.879,576.343c0.865,-0.003 23.228,-2.467 26.887,3.459c3.166,5.128 18.319,32.201 19.893,35.012c3.358,5.999 -2.5,7.109 -6.095,13.445c-55.225,97.312 -52.008,98.9 -57.133,107.152c-4.225,6.803 -9.71,-7.356 -11.008,-9.493c-19.957,-32.88 -19.969,-32.714 -21.692,-35.567c-32.153,-53.22 4.712,-62.77 20.119,-110.217c1.956,-6.025 25.832,-3.817 29.03,-3.79Z" style="fill:#00ff3b;"/><path d="M709.517,580.079c15.312,-8.502 15.212,-8.451 16.537,-9.183c7.127,-3.935 8.606,-0.057 40.979,57.052c21.113,37.246 -3.533,67.635 -44.287,68.443c-11.895,0.236 -11.353,-3.898 -57.711,-84.775c-4.382,-7.645 11.217,-13.03 44.483,-31.538Z" style="fill:#00ff56;"/><path d="M483.453,746.38c-0.151,57.908 1.532,63.793 -6.056,63.975c-59.568,1.426 -108.993,4.921 -108.421,-42.876c0.148,-12.404 8.191,-38.361 18.681,-38.631c2.305,-0.059 90.508,0.012 92.102,0.146c5.171,0.437 2.758,3.065 3.693,17.387Z" style="fill:#00ff56;"/><path d="M509.176,427.175c-7.393,13.558 -7.151,13.472 -14.733,27.02c-12.178,21.76 -11.601,21.789 -23.638,43.438c-10.618,19.096 -15.998,7.616 -35.238,-2.738c-35.305,-19 -40.649,-21.306 -37.061,-28.06c30.971,-58.289 42.707,-94.971 84.117,-79.316c11.862,4.484 21.083,17.466 22.458,19.401c8.56,12.05 6.679,13.565 4.096,20.254Z" style="fill:#00ff56;"/></g></svg>