<?xml version="1.0" encoding="UTF-8" standalone="no"?><!DOCTYPE svg PUBLIC "-//W3C//DTD SVG 1.1//EN" "http://www.w3.org/Graphics/SVG/1.1/DTD/svg11.dtd"><svg width="100%" height="100%" viewBox="0 0 1501 928" version="1.1" xmlns="http://www.w3.org/2000/svg" xmlns:xlink="http://www.w3.org/1999/xlink" xml:space="preserve" xmlns:serif="http://www.serif.com/" style="fill-rule:evenodd;clip-rule:evenodd;stroke-linejoin:round;stroke-miterlimit:2;"><rect id="Mesa-de-trabajo1" serif:id="Mesa de trabajo1" x="0" y="0" width="1500.965" height="927.562" style="fill:none;"/><g id="Gemini_Generated_Image_fern6ffern6ffern.png"><path d="M106.964,61.708c5.188,0.122 43.369,5.68 61.779,15.614c57.548,31.051 43.009,111.742 58.594,111.842c17.759,0.114 17.578,-0.083 25.779,-0.479c16.471,0.73 18.128,0.803 206.092,0.63c99.849,1.291 162.707,0.213 176.853,-0.029c64.691,0.816 64.527,0.047 129.086,0.481c68.268,0.1 88.445,-4.709 93.857,23.068c5.305,27.226 -23.685,29.988 -26.912,30.296c-5.26,0.501 -4.128,3.131 -32.388,112.265c-47.413,183.096 -43.026,196.385 -82.864,207.2c-14.375,3.903 -40.499,1.051 -285.038,5.793c-9.617,0.186 -82.597,1.602 -120.23,1.45c-49.4,6.728 -33.012,58.866 -1.738,59.705c60.508,1.623 397.661,-2.6 408.588,3.069c25.353,13.153 14.267,48.53 -8.27,49.252c-11.989,0.384 -17.751,-1.709 -24.385,1.796c-18.617,-14.939 -47.464,-32.095 -87.104,-0.052c-14.843,-7.238 -16.027,3.807 -206.412,-2.101c-0.352,-0.011 -0.282,0.163 -3.812,2.2c-41.268,-38.346 -81.9,-4.691 -87.277,-0.237c-5.077,-8.151 -25.238,1.578 -54.35,-31.366c-21.732,-24.592 -24.302,-71.917 0.25,-100.178c9.433,-10.857 6.036,-12.636 -1.389,-43.527c-44.148,-183.669 -84.266,-366.143 -91.276,-375.884c-12.051,-16.745 -37.75,-14.334 -55.885,-20.999c12.556,-18.844 15.064,-23.518 8.453,-49.811Z" style="fill:#346888;"/><path d="M301.161,683.471c5.377,-4.454 46.009,-38.11 87.277,0.237c68.712,84.781 -62.934,151.91 -101.417,68.729c-15.849,-34.257 10.458,-64.704 14.14,-68.965Z" style="fill:#33435e;"/><path d="M598.662,683.609c39.64,-32.043 68.487,-14.887 87.104,0.052c59.783,64.062 -32.69,144.818 -88.422,88.598c-18.496,-18.658 -28.598,-57.239 1.318,-88.65Z" style="fill:#32435f;"/><path d="M478.316,462.897c-5.4,-1.264 -39.087,-9.146 -65.006,-24.076c-3.964,-2.283 -33.496,-19.294 -44.769,-35.569c-10.936,-15.788 19.002,6.464 42.969,16.581c126.19,53.269 226.241,-12.539 233.606,-10.184c10.556,3.375 -14.444,19.415 -16.206,20.546c-74.521,47.814 -137.441,34.197 -150.594,32.703Z" style="fill:#fbfbfc;"/><path d="M106.964,61.708c6.611,26.293 4.103,30.966 -8.453,49.811c-5.629,1.933 -25.782,17.457 -49.458,1.003c-40.301,-28.007 4.422,-107.555 57.911,-50.814Z" style="fill:#313b4f;"/><path d="M1410.419,600.385c90.118,48.495 -5.626,182.775 -52.248,101.762c-19.953,-34.672 -10.49,-115.796 52.248,-101.762Zm-12.623,24.783c-2.344,0.618 -19.501,5.139 -24.444,23.27c-5.426,19.898 2.964,34.916 4.309,37.323c25.332,45.344 77.711,-40.849 20.135,-60.593Zm-268.471,-15.42c1.708,-13.49 15.249,-9.74 46.607,-9.324c33.356,0.442 38.901,52.731 24.312,73.747c-11.7,16.854 -4.688,19.469 4.898,38.598c9.547,19.05 -13.347,12.257 -13.884,12.247c-12.334,-0.225 -18.717,-34.029 -25.293,-36.487c-17.166,-6.418 -11.823,8.131 -13.555,31.899c-0.376,5.161 -15.889,4.592 -17.298,4.54c-7.534,-0.276 -5.629,-12.512 -5.788,-115.221Zm56.04,37.937c-0.363,-4.146 2.137,-19.221 -14.465,-21.331c-32.369,-4.112 -15.783,35.668 -15.451,35.815c22.441,9.902 28.939,-11.298 29.916,-14.484Zm-73.225,-0.887c-1.463,34.387 -14.893,27.749 -14.872,41.636c0.042,28.389 32.276,38.585 11.398,39.109c-34.985,0.878 -25.864,-24.098 -36.203,-34.976c-2.353,-2.476 -15.178,-3.776 -15.502,2.575c-1.227,24.005 4.254,31.88 -7.047,32.118c-1.362,0.029 -15.989,0.337 -16.088,-7.559c-1.392,-111.224 -0.955,-116.177 5.916,-116.454c53.672,-2.169 67.371,-1.161 72.398,43.553Zm-22.907,0.07c-0.145,-1.121 0.495,-16.369 -13.856,-17.326c-25.642,-1.709 -19.238,13.591 -18.404,31.401c0.147,3.148 28.728,17.287 32.259,-14.075Zm-132.934,-37.284c5.149,-12.531 22.473,-19.243 29.748,4.36c29.308,95.085 30.353,94.488 32.116,103.119c0.598,2.927 -8.761,43.056 -27.069,-9.458c-4.134,-11.857 -39.069,-8.068 -40.912,-3.197c-7.36,19.456 -8.387,20.983 -24.215,20.333c-9.901,-0.407 -1.98,-8.877 30.331,-115.157Zm11.549,32.492c-4.254,15.248 -15.239,38.542 9.08,32.956c4.166,-0.957 -1.798,-33.468 -9.08,-32.956Zm-77.632,-41.937c46.111,20.71 8.52,37.253 8.02,36.827c-53.226,-45.358 -61.02,68.381 -15.431,60.351c10.863,-1.914 17.588,-15.01 21.988,-9.666c15.446,18.763 7.563,27.086 -12.05,35.711c-71.778,31.564 -94.075,-140.131 -2.526,-123.223Zm373.584,9.675c2.075,-12.409 4.856,-9.591 14.185,-9.716c55.758,-0.748 63.741,-1.055 63.956,6.189c0.698,23.439 -5.755,20.258 -23.096,21.228c-6.132,0.343 -4.103,27.337 -4.212,86.239c-0.031,16.738 -17.283,10.909 -18.855,10.764c-4.546,-0.42 -2.574,-4.104 -4.289,-90.6c-0.219,-11.06 -4.255,-5.605 -23.68,-7.028c-6.402,-0.469 -3.226,-4.783 -4.009,-17.074Zm-36.29,-0.023c1.242,-15.307 5.859,-9.893 17.284,-9.634c6.901,0.156 6.329,5.491 5.036,117.004c-0.101,8.699 -16.324,7.814 -17.82,7.733c-6.194,-0.338 -4.826,-20.96 -4.501,-115.102Z" style="fill:#3eacdc;"/><path d="M615,717.617c16.449,-31.69 48.58,-17.916 54.949,2.169c14.974,47.219 -71.647,52.62 -54.949,-2.169Z" style="fill:#b8c4d3;"/><path d="M374.157,729.933c-9.575,56.511 -81.001,17.731 -51.693,-20.12c10.892,-14.067 48.86,-19.661 51.693,20.12Z" style="fill:#b9c4d3;"/><path d="M663.25,433.988c-22.389,25.686 13.417,-30.625 -9.947,-36.833c-11.39,-3.026 -41.01,2.105 -32.232,-5.436c7.258,-6.235 55.474,-21.23 55.459,3.141c-0.012,19.269 -11.444,36.38 -13.28,39.128Z" style="fill:#f7f8f8;"/></g></svg>