<?xml version="1.0" encoding="UTF-8" standalone="no"?><!DOCTYPE svg PUBLIC "-//W3C//DTD SVG 1.1//EN" "http://www.w3.org/Graphics/SVG/1.1/DTD/svg11.dtd"><svg width="100%" height="100%" viewBox="0 0 1558 1724" version="1.1" xmlns="http://www.w3.org/2000/svg" xmlns:xlink="http://www.w3.org/1999/xlink" xml:space="preserve" xmlns:serif="http://www.serif.com/" style="fill-rule:evenodd;clip-rule:evenodd;stroke-linejoin:round;stroke-miterlimit:2;"><rect id="Mesa-de-trabajo1" serif:id="Mesa de trabajo1" x="0" y="0" width="1557.311" height="1723.306" style="fill:none;"/><g id="Gemini_Generated_Image_7fqu77fqu77fqu77.png"><path d="M30.351,1606.473c-0.28,-0.384 -13.909,-13.869 -13.119,-34.254c0.857,-22.126 3.494,-21.687 57.648,-270.709c29.141,-134.004 25.056,-149.797 51.979,-177.049c167.15,-169.2 247.07,-255.563 534.578,-561.223c239.189,-254.29 442.814,-487.995 482.725,-511.408c113.15,-66.377 226.237,49.189 254.811,76.293c87.579,83.074 137.43,140.02 122.613,224.331c-11.311,64.36 -26.723,58.568 -528.588,601.59c-27.164,29.391 -313.958,339.705 -340.378,366.618c-112.457,114.558 -116.391,142.244 -179.88,165.797c-22.657,8.405 -159.028,58.997 -284.486,101.583c-115.984,39.37 -126.571,48.52 -157.903,18.432Z" style="fill:#515151;"/><path d="M648.286,1035.482c-91.256,94.638 -223.398,238.745 -225.704,238.868c-6.904,0.368 -15.372,-50.433 -73.306,-78.015c-10.501,-5 -22.519,-4.024 -11.983,-15.352c252.171,-271.127 449.839,-464.163 683.123,-717.115c22.521,-24.42 29.346,-17.941 54.844,3.564c48.757,41.122 58.962,56.993 51.348,66.055c-20.701,24.638 -256.166,269.93 -278.575,293.274c-163.322,170.139 -163.655,169.725 -199.746,208.72Z" style="fill:#ffe700;"/><path d="M802.551,1054.57c-36.672,41.047 -222.825,238.48 -242.295,259.13c-42.36,44.927 -43.624,49.247 -46.621,45.016c-0.846,-1.195 -7.998,-34.786 -46.078,-49.521c-12.11,-4.686 -0.246,-14.573 26.146,-42.352c508.843,-535.586 509.454,-534.949 553.272,-581.919c9.138,-9.795 93.526,-100.254 114.795,-121.897c11.984,-12.194 60.375,37.774 43.81,57.931c-7.304,8.888 -296.852,319.781 -322.71,347.546c-73.908,79.356 -73.95,79.131 -80.32,86.068Z" style="fill:#ffe700;"/><path d="M969.987,377.85c-0.705,3.567 -9.952,17.489 4.906,17.97c4.346,0.141 4.206,-1.043 8.451,0.304c2.013,0.639 2.624,0.267 2.817,0.15c2.21,-1.342 0.861,-2.384 3.244,-3.831c1.558,1.447 17.41,16.178 17.094,20.351c-0.266,3.52 -1.384,3.125 -377.737,394.726c-171.804,178.765 -170.1,180.133 -309.195,324.573c-15.346,15.935 -18.179,35.344 -28.88,15.7c-17.672,-32.44 -46.992,-37.718 -46.897,-42.212c0.087,-4.154 81.052,-86.009 88.279,-93.315c33.431,-33.799 133.814,-140.772 195.269,-204.774c140.236,-146.047 205.341,-217.626 220.307,-233.362c176.853,-185.954 175.372,-187.324 191.186,-203.065c6.607,-6.576 28.917,5.564 31.158,6.783Z" style="fill:#ffe700;"/><path d="M1452.328,345.553c-10.806,27.252 -12.479,26.518 -66.651,83.62c-9.498,10.012 -12.246,15.904 -20.799,5.092c-39.615,-50.078 -201.01,-194.719 -253.903,-231.272c-10.531,-7.277 -7.878,-10.485 0.407,-20.139c81.809,-95.325 115.822,-124.955 236.995,-13.99c130.088,119.13 112.116,138.924 103.952,176.69Z" style="fill:#f3f3f3;"/><path d="M165.268,1215.383c8.381,-41.494 8.331,-41.498 8.625,-42.341c4.414,-12.633 37.028,-2.016 37.308,-1.884c26.532,12.495 27.133,40.465 29.451,52.734c10.538,55.796 96.84,-13.22 122.186,104.562c9.853,45.789 23.391,36.717 59.78,42.776c41.776,6.956 35.003,41.155 34.76,41.903c-2.818,8.688 -114.203,43.904 -192.859,74.551c-17.52,6.827 -9.625,-10.032 -45.9,-51.172c-30.315,-34.381 -78.063,-54.934 -85.674,-58.211c-6.59,-2.837 -2.273,-5.667 32.323,-162.919Z" style="fill:#ff8c4e;"/><path d="M1179.923,357.06c61.19,57.863 149.721,132.438 134.997,147.982c-46.004,48.566 -47.982,51.803 -51.603,47.516c-78.583,-93.032 -84.488,-86.875 -172.85,-170.895c-63.906,-60.765 -96.74,-72.735 -91.821,-80.898c0.664,-1.102 39.315,-47.677 44.372,-50.421c3.144,-1.706 10.896,-9.307 136.905,106.716Z" style="fill:#808080;"/><path d="M108.104,1483.359c0.64,-3.151 6.964,-34.28 8.336,-39.314c5.512,-20.226 80.165,55.275 71.524,66.705c-3.213,4.249 -43.547,16.423 -66.934,21.849c-26.223,6.085 -17.672,-20.107 -12.927,-49.24Z"/><path d="M969.342,377.514c11.429,7.513 11.481,7.016 21.48,16.179c-2.636,1.604 -1.144,2.76 -3.588,4.248c-0.213,0.13 -0.89,0.542 -3.116,-0.167c-4.696,-1.494 -4.541,-0.181 -9.348,-0.338c-16.436,-0.534 -6.207,-15.968 -5.427,-19.922Z" style="fill:#ffe700;"/></g></svg>