<?xml version="1.0" encoding="UTF-8" standalone="no"?><!DOCTYPE svg PUBLIC "-//W3C//DTD SVG 1.1//EN" "http://www.w3.org/Graphics/SVG/1.1/DTD/svg11.dtd"><svg width="100%" height="100%" viewBox="0 0 3488 558" version="1.1" xmlns="http://www.w3.org/2000/svg" xmlns:xlink="http://www.w3.org/1999/xlink" xml:space="preserve" xmlns:serif="http://www.serif.com/" style="fill-rule:evenodd;clip-rule:evenodd;stroke-linejoin:round;stroke-miterlimit:2;"><g id="Gemini_Generated_Image_8tpw0u8tpw0u8tpw.png"></g><rect id="Mesa-de-trabajo1" serif:id="Mesa de trabajo1" x="0" y="0" width="3487.18" height="557.084" style="fill:none;"/><g id="Gemini_Generated_Image_8tpw0u8tpw0u8tpw.png1" serif:id="Gemini_Generated_Image_8tpw0u8tpw0u8tpw.png"><path d="M1038.898,227.561c-0.4,-8.182 0.483,-24.312 -16.726,-31.938c-3.692,-1.636 -22.263,-4.48 -38.661,6.379c-15.574,10.313 -8.125,15.195 -10.245,148.743c-0.246,15.515 -36.078,13.53 -53.96,8.489c-4.459,-1.257 -3.286,-17.066 -3.611,-26.104c-1.636,-45.449 -0.936,-174.303 0.233,-178.442c0.848,-3.003 2.858,-10.116 38.45,-6.555c19.334,1.935 9.066,25.097 17.589,24.498c1.873,-0.132 34.616,-42.577 85.728,-26.28c27.998,8.927 27.917,36.39 41.947,21.894c42.603,-44.02 102.45,-23.957 115.625,6.948c10.694,25.084 8.162,176.514 7.815,177.868c-3.842,15.028 -49.521,9.752 -54.452,5.789c-7.846,-6.306 -1.78,-118.634 -5.246,-140.085c-5.831,-36.086 -48.407,-27.162 -61.176,-12.787c-8.792,9.898 -2.264,134.323 -5.304,149.04c-2.471,11.962 -53.357,9.117 -55.44,0.345c-2.364,-9.949 -2.049,-9.977 -2.566,-127.804Z" style="fill:#252a39;"/><path d="M421.957,362.068c-39.577,1.235 -49.389,1.105 -55.908,-8.537c-6.001,-8.877 -32.165,-43.915 -50.132,-70.697c-7.111,-10.6 -14.901,-25.204 -17.583,-18.062c-3.668,9.769 4.467,89.547 -4.451,93.984c-5.836,2.903 -52.451,11.733 -54.152,-8.041c-1.749,-20.324 -0.252,-236.765 -0.109,-257.353c0.129,-18.582 -3.017,-33.484 17.306,-34.239c23.752,-0.883 39.95,-0.541 40.919,12.302c3.613,47.859 -3.331,161.134 1.207,164.521c3.861,2.881 3.901,-1.187 58.04,-72.971c13.238,-17.553 16.487,-14.659 56.019,-14.949c1.355,-0.01 15.492,-0.114 16.68,2.965c4.051,10.493 -74.288,85.141 -67.886,101.057c6.265,15.575 82.316,100.166 68.708,107.344c-4.152,2.19 -4.129,1.825 -8.66,2.676Z" style="fill:#252a3a;"/><path d="M1810.208,362.382c-20.373,-0.894 -18.86,-6.059 -38.82,-34.095c-9.509,-13.357 -44.32,-66.158 -47.059,-66.983c-6.487,-1.954 -1.606,58.408 -3.619,91.779c-0.651,10.798 -12.471,9.63 -42.545,9.08c-19.938,-0.365 -14.651,-9.011 -14.747,-28.99c-0.101,-21.116 -1.172,-244.301 -0.004,-263.959c0.883,-14.856 34.576,-10.278 45.671,-9.67c13.724,0.751 12.538,11.396 12.513,42.607c-0.106,131.153 -1.983,134.792 2.825,134.392c2.937,-0.244 54.8,-75.428 63.939,-83.594c10.557,-9.432 57.234,-4.384 59.029,-3.931c13.603,3.428 -38.672,60.71 -63.115,92.086c-5.622,7.217 3.934,16.963 66.668,101.719c18.242,24.645 -13.151,19.552 -40.736,19.558Z" style="fill:#262a39;"/><path d="M151.309,362.256c-108.658,-0.111 -114.092,0.3 -115.115,-9.192c-0.262,-2.436 -2.891,-259.454 0.836,-272.862c2.429,-8.738 8.652,-6.459 105.477,-6.558c42.581,-0.043 49.886,-3.84 51.249,13.078c2.04,25.317 5.014,34.475 -20.422,35.719c-45.653,2.232 -75.947,-5.371 -77.074,8.319c-0.041,0.504 -2.602,50.528 0.751,54.325c11.004,12.461 73.015,-9.387 75.523,16.141c3.542,36.058 -7.259,34.285 -14.681,34.588c-51.785,2.113 -63.653,-5.991 -62.879,13.722c2.152,54.782 -3.811,62.04 10.219,63.011c42.953,2.973 84.719,-4.049 90.003,5.299c3.129,5.536 6.358,36.614 -2.269,41.353c-7.394,4.062 -16.583,3.061 -41.617,3.057Z" style="fill:#262b3a;"/><path d="M1955.662,143.797c3.343,-0.244 29.538,-2.157 41.885,0.832c86.529,20.95 66.224,114.066 64.861,116.694c-4.111,7.924 -6.056,10.249 -111.203,9.203c-12.407,-0.123 -27.084,-3.217 -17.05,21.834c18.956,47.328 85.977,21.653 113.851,20.265c12.347,-0.615 10.804,29.492 3.888,36.689c-18.094,18.83 -146.869,45.377 -175.792,-56.659c-2.11,-7.443 -27.522,-129.037 79.56,-148.859Zm13.131,28.901c-15.486,0.732 -33.004,5.636 -40.035,38.386c-2.479,11.546 9.572,9.973 68.641,10.244c20.57,0.094 8.724,-39.792 -6.74,-45.041c-10.726,-3.641 -10.647,-3.223 -21.867,-3.588Z" style="fill:#252939;"/><path d="M1374.612,142.989c75.044,14.347 64.485,51.437 65.475,150.582c0.234,23.393 28.327,26.833 9.826,46.746c-21.223,22.844 -29.209,32.574 -48.075,7.565c-1.341,-1.777 -5.923,-11.803 -11.73,-10.016c-15.161,4.667 -16.491,30.091 -77.082,27.614c-6.833,-0.279 -32.802,-7.781 -45.831,-30.374c-2.839,-4.924 -40.667,-98.733 89.797,-102.864c16.188,-0.512 33.157,2.816 23.24,-26.394c-14.027,-41.317 -92.967,0.387 -100.425,-6.681c-2.941,-2.787 -5.659,-36.397 2.975,-40.918c37.894,-19.844 91.11,-15.277 91.83,-15.26Zm-58.927,154.972c2.488,42.77 69.48,33.931 66.969,-21.943c-0.328,-7.297 -1.554,-14.22 -32.235,-10.642c-31.91,3.722 -34.363,28.793 -34.734,32.585Z" style="fill:#262a3a;"/><path d="M782.824,189.167c-31.913,-3.292 -40.961,3.83 -66.372,10.961c-20.948,5.878 -14.174,-30.925 -10.344,-38.369c6.097,-11.849 55.853,-20.267 76.635,-20.205c121.672,0.362 61.843,124.566 86.894,166.786c10.354,17.45 15.964,21.722 -4.064,41.57c-20.301,20.12 -28.114,16.399 -43.48,-7.787c-6.716,-10.571 -16.834,3.637 -26.627,9.969c-26.089,16.87 -45.472,14.175 -56.668,13.242c-22.954,-1.912 -49.414,-21.407 -52.895,-45.35c-13.222,-90.936 83.106,-86.811 114.452,-90.123c12.762,-1.349 11.485,-36.705 -17.53,-40.693Zm-40.169,111.096c6.561,40.205 68.578,27.916 64.906,-22.126c-0.386,-5.257 0.897,-16.234 -11.595,-14.906c-0.369,0.039 -46.19,-0.495 -52.889,23.722c-0.73,2.638 -0.407,2.6 -0.421,13.31Z" style="fill:#25293a;"/><path d="M647.179,209.962c-0.354,142.629 2.183,146.567 -7.345,149.936c-8.671,3.066 -44.735,7.33 -44.839,-9.041c-0.006,-0.875 -0.062,-9.697 -1.62,-10.813c-5.986,-4.289 -18.796,25.633 -61.442,25.629c-80.535,-0.007 -70.282,-51.143 -69.917,-177.714c0.053,-18.478 -3.39,-37.637 10.602,-38.991c42.56,-4.119 44.979,2.438 46.27,5.939c5.709,15.477 -6.723,132.281 8.933,151.653c17.932,22.188 58.43,4.271 59.244,-8.57c7.114,-112.187 -8.038,-148.373 13.084,-149.459c19.041,-0.98 37.656,-2.57 43.854,4.357c3.932,4.394 3.061,13.531 3.175,57.074Z" style="fill:#262939;"/><path d="M2137.882,249.556c0.239,-37.93 1.551,-43.212 -1.387,-48.39c-3.289,-5.796 -24.534,-6.736 -26.233,-7.088c-6.33,-1.312 -5.39,-17.786 -5.298,-19.391c1.358,-23.795 17.293,-21.159 20.594,-21.638c19.325,-2.803 15.757,-17.818 21.201,-40.058c4.511,-18.425 7,-22.961 42.633,-20.121c12.582,1.003 9.157,37.962 9.473,48.857c0.365,12.585 26.495,9.066 38.85,9.216c15.468,0.188 13.555,14.313 12.709,36.919c-0.028,0.746 -0.228,6.079 -5.986,7.156c-32.246,6.032 -46.051,-3.671 -47.489,10.644c-0.415,4.134 1.514,78.46 2.088,85.65c2.664,33.343 23.216,27.119 43.089,26.331c13.635,-0.541 9.138,28.2 8.565,35.265c-1.172,14.447 -56.798,17.464 -74.419,10.699c-31.746,-12.189 -38.58,-22.974 -38.391,-114.05Z" style="fill:#232839;"/><path d="M1549.464,184.687c9.932,0.02 10.013,-33.054 54.155,-39.738c33.048,-5.005 29.632,9.81 29.155,43.047c-0.43,29.998 -32.012,-5.063 -72.566,27.31c-14.366,11.468 -6.182,78.729 -8.264,135.353c-0.091,2.465 3.072,16.791 -49.717,10.44c-10.826,-1.303 -7.987,-21.799 -8.087,-27.943c-0.226,-13.899 -1.852,-113.72 -0.287,-173.756c0.32,-12.297 9.413,-13.274 34.753,-11.532c27.257,1.874 14.659,15.449 20.858,36.818Z" style="fill:#262a3a;"/><path d="M813.321,412.815c2.868,1.651 178.385,123.754 394.247,41.921c31.857,-12.077 67.086,-32.991 59.837,-13.517c-10.388,27.908 -206.406,148.222 -404.991,25.444c-30.966,-19.145 -76.888,-60.279 -57.695,-58.358c0.773,0.077 0.633,0.332 8.602,4.51Z"/><path d="M3343.121,182.231c46.753,-29.178 128.593,-24.382 126,76.872c-1.222,47.719 -122.142,-5.301 -114.717,34.982c11.388,61.78 97.636,25.841 102.657,27.333c7.304,2.17 25.948,60.728 -86.831,41.135c-64.323,-11.175 -87.923,-119.988 -27.11,-180.322Zm37.138,21.899c-28.924,13.716 -31.628,44.965 -15.954,45.48c59.251,1.945 60.524,-2.293 62.085,-7.492c1.491,-4.967 -0.389,-24.164 -13.868,-35.581c-9.857,-8.349 -29.748,-3.073 -32.263,-2.406Zm-586.075,153.158c-4.78,-2.648 -34.398,-19.058 -41.246,-57.775c-5.614,-31.74 -3.424,-57.34 3.816,-77.253c33.386,-91.817 174.149,-62.705 152.296,43.083c-6.699,32.426 -117.119,-2.852 -114.128,22.879c8.621,74.166 96.588,24.392 105.011,36.483c17.971,25.796 -36.617,56.128 -105.749,32.583Zm6.181,-133.102c-9.198,30.141 7.457,25.05 36.321,25.202c30.056,0.158 42.847,-9.247 24.301,-35.305c-10.004,-14.056 -27.105,-12.825 -29.645,-12.642c-18.575,1.337 -29.379,19.987 -30.977,22.746Zm181.493,139.458c-45.041,-1.259 -31.584,-23.476 -32.059,-51.716c-2.273,-135.093 0.689,-138.801 10.796,-141.274c33.359,-8.165 22.93,23.856 32.217,23.747c5.308,-0.062 36.821,-40.919 85.37,-21.504c37.648,15.055 29.49,87.823 29.838,144.967c0.02,3.222 0.221,36.345 -3.134,40.128c-8.15,9.189 -40.191,9.475 -40.682,-10.862c-0.856,-35.437 13.414,-174.715 -53.822,-127.516c-38.915,27.318 6.365,131.981 -28.524,144.032Zm213.643,-110.984c-0.272,6.538 -2.901,69.64 34.272,72.69c34.893,2.863 53.425,-37.476 54.565,-1.657c2.145,67.407 -131.974,55.152 -136.076,-29.351c-2.281,-46.986 -5.459,-115.733 76.387,-127.408c4.984,-0.711 46.52,-6.636 57.572,27.539c7.613,23.54 -0.281,35.737 -19.422,22.015c-51.429,-36.869 -65.91,29.781 -67.299,36.171Zm-685.482,-51.115c52.627,-66.404 116.124,-23.472 119.785,-1.498c3.876,23.265 -6.658,24.975 -25.968,13.929c-66.686,-38.144 -74.6,78.432 -50.315,101.187c39.772,37.264 75.781,-30.453 77.362,2.851c0.447,9.409 2.707,32.266 -20.711,40.604c-107.867,38.412 -139.964,-77.496 -100.154,-157.073Zm-141.69,-24.593c33.939,-11.945 34.503,-13.924 69.194,-4.989c19.543,5.034 20.579,19.493 20.76,22.017c2.65,36.974 -33.168,-7.171 -63.575,11.533c-43.803,26.944 61.224,44.659 70.731,82.645c23.665,94.547 -119.699,91.559 -123.261,52.972c-4.317,-46.756 48.07,7.858 73.161,-13.104c40.17,-33.56 -50.437,-47.341 -64.362,-74.639c-20.559,-40.304 13.012,-72.298 17.352,-76.434Zm342.202,46.465c0.291,127.438 4.269,140.864 -19.38,140.736c-34.76,-0.188 -23.923,-33.181 -23.994,-87.579c-0.081,-62.515 -12.574,-105.429 24.021,-104.121c30.82,1.101 18.428,17.047 19.354,50.965Zm2.526,-106.207c-4.36,47.044 -59.382,31.032 -48.269,-11.574c2.211,-8.479 40.646,-30.948 48.269,11.574Z"/><path d="M1302.662,450.047c-15.321,35.276 -23.391,31.034 -24,28.139c-1.355,-6.445 23.676,-59.712 1.4,-61.888c-32.394,-3.164 -66.237,5.802 -52.048,-7.562c12.136,-11.431 81.12,-23.539 82.069,-0.712c0.684,16.46 -0.092,19.45 -7.421,42.022Z"/></g></svg>