<?xml version="1.0" encoding="UTF-8" standalone="no"?><!DOCTYPE svg PUBLIC "-//W3C//DTD SVG 1.1//EN" "http://www.w3.org/Graphics/SVG/1.1/DTD/svg11.dtd"><svg width="100%" height="100%" viewBox="0 0 780 221" version="1.1" xmlns="http://www.w3.org/2000/svg" xmlns:xlink="http://www.w3.org/1999/xlink" xml:space="preserve" xmlns:serif="http://www.serif.com/" style="fill-rule:evenodd;clip-rule:evenodd;stroke-linejoin:round;stroke-miterlimit:2;"><rect id="Mesa-de-trabajo1" serif:id="Mesa de trabajo1" x="0" y="0" width="779.955" height="220.55" style="fill:none;"/><g id="Gemini_Generated_Image_wxcv8ywxcv8ywxcv.png"><path d="M231.828,139.16c82.553,48.547 158.843,52.985 233.918,31.125c34.588,-10.071 50.518,-25.745 52.375,-14.829c1.465,8.615 -76.273,66.875 -178.924,47.285c-10.123,-1.932 -66.868,-12.761 -114.135,-59.74c-7.539,-7.493 -1.191,-8.206 -0.335,-7.956c2.343,0.684 2.11,0.981 7.102,4.114Z" style="fill:#f28d20;"/><path d="M415.578,111.876c-5.883,-0.182 -5.919,0.064 -7.111,-0.494c-2.772,-1.299 -0.602,-33.581 -1.554,-47.387c-1.138,-16.512 -18.941,-9.895 -22.15,-5.749c-2.002,2.586 -0.447,46.934 -1.008,51.039c-0.672,4.924 -19.439,2.018 -19.457,2.008c-2.339,-1.286 -0.689,-35.327 -1.419,-47.251c-1.051,-17.16 -19.396,-8.684 -21.685,-6.069c-2.216,2.531 -0.339,47.48 -0.966,51.271c-0.747,4.514 -19.514,3.029 -20.346,1.121c-1.129,-2.589 -0.614,-62.973 -0.567,-68.449c0.049,-5.79 4.392,-4.686 14.894,-4.445c6.441,0.148 2.301,13.143 6.307,7.886c8.762,-11.498 30.56,-14.505 39.703,-0.295c2.048,3.182 3.436,0.09 4.384,-0.964c9.689,-10.769 31.102,-12.382 39.639,1.068c2.709,4.268 4.163,6.559 3.732,63.077c-0.038,5.029 -6.585,3.633 -12.397,3.634Z" style="fill:#1e3250;"/><path d="M49.799,111.809c-44.43,0.047 -45.792,0.502 -46.477,-2.509c-0.397,-1.746 -0.217,-88.094 -0.087,-93.536c0.138,-5.77 7.002,-4.234 10.387,-4.229c49.193,0.072 49.167,-0.101 50.229,0.27c3.094,1.079 1.446,15.126 1.422,15.195c-1.49,4.405 -38.826,-0.204 -40.489,2.907c-0.486,0.908 -0.268,19.985 -0.247,20.078c0.946,4.105 30.253,-0.965 33.133,3.081c1.092,1.534 0.54,12.564 0.437,13.027c-0.89,3.992 -18.034,1.754 -31.401,2.27c-3.804,0.147 -2.273,1.901 -2.273,5.709c0,19.149 0.059,19.147 0.06,19.151c0.715,2.377 20.497,0.946 38.349,1.383c4.718,0.116 3.88,6.349 3.685,13.61c-0.132,4.873 -6.446,3.602 -16.729,3.593Z" style="fill:#1e3250;"/><path d="M102.709,68.575c1.542,-2.357 1.971,-3.013 20.803,-28.399c2.662,-3.588 5.154,-2.801 18.748,-2.853c4.369,-0.017 7.284,-0.084 4.773,3.43c-6.885,9.639 -24.951,29.099 -23.876,32.312c0.858,2.566 26.747,34.433 25.797,37.106c-1.108,3.122 -21.407,1.858 -22.57,0.825c-1.314,-1.168 -22.626,-31.879 -22.91,-32.387c-3.48,-6.229 -1.658,6.876 -1.941,29.645c-0.062,4.968 -7.199,3.689 -15.557,3.653c-6.661,-0.028 -5.274,-3.274 -5.301,-19.75c-0.137,-83.467 0.061,-83.85 1.16,-84.549c1.078,-0.685 18.71,-3.054 19.581,2.074c0.648,3.81 0.399,3.733 0.029,48.312c-0.038,4.57 -0.108,4.493 -0.278,9.023c-0.052,1.372 0.147,1.537 1.541,1.557Z" style="fill:#1e3250;"/><path d="M631.629,111.903c-3.916,-0.235 -4.381,0.215 -6.671,-2.93c-21.244,-29.165 -20.255,-29.828 -22.384,-32.126c-1.958,-2.114 -1.117,7.028 -1.116,7.27c0.038,24.846 0.875,27.533 -3.028,27.762c-17.187,1.009 -17.505,-1.267 -17.704,-2.685c-0.14,-1.004 -0.246,-97.129 -0.032,-99.405c0.529,-5.637 18.595,-3.055 19.885,-2.149c2.299,1.615 0.176,59.803 0.771,60.523c1.174,1.42 2.788,-1.968 3.486,-2.874c10.329,-13.401 18.464,-24.978 20.144,-26.95c1.234,-1.449 20.434,-1.602 21.564,-0.308c2.295,2.627 -14.21,19.918 -23.459,32.338c-1.595,2.141 0.134,2.363 24.109,35.5c5.778,7.985 -3.635,6.027 -15.565,6.033Z" style="fill:#1e3250;"/><path d="M301.431,56.948c1.51,28.539 -3.312,30.191 5.187,40.568c4.012,4.898 -9.833,15.446 -11.568,15.251c-1.794,-0.201 -6.392,-4.191 -7.638,-5.908c-0.581,-0.799 -1.522,-5.951 -5.758,-1.921c-18.073,17.193 -50.23,6.859 -43.546,-19.717c5.929,-23.574 41.22,-17.348 42.756,-20.223c0.527,-0.986 0.837,-8.749 -4.225,-11.596c-8.643,-4.861 -27.503,2.171 -29.744,3.006c-4.992,1.861 -4.915,-13.806 -0.884,-16.044c1.336,-0.741 49.838,-18.908 55.42,16.584Zm-20.358,25.163c-0.303,-6.223 -2.974,-4.382 -9.195,-4.03c-23.524,1.327 -13.673,27.327 1.879,18.843c8.612,-4.698 7.153,-10.667 7.316,-14.812Z" style="fill:#1e314f;"/><path d="M505.262,90.103c3.275,8.768 8.061,8.7 4.478,12.879c-8.91,10.394 -11.194,11.599 -16.64,6.113c-3.857,-3.885 -3.614,-8.146 -7.652,-4.371c-19.225,17.975 -51.595,6.662 -43.9,-20.652c6.147,-21.819 41.441,-16.152 42.69,-18.85c0.411,-0.888 1.551,-9.738 -5.254,-12.498c-11.995,-4.865 -30.19,5.587 -31.822,2.987c-0.681,-1.085 -1.551,-12.681 0.904,-14.418c6.968,-4.931 55.571,-16.575 56.817,17.705c0.568,15.61 -0.471,15.543 0.38,31.103Zm-22.147,1.151c0.255,-0.942 2.256,-8.35 0.815,-12.17c-0.683,-1.809 -17.582,-1.859 -21.341,4.906c-6.834,12.302 10.898,22.164 20.526,7.263Z" style="fill:#1e314f;"/><path d="M717.737,104.176c-2.719,8.227 -26.932,8.86 -34.802,7.6c-38.727,-6.2 -35.757,-59.545 -12.99,-72.656c20.022,-11.531 56.339,-3.864 50.409,34.991c-0.943,6.18 -3.771,4.593 -41.5,4.667c-6.152,0.012 -5.594,2.727 -3.124,8.397c7.601,17.448 38.738,3.675 41.176,6.113c1.481,1.481 0.834,10.788 0.832,10.888Zm-16.874,-46.684c-0.707,-3.992 -0.451,-13.05 -14.135,-12.442c-10.53,0.468 -13.194,10.579 -13.363,14.465c-0.112,2.583 4.382,1.92 19.418,1.895c5.466,-0.009 7.769,1.615 8.08,-3.918Z" style="fill:#1e314e;"/><path d="M171.493,111.946c-2.231,-1.13 -11.514,-3.107 -13.415,-18.756c-0.792,-6.523 -0.393,-52.68 -0.217,-53.405c1.041,-4.288 18.923,-1.921 19.328,-1.576c2.48,2.113 0.702,32.181 1.418,46.904c0.796,16.35 19.193,10.368 23.5,6.64c2.374,-2.055 0.03,-49.99 1.522,-52.806c1.022,-1.929 19.683,-3.065 20.296,0.892c0.18,1.163 0.333,65.383 0.331,66.388c-0.014,6.357 -2.582,5.79 -14.698,5.469c-4.724,-0.125 -3.675,-4.809 -3.918,-6.504c-0.987,-6.886 -7.261,13.433 -34.148,6.755Z" style="fill:#1f3251;"/><path d="M758.268,112.969c-22.163,-2.908 -19.28,-14.428 -19.227,-55.981c0.009,-6.644 -11.163,-0.499 -11.812,-6.054c-1.634,-13.973 5.526,-12.213 9.933,-12.92c3.214,-0.515 2.865,-6.57 5.31,-16.114c1.442,-5.628 4.653,-4.727 13.783,-4.442c5.097,0.159 3.589,7.088 3.689,17.434c0.044,4.572 10.6,2.283 15.402,2.795c1.081,0.115 4.044,0.431 2.94,13.264c-0.46,5.34 -15.769,1.636 -17.77,3.361c-1.685,1.453 -0.792,1.935 -0.655,27.8c0.066,12.448 2.476,14.776 15.462,13.041c1.072,-0.143 5.095,-0.681 3.256,13.127c-0.625,4.693 -18.643,4.69 -20.31,4.689Z" style="fill:#1e324f;"/><path d="M523.274,41.915c0.521,-6.124 3.091,-4.643 13.889,-4.62c6.198,0.013 5.484,4.21 5.741,10.731c0.424,10.722 2.332,-13.05 22.393,-11.984c7.026,0.374 5.918,3.627 5.597,17.917c-0.163,7.243 -12.395,-4.494 -25.453,8.292c-3.073,3.009 0.804,46.082 -2.333,48.889c-1.355,1.213 -16.874,0.866 -18.119,0.355c-1.769,-0.726 -1.646,-1.48 -1.717,-69.581Z" style="fill:#1f3251;"/><path d="M525.424,175.654c2.841,-9.272 6.298,-19.534 6.1,-28.246c-0.306,-13.44 -38.551,-3.014 -41.308,-6.239c-7.715,-9.025 52.512,-22.509 54.774,-6.773c2.986,20.77 -15.122,53.938 -20.516,48.843c-1.707,-1.613 -0.434,-1.932 0.951,-7.584Z" style="fill:#f19024;"/></g></svg>