<?xml version="1.0" encoding="UTF-8" standalone="no"?><!DOCTYPE svg PUBLIC "-//W3C//DTD SVG 1.1//EN" "http://www.w3.org/Graphics/SVG/1.1/DTD/svg11.dtd"><svg width="100%" height="100%" viewBox="0 0 4961 3508" version="1.1" xmlns="http://www.w3.org/2000/svg" xmlns:xlink="http://www.w3.org/1999/xlink" xml:space="preserve" xmlns:serif="http://www.serif.com/" style="fill-rule:evenodd;clip-rule:evenodd;stroke-linejoin:round;stroke-miterlimit:2;"><g id="Lupa.webp"><path d="M1987.599,383.45c184.444,0.115 184.124,-0.118 215.272,0.388c11.024,9.881 10.354,10.775 11.622,10.917c444.26,49.919 717.788,420.173 761.678,756.569c54.305,416.222 -180.633,663.885 -190.392,683.968c-2.315,4.765 -0.831,6.754 199.711,207.755c20.56,20.607 41.792,-36.7 110.685,-12.53c36.757,12.895 232.073,223.788 457.934,445.415c103.445,101.506 182.273,188.751 200.107,193.872c1.315,21.455 1.301,21.17 -0.125,42.316c-9.786,2.904 -9.454,3.286 -16.894,10.711c-201.728,201.312 -202.07,201.66 -204.591,210.787c-39.683,1.949 -39.395,4.314 -63.531,0.488c-4.586,-18.073 -9.868,-14.923 -298.5,-306.153c-8.165,-8.239 -131.953,-130.545 -296.192,-296.116c-95.525,-96.3 7.113,-128.901 -21.206,-156.506c-165.528,-161.359 -198.664,-208.607 -212.789,-198.663c-45.849,32.276 -261.435,211.614 -620.252,184.283c-375.524,-28.604 -756.946,-324.61 -804.808,-767.072c-0.137,-1.265 -1.178,-0.444 -10.968,-11.517c-0.862,-107.877 -0.268,-107.292 -0.393,-215.299c2.037,-2.485 -1.507,-2.907 0.357,-5.182c3.373,-4.116 4.776,-1.61 8.268,-5.343c2.307,-2.467 2.641,-5.666 2.697,-6.204c2.611,-25.064 16.686,-160.164 94.785,-300.397c240.951,-432.647 656.443,-453.912 662.217,-456.895c6.363,-3.288 4.496,-4.985 10.105,-9.241c1.385,-1.051 3.819,0.699 5.204,-0.352Zm182.851,1589.027c98.808,-14.297 200.659,-33.519 335.832,-129.918c219.871,-156.802 304.332,-413.094 289.414,-610.865c-46.406,-615.178 -733.184,-828.546 -1124.449,-520.476c-564.577,444.531 -216.895,1323.767 499.204,1261.259Z"/></g></svg>