<?xml version="1.0" encoding="UTF-8" standalone="no"?><!DOCTYPE svg PUBLIC "-//W3C//DTD SVG 1.1//EN" "http://www.w3.org/Graphics/SVG/1.1/DTD/svg11.dtd"><svg width="100%" height="100%" viewBox="0 0 3051 2818" version="1.1" xmlns="http://www.w3.org/2000/svg" xmlns:xlink="http://www.w3.org/1999/xlink" xml:space="preserve" xmlns:serif="http://www.serif.com/" style="fill-rule:evenodd;clip-rule:evenodd;stroke-linejoin:round;stroke-miterlimit:2;"><rect id="Mesa-de-trabajo1" serif:id="Mesa de trabajo1" x="0" y="0" width="3050.429" height="2817.047" style="fill:none;"/><clipPath id="_clip1"><rect x="0" y="0" width="3050.429" height="2817.047"/></clipPath><g clip-path="url(#_clip1)"><g id="Gemini_Generated_Image_5nfdz75nfdz75nfd.png"><path d="M704.037,957.608c30.406,48.6 55.571,35.93 77.02,134.86c2.836,13.078 1.619,13.235 33.32,163.926c17.451,80.117 18.575,101.683 20.102,220.917c-0.526,20.44 9.294,13.714 29.476,14.688c40.986,1.978 106.385,6.249 131.164,7.466c77.655,3.814 80.125,4.941 86.442,7.824c2.769,19.87 -1.627,242.346 1.414,246.967c0.609,0.926 1.273,0.246 9.831,9.76c26.862,52.666 26.969,94.025 2.454,160.303c-1.253,3.387 -22.417,52.086 -34.25,55.057c-7.471,1.876 -7.663,1.568 -95.599,-11.506c-19.666,-4.55 -19.464,0.746 -20.607,1.205c-11.173,-12.348 -48.51,-14.374 -56.662,-11.147c-3.234,-1.351 -2.517,-2.811 -6.242,-2.608c-1.721,0.093 -1.351,-0.858 -2.987,-0.769c-2.151,-0.455 -26.883,-5.684 -26.883,-5.684c-7.528,-1.07 -4.084,4.634 0.581,95.039c2.083,3.06 4.166,6.119 6.248,9.179c8.13,4.943 189.2,27.027 223.096,26.788l-0.029,20.923c-13.686,8.185 -19.389,6.183 -42.421,7.678c-0.794,0.052 -3.837,0.249 -9.809,-1.644c-4.965,-9.898 -8.052,-5.564 -49.589,-10.856c-58.043,-7.394 -57.984,-6.073 -116.141,-11.149c-8.146,-0.711 -7.374,3.496 -2.952,10.343c-9.237,8.749 2.327,8.928 47.88,16.202c22.864,4.225 24.186,0.904 34.094,9.514c-19.881,8.746 -83.472,16.731 -84.861,19.166c-2.388,4.188 4.626,10.01 5.358,10.618c-4.146,6.117 -2.774,7.64 1.543,87.084c7.517,191.394 8.99,201.95 -13.468,211.037c-14.938,6.044 -20.587,2.813 -21.311,18.836c-4.254,94.119 -3.483,93.942 -11.141,187.971c-10.245,125.798 -10.552,125.708 -10.491,133.877c-1.483,10.09 -3.265,9.733 -4.227,32.37c-21.294,-0.214 -583.224,-1.106 -602.949,0.222c0.39,-277.965 -1.986,-277.973 -14.17,-363.388c-3.568,-25.015 -2.87,-36.971 -12.675,-40.887c-52.564,-20.993 -62.859,-20.758 -61.141,-39.472c13.909,-151.481 68.61,-475.465 60.249,-488.44c-14.432,-22.397 -136.675,-106.319 -146.447,-174.128c-4.637,-32.174 -11.558,-80.202 29.523,-405.251c5.302,-41.95 12.924,-93.37 14.126,-101.478c27.761,-174.024 34.747,-179.755 50.42,-202.824c11.199,-11.615 10.915,-11.415 22.32,-22.39c6.152,-5.842 20.855,-20.289 22.66,-22.062c24.055,-22.205 24.164,-21.732 48.33,-43.939c1.203,-0.956 0.954,-0.874 14.67,-12.39c2.98,-2.489 30.445,-26.087 33.989,-28.962c22.835,-18.521 25.447,-16.87 29.415,-30.985c1.55,-5.513 30.643,-61.702 39.875,-66.706c22.423,-12.153 247.362,26.608 371.454,178.842Z" style="fill:#28374d;"/><path d="M865.027,2237.753c27.776,3.1 1453.739,199.588 1663.246,230.414c77.685,11.43 78.509,13.584 83.601,9.186c1.102,-0.951 0.868,-3.615 2.321,-3.699c1.931,-0.112 2.85,3.4 4.78,3.288c-3.419,97.729 -1.294,328.574 -4.074,346.269c-278.41,0.049 -556.821,0.098 -835.231,0.147c-697.361,-0.087 -788.106,0.133 -817.255,-1.254c-1.372,-0.706 -1.645,-2.805 -3.017,-3.511c-0.388,-0.2 -142.722,-29.684 -150.782,-29.118c-0.062,-8.169 0.246,-8.079 10.491,-133.877c7.658,-94.029 6.887,-93.852 11.141,-187.971c0.724,-16.023 6.374,-12.792 21.311,-18.836c22.458,-9.087 20.985,-19.644 13.468,-211.037Z" style="fill:#cacfd3;"/><path d="M2128.311,1201.449c-0.192,7.415 -0.384,14.831 -0.576,22.246c-4.674,42.314 -11.546,100.734 -11.669,152.277c-0.175,73.151 -0.033,76.404 6.112,76.604c0.943,0.031 92.12,-131.318 143.508,-199.033c11.897,-15.895 11.691,-16.378 18.058,-17.709c28.593,25.243 30.052,37.185 37.449,25.858c27.414,-41.976 69.657,-124.64 72.903,-124.915c1.365,-0.115 143.789,61.535 171.963,99.766c18.941,25.703 25.035,92.36 25.792,100.637c1.399,22.475 1.342,22.282 2.09,41.785l0.208,8.949c0.326,106.766 -23.992,414.391 -60.977,452.44c-3.566,3.669 -15.587,16.036 -53.152,35.579c-9.109,4.739 -8.657,6.48 -6.252,16.406c3.952,11.914 7.905,23.829 11.857,35.743c9.182,30.055 8.969,29.854 18.097,59.662c11.423,41.64 11.759,41.183 21.142,83.392c2.1,9.694 8.267,22.66 -3.028,28.657c-16.373,8.692 -13.18,12.158 -13.312,30.834c-0.15,21.314 1.751,50.85 -6.99,51.221c-9.685,0.412 -197.692,-21.486 -214.868,-23.487c-14.536,-1.68 -127.28,-14.713 -181.808,-20.029c-5.412,-6.971 -3.84,-7.929 -4.023,-94.48c2.386,-5.068 3.382,-7.184 49.462,-49.555c4.657,-4.282 4.867,-3.719 23.765,-14.661c11.841,-7.817 7.579,-11.453 -2.03,-39.456c-1.076,-3.135 -12.114,-35.302 -13.901,-39.028c-2.858,-5.96 -4.745,-2.47 -14.743,-0.859c-6.474,1.368 -20.017,6.519 -41.026,-2.958c-4.076,-31.725 4.86,-421.894 -3.716,-428.579c-2.356,-1.837 -2.365,-0.939 -17.635,-1.711c-44.982,-1.652 -171.895,-6.879 -176.084,-7.39c-0.539,-0.066 -0.446,-0.232 -6.026,-3.131c0.628,-4.159 76.859,-232.819 107.62,-256.318c12.178,-9.303 80.984,-38.444 110.077,-51.679c14.984,-6.816 -0.895,6.603 -32.556,60.482c-1.247,2.122 -15.975,21.27 3.192,9.719c19.228,-11.588 19.394,-10.866 41.078,-17.28Z" style="fill:#2a384f;"/><path d="M1120.422,1470.23c1.11,0.6 -0.702,7.757 17.944,6.462c3.118,-0.217 2.855,-0.515 6.012,-0.254c207.953,17.181 314.453,19.287 557.74,36.765c1.687,0.609 3.373,1.218 5.06,1.827c0.705,24.348 0.029,456.556 0.309,481.371c0.08,7.108 1.139,6.776 1.903,9.968c-17.277,13.458 -29.902,20.244 -42.904,29.057c-18.142,12.296 14.476,42.205 45.398,97.73c-0.134,0.21 -3.835,-1.804 -4.685,9.39c-0.423,5.575 1.133,74.461 0.19,92.68c-0.186,3.595 0.266,3.334 0.538,6.731c-35.786,-3.575 -617.321,-73.602 -623.19,-78.583c-0.394,-0.334 -0.204,-0.432 -2.76,-5.834c0.363,-21.458 0.97,-21.294 -0.116,-32.95c-0.099,-1.411 -0.844,-1.017 -0.936,-2.33c-0.263,-3.762 -1.102,-3.177 -2.401,-6.924c3.814,-6.734 2.833,-6.876 3.403,-14.538l0.029,-20.923c-0.039,-1.964 -0.077,-3.928 -0.116,-5.892c-0.666,-6.355 0.369,-6.456 -3.094,-12.133c9.601,-16.09 -1.594,-97.716 9.033,-103.657c11.491,-6.425 12.437,-5.206 20.153,-16.023c39.521,23.274 87.486,24.741 100.844,5.695c13.855,-19.756 23.826,-9.613 28.914,-22.59c7.616,-19.424 5.338,-23.786 25.677,-28.312c24.296,-5.407 17.39,-34.12 11.136,-39.754c-26.165,-23.575 19.996,3.241 36.677,-7.308c10.414,-6.586 19.849,-26.276 0.231,-44.434c-0,-0 -11.443,-8.687 -12.438,-9.442c23.588,-18.073 23.111,-18.067 46.198,-37.017c70.885,-58.181 73.529,-58.007 71.849,-61.599c-1.426,-3.048 -110.853,-16.329 -120.526,-17.503c-9.718,-1.18 -11.84,-0.692 -88.364,84.656c-40.179,-19.933 -47.317,-18.338 -51.566,-17.388c-35.523,7.939 -45.824,17.869 -48.884,20.819c-6.868,-4.481 -6.803,-4.355 -14.874,-3.974c-8.558,-9.514 -9.222,-8.835 -9.831,-9.76c-3.041,-4.621 1.355,-227.096 -1.414,-246.967c0.106,-0.693 -1.461,-0.917 -1.355,-1.61c1.348,-8.817 3.122,-8.735 0.61,-17.504c0.581,-1.384 1.471,-0.804 1.949,-4.644c1.739,-13.979 11.687,-10.358 37.657,-13.3Z" style="fill:#e7b077;"/><path d="M3053.873,1951.698c-0.834,175.452 0.798,868.777 -0.954,870.534c-1.814,1.819 -379.339,-0.055 -438.017,0.979c2.78,-17.695 0.655,-248.54 4.074,-346.269c2.734,-38.741 3.199,-391.123 5.199,-450.709c2.78,-82.811 -4.608,-104.024 3.208,-109.207c0.012,-0.008 409.43,35.323 426.491,34.672Z" style="fill:#a6aeb4;"/><path d="M2722.153,37.646c6.067,17.025 0.232,208.067 1.19,222.953c0.251,3.899 0.085,3.688 -1.565,7.339c-36.076,2.426 -1009.279,78.602 -1010.663,78.298c-7.894,-1.732 -9.718,-4.45 -8.319,-100.673c1.38,-94.87 -5.376,-103.409 11.161,-105.126c37.958,-3.941 409.818,-42.546 474.522,-48.81c391.607,-37.909 390.951,-41.227 533.675,-53.981Z" style="fill:#4a525d;"/><path d="M2081.011,1467.046c15.269,0.772 15.278,-0.125 17.635,1.711c8.577,6.685 -0.359,396.854 3.716,428.579c-43.766,-0.668 -42.984,4.006 -47.196,6.354c-33.684,-48.47 -47.821,-80.485 -57.857,-82.269c-11.064,-1.966 -255.978,167.013 -287.919,184.948c-0.764,-3.192 -1.822,-2.861 -1.903,-9.968c-0.28,-24.815 0.396,-457.023 -0.309,-481.371l1.136,-1.245c85.183,-11.908 85.004,-10.485 170.488,-20.312c34.842,-6.959 35.224,-4.641 38.077,-5.803c1.583,-0.645 1.401,-3.524 2.984,-4.169c25.934,-0.496 25.793,0.962 77.604,-5.343c65.414,-7.961 68.964,2.779 83.544,-11.111Z" style="fill:#cf955e;"/><path d="M661.116,197.775c44.88,11.522 44.211,12.99 89.424,21.627c16.621,1.048 37.58,5.889 74.272,-7.633c14.233,-5.245 15.073,0.906 20.728,21.936c3.09,11.493 0.314,31.813 8.455,22.568c10.054,-11.418 14.549,-21.322 20.635,-7.229c10.674,24.715 18.166,91.775 -28.937,112.025c-7.026,3.02 -6.733,2.905 -14.213,5.227c-64.817,-16.918 -103.397,-24.018 -99.6,28.397c2.842,39.228 8.577,44.081 -21.34,70.044c-53.854,46.736 -1.525,114.391 -52.7,97.776c-14.758,-4.792 -0.486,-65.746 -38.803,-86.755c-37.056,-20.318 -75.688,27.417 -52.294,88.496c2.857,7.458 4.644,7.621 7.479,21.26c-3.712,10.901 -3.88,10.502 -8.366,21.017c-16.113,31.171 -23.912,46.061 -113.317,78.042c-23.155,8.283 -33.369,10.777 -43.759,7.294c-5.964,-9.929 3.711,-12.752 -39.676,-139.242c-6.358,-18.537 -36.577,-88.723 -17.004,-205.51c16.15,-96.364 62.319,-87.54 55.021,-98.297c-0.469,-0.691 -21.708,-9.143 -14.032,-14.56c6.983,-4.928 32.238,8.76 34.221,1.978c0.405,-1.385 -0.186,-10.758 5.362,-25.992c11.931,-32.76 10.656,10.145 10.619,11.39c-1.094,36.823 15.026,-21.252 80.728,-35.233c56.469,-12.017 123.293,8.128 137.095,11.375Z" style="fill:#52352a;"/><path d="M831.48,366.296c0.407,34.017 15.92,100.71 12.429,117.824c-0.436,2.136 -4.486,2.17 -4.921,4.306c-11.492,-5.171 -39.496,-23.444 -69.85,2.419c-11.567,9.855 -1.483,10.488 -0.651,10.416c22.937,-1.992 25.402,-5.704 64.779,11.325c-0.076,4.035 -0.407,3.868 -4.068,19.445c-1.316,19.181 2.311,27.132 9.883,47.801c28.893,64.326 32.13,68.893 18.65,79.714c-1.701,0.579 -3.402,1.157 -5.103,1.736c-1.408,-1.77 -9.314,-11.707 -27.849,-4.913c-4.065,1.49 -2.245,2.68 -2.352,13.587c-1.513,11.749 -2.303,11.408 -2.959,22.984c-0.542,9.568 -2.143,9.001 -8.056,21.119c-6.516,-3.602 -6.211,-3.417 -13.309,-5.537c-24.831,-7.416 -48.591,-19.44 -31.791,-4.66c17.28,15.201 40.426,13.284 44.091,12.981c-4.887,22.075 -16.285,30.559 -15.241,44.688c0.304,4.114 6.961,35.97 -6.822,52.883c-28.532,35.011 -110.47,-5.572 -123.207,16.37c-13.717,23.63 -8.934,51.24 -25.983,29.918c-131.975,-109.605 -185.512,-104.044 -237.877,-119.029c-10.225,-2.926 1.218,-22.273 7.508,-49.805c10.389,3.483 20.604,0.989 43.759,-7.294c89.405,-31.981 97.204,-46.871 113.317,-78.042c17.815,17.593 38.161,41.002 56.584,29.839c15.037,-9.111 -14.968,-5.644 -28.662,-24.803c-9.605,-13.438 -8.942,-13.515 -19.557,-26.052c-2.835,-13.64 -4.623,-13.802 -7.479,-21.26c-23.394,-61.08 15.238,-108.815 52.294,-88.496c38.317,21.01 24.045,81.964 38.803,86.755c51.175,16.615 -1.154,-51.04 52.7,-97.776c29.917,-25.963 24.182,-30.816 21.34,-70.044c-3.797,-52.415 34.782,-45.315 99.6,-28.397Z" style="fill:#f8b998;"/><path d="M2260.258,802.316c0.448,1.106 -2.554,3.097 2.627,6.478c0.837,0.546 27.648,14.293 29.828,12.89c1.715,-1.104 1.938,-3.805 3.653,-4.91c13.191,5.277 12.748,5.482 26.14,10.457c12.202,4.533 13.792,43.777 14.996,53.587c2.51,20.456 16.751,-34.556 24.346,-44.34c27.536,-35.469 96.841,17.135 17.874,92.495c-5.565,-14.84 -5.379,-18.328 -21.412,-17.603c-12.766,8.055 -9.016,10.823 -10.7,19.799c-0.851,4.537 -1.779,5.187 1.926,7.797c0.738,0.52 1.951,-0.851 2.689,-0.331c-6.781,4.236 -5.096,5.379 -13.231,21.986c-8.28,16.905 -8.425,16.587 -8.658,18.516c-3.857,31.973 2.471,41.189 4.478,44.114c-0.12,1.485 -3.728,0.787 -3.849,2.272c-0.469,5.779 9.211,72.584 6.28,75.89c-59.982,67.663 -93.175,78.796 -126.091,127.734c-14.612,21.724 -52.318,73.306 -55.88,73.096c-3.583,-0.211 -1.733,-29.928 -0.643,-57.542c3.928,-99.516 9.735,-98.805 19.748,-121.851c2.001,-4.606 1.461,-4.58 2.201,-9.376c4.864,1.393 4.828,1.604 5.254,1.505c97.82,-22.815 171.071,-166.834 137.155,-124.872c-46.528,57.566 -121.791,64.276 -142.101,78.516c-1.376,-0.558 -2.752,-1.116 -4.128,-1.673c-15.258,0.617 -39.287,16.535 -87.574,-67.824c-36.899,-64.463 -24.858,-130.9 -23.83,-151.1c0.03,-0.59 0.327,-0.438 4.409,-5.918c0.83,4.518 0.416,31.541 23.213,25.776c20.451,10.66 30.248,-10.812 24.372,-19.034c0.705,-0.919 2.648,0.005 3.353,-0.915c3.239,-4.226 -25.667,-37.846 -53.692,-17.819c-5.254,-6.723 -5.42,-6.27 -9.487,-13.804c0.472,-1.71 2.86,-2.441 3.332,-4.151c2.114,-7.654 0.202,-7.946 0.672,-8.434c10.069,-10.447 46.212,2.164 49.998,3.485c8.957,3.125 8.855,-7.813 2.459,-11.814c-30.229,-18.911 -55.591,6.505 -55.072,-7.066c1.948,-50.96 14.007,-91.658 62.548,-121.061c18.611,-11.273 15.375,4.45 33.758,32.423c37.083,56.429 82.243,80.325 89.073,85.184c12.302,8.751 -61.732,-5.36 -61.96,15.433c-0.224,20.444 21.693,-13.109 81.926,2.006Z" style="fill:#f9bfa0;"/><path d="M2410.599,643.193c69.294,103.778 15.507,189.026 26.117,204.337c9.617,13.878 37.353,40.039 20.091,104.902c-10.193,38.301 -34.018,54.068 -45.234,62.007c-2.606,1.446 -37.623,27.197 -76.756,8.81c-2.008,-2.924 -8.336,-12.141 -4.478,-44.114c0.233,-1.929 0.378,-1.611 8.658,-18.516c8.135,-16.607 6.45,-17.75 13.231,-21.986c15.698,0.907 15.711,-0.612 27.496,-9.662c78.967,-75.36 9.661,-127.964 -17.874,-92.495c-7.596,9.784 -21.836,64.796 -24.346,44.34c-1.204,-9.81 -2.794,-49.054 -14.996,-53.587c-13.392,-4.975 -12.949,-5.18 -26.14,-10.457c-17.296,-9.554 -16.479,-11.806 -36.108,-14.458c-60.233,-15.115 -82.15,18.438 -81.926,-2.006c0.228,-20.793 74.262,-6.682 61.96,-15.433c-6.83,-4.859 -51.989,-28.755 -89.073,-85.184c-18.383,-27.973 -15.147,-43.696 -33.758,-32.423c-48.541,29.403 -60.6,70.1 -62.548,121.061c-0.519,13.571 24.843,-11.845 55.072,7.066c6.396,4.001 6.498,14.939 -2.459,11.814c-3.786,-1.321 -39.929,-13.932 -49.998,-3.485c-0.47,0.487 1.442,0.779 -0.672,8.434c-0.472,1.71 -2.86,2.441 -3.332,4.151c-49.405,-75.249 -20.349,-147.353 40.229,-184.583c22.996,-14.133 184.524,-135.993 316.844,11.466Z" style="fill:#53362a;"/><path d="M3053.72,3.931c-0.121,19.085 -0.578,91.23 -0.082,238.563c-8.493,0.364 -315.288,24.771 -331.86,25.445c1.65,-3.651 1.816,-3.44 1.565,-7.339c-0.958,-14.886 4.877,-205.928 -1.19,-222.953c39.471,-7.545 60.831,-4.207 173.096,-18.727c107.283,-13.875 145.74,-14.712 158.471,-14.989Z" style="fill:#eb814c;"/><path d="M2055.166,1903.69c12.024,21.625 24.575,26.703 4.066,40.845c-49.242,33.953 -60.625,36.769 -119.419,80.831c-36.603,15.995 -198.073,134.944 -210.926,129.271c-2.005,-0.885 -2.298,-1.014 -17.003,-21.481c-30.923,-55.525 -63.54,-85.434 -45.398,-97.73c13.002,-8.813 25.628,-15.598 42.904,-29.057c31.941,-17.935 276.855,-186.914 287.919,-184.948c10.036,1.783 24.173,33.799 57.857,82.269Z" style="fill:#cf4738;"/><path d="M1939.812,2025.366c-1.57,15.782 -0.855,16.046 0.384,16.503c5.959,2.197 11.088,4.088 71.325,-34.872c1.403,-0.907 87.288,-56.455 19.922,-6.268c-54.983,40.962 -77.942,50.609 -86.687,62.244c-17.855,23.756 8.786,20.19 12.541,21.373c12.611,9.508 14.059,6.081 37.173,-1.265c9.165,5.017 14.109,13.869 65.07,-12.977c20.957,-11.04 28.383,-23.408 41.296,-26.25c0.183,86.551 -1.389,87.509 4.023,94.48c-0.491,0.897 -2.577,-0.842 -3.068,0.056c-2.052,3.751 3.67,22.948 -8.783,25.649c-29.272,6.35 -29.376,4.599 -366.818,75.037c-9.231,1.927 -9.03,1.922 -18.264,2.881c-0.271,-3.397 -0.724,-3.136 -0.538,-6.731c0.944,-18.219 -0.613,-87.105 -0.19,-92.68c0.85,-11.194 4.552,-9.18 4.685,-9.39c14.705,20.467 14.998,20.596 17.003,21.481c12.853,5.673 174.323,-113.276 210.926,-129.271Z" style="fill:#d1965f;"/><path d="M2041.905,1904.349c-7.224,2.119 -10.826,2.332 -11.787,2.388c-3.381,0.2 -3.368,-0.307 -3.605,-0.143c-1.657,1.148 0.63,2.204 -1.019,3.347c-5.156,-15.018 -26.447,-47.246 -39.71,-43.358c-24.316,7.128 -18.077,17.016 -16.997,18.727c24.618,39.017 31.452,47.597 34.542,51.476c-5.139,8.503 -7.482,5.045 -8.334,5.054c-9.459,-3.742 -9.587,-1.316 -18.551,3.699c-5.349,2.993 -18.064,-11.753 -7.673,-19.532c15.135,-11.33 -9.128,-6.964 -10.085,-6.792c-7.265,1.307 -14.909,-13.307 -10.599,-16.847c9.502,-7.806 14.01,-6.542 10.952,-13.616c-2.743,-6.347 -32.213,10.245 -28.387,18.646c0.42,0.922 30.698,47.639 34.639,52.691c4.109,5.268 10.694,0.164 10.988,0.032c7.393,3.399 7.072,5.318 6.951,6.045c-0.957,5.719 7.013,8.648 41.31,-17.07c9.002,-6.75 14.673,-4.781 11.586,-13.857c7.469,-0.067 8.147,-0.693 12.314,5.322c-16.968,12.31 -17.392,11.48 -218.969,143.932c-91.177,59.91 -93.826,64.407 -99.989,57.537c-3.869,-4.313 -58.851,-87.763 -57.984,-95.025c0.578,-4.839 30.345,-23.342 33.074,-25.166c284.629,-185.852 286.97,-194.341 295.127,-185.807c3.491,3.652 18.626,27.618 20.173,30.067c17.983,28.475 20.683,34.989 22.034,38.251Z" style="fill:#d1975f;"/><path d="M2104.858,2138.333c54.527,5.316 167.272,18.349 181.808,20.029c-0.494,0.322 -2.082,4.518 -11.849,6.477c-12.054,2.418 -506.302,113.489 -510.218,114.231c-13.693,2.594 -380.132,-52.116 -572.559,-76.706c-169.878,-21.709 -169.868,-20.079 -184.615,-22.021c-18.335,-2.414 8.696,-6.432 74.55,-22.804c2.556,5.402 2.366,5.5 2.76,5.834c5.869,4.981 587.404,75.008 623.19,78.583c9.234,-0.959 9.033,-0.954 18.264,-2.881c337.442,-70.438 337.545,-68.687 366.818,-75.037c12.453,-2.701 6.731,-21.899 8.783,-25.649c0.491,-0.897 2.577,0.842 3.068,-0.056Z" style="fill:#c9cfd3;"/><path d="M1208.13,1764.559c3.312,5.89 4.869,4.24 43.343,17.753c35.657,12.523 35.265,15.671 47.5,13.711c0.995,0.755 12.438,9.442 12.438,9.442c19.618,18.158 10.183,37.848 -0.231,44.434c-16.68,10.549 -62.842,-16.268 -36.677,7.308c6.254,5.635 13.161,34.347 -11.136,39.754c-20.339,4.527 -18.061,8.888 -25.677,28.312c-5.089,12.978 -15.059,2.834 -28.914,22.59c-13.357,19.046 -61.323,17.58 -100.844,-5.695c4.625,-8.889 56.411,-99.449 -0.251,-174.177c3.06,-2.95 13.361,-12.88 48.884,-20.819c4.249,-0.95 11.387,-2.545 51.566,17.388Z" style="fill:#fabe9e;"/><path d="M2102.362,1897.336c21.01,9.477 34.552,4.326 41.026,2.958c1.601,0.961 3.538,-1.853 6.068,3.643c6.214,13.498 14.288,56.668 24.606,75.7c-18.897,10.942 -19.108,10.379 -23.765,14.661c-46.08,42.371 -47.076,44.487 -49.462,49.555c-12.912,2.842 -20.339,15.21 -41.296,26.25c-50.961,26.846 -55.905,17.994 -65.07,12.977c-23.113,7.346 -24.562,10.772 -37.173,1.265c-3.756,-1.182 -30.396,2.384 -12.541,-21.373c8.745,-11.635 31.704,-21.282 86.687,-62.244c67.366,-50.187 -18.519,5.361 -19.922,6.268c-60.237,38.96 -65.365,37.069 -71.325,34.872c-1.239,-0.457 -1.954,-0.72 -0.384,-16.503c58.794,-44.061 70.177,-46.877 119.419,-80.831c20.51,-14.142 7.958,-19.22 -4.066,-40.845c4.212,-2.348 3.43,-7.022 47.196,-6.354Z" style="fill:#f9c1a1;"/><path d="M1284.635,1454.303c5.68,3.692 4.985,5.104 11.774,5.477c61.193,3.358 61.035,1.563 122.371,5.233c31.262,1.871 329.511,19.716 390.717,24.331c16.477,1.242 64.254,-1.511 67.056,-0.017c1.387,0.74 0.862,3.406 2.249,4.145c-85.484,9.827 -85.305,8.405 -170.488,20.312c-2.065,-0.194 -4.131,-0.388 -6.196,-0.582c-243.287,-17.478 -349.787,-19.584 -557.74,-36.765c-3.157,-0.261 -2.894,0.038 -6.012,0.254c-18.646,1.295 -16.834,-5.862 -17.944,-6.462c65.639,-4.607 65.358,-5.795 164.213,-15.926Z" style="fill:#f5c798;"/><path d="M1092.806,1764.016c8.071,-0.381 8.007,-0.507 14.874,3.974c56.663,74.728 4.876,165.289 0.251,174.177c-7.716,10.817 -8.662,9.598 -20.153,16.023c-10.628,5.942 0.567,87.567 -9.033,103.657c-16.968,-1.738 -137.73,-18.06 -152.112,-18.235c-21.165,-0.257 -0.596,-8.567 8.775,-17.512c23.344,-22.286 23.966,-46.833 25.269,-53.49c1.578,-1.58 3.156,-3.16 4.734,-4.74c87.936,13.075 88.128,13.383 95.599,11.506c11.833,-2.972 32.997,-51.67 34.25,-55.057c24.514,-66.278 24.407,-107.637 -2.454,-160.303Z" style="fill:#f1f4f4;"/><path d="M1208.13,1764.559c76.524,-85.348 78.645,-85.836 88.364,-84.656c9.672,1.174 119.1,14.455 120.526,17.503c1.68,3.592 -0.964,3.418 -71.849,61.599c-23.088,18.95 -22.61,18.944 -46.198,37.017c-12.234,1.96 -11.843,-1.187 -47.5,-13.711c-38.474,-13.513 -40.031,-11.863 -43.343,-17.753Z" style="fill:#f2f6f5;"/><path d="M1385.905,1446.298c98.615,-12.004 103.508,-9.247 241.569,-1.011c21.587,1.288 266.396,15.892 269.935,14.371c1.063,-0.456 0.429,-2.676 1.491,-3.133c5.58,2.899 5.487,3.066 6.026,3.131c4.189,0.511 131.103,5.737 176.084,7.39c-14.579,13.89 -18.129,3.151 -83.544,11.111c-51.811,6.305 -51.67,4.846 -77.604,5.343c-33.51,-3.75 -33.491,-2.925 -420.694,-25.857c-47.75,-2.828 -47.486,-2.499 -95.333,-5.669c-3.588,-0.238 -8.233,-0.066 -8.948,-0.039c-9.293,0.344 -6.841,-4.292 -8.983,-5.637Z" style="fill:#f3c89c;"/><path d="M1385.905,1446.298c2.143,1.344 -0.31,5.98 8.983,5.637c0.715,-0.026 5.36,-0.198 8.948,0.039c47.847,3.17 47.583,2.841 95.333,5.669c387.202,22.932 387.184,22.106 420.694,25.857c-1.583,0.645 -1.401,3.524 -2.984,4.169c-2.854,1.162 -3.235,-1.156 -38.077,5.803c-1.387,-0.74 -0.862,-3.406 -2.249,-4.145c-2.802,-1.494 -50.58,1.259 -67.056,0.017c-61.206,-4.615 -359.455,-22.46 -390.717,-24.331c-61.336,-3.67 -61.178,-1.875 -122.371,-5.233c-6.789,-0.373 -6.094,-1.784 -11.774,-5.477c50.719,-5.499 50.449,-5.015 101.269,-8.006Z" style="fill:#d9ab7c;"/><path d="M2256.77,1409.83c-27.268,-4.493 -27.064,-4.423 -29.319,-5.189c-7.282,-2.472 2.008,-29.698 4.395,-38.063c0.895,-3.136 4.002,-5.218 10.029,-4.326c93.247,13.804 93.327,12.703 101.338,14.4c8.142,1.725 -0.748,27.349 -5.096,41.384c-1.521,4.91 -3.958,5.303 -81.347,-8.206Z" style="fill:#dee2e6;"/><path d="M2176.889,1068.62c20.311,-14.24 95.573,-20.95 142.101,-78.516c33.916,-41.962 -39.334,102.057 -137.155,124.872c-0.426,0.099 -0.389,-0.111 -5.254,-1.505c0.951,-22.496 0.846,-22.311 0.307,-44.852Z" style="fill:#ef9576;"/><path d="M861.012,2095.168c114.121,7.584 159.244,18.087 172.81,21.245c13.386,0.538 27.913,3.368 44.7,-1.08c1.3,3.747 2.138,3.162 2.401,6.924c0.092,1.313 0.837,0.919 0.936,2.33c-21.244,-0.099 -64.336,18.348 -119.497,18.65c-58.474,0.32 -79.561,17.891 -98.879,7.431c51.692,-14.535 85.067,-10.321 79.503,-29.784c-9.908,-8.611 -11.23,-5.289 -34.094,-9.514c-45.553,-7.275 -57.117,-7.453 -47.88,-16.202Z" style="fill:#c7ced4;"/><path d="M878.912,1954.551c1.636,-0.089 1.267,0.862 2.987,0.769c3.725,-0.202 3.009,1.257 6.242,2.608c-13.9,32.63 -7.935,34.087 -18.521,68.213c-4.28,13.797 6.499,10.258 12.29,11.048c5.243,0.715 13.228,8.138 40.801,-12.189c25.194,-18.573 25.923,-44.308 27.116,-49.546c3.616,-0.948 7.233,-1.895 10.849,-2.843c-1.304,6.657 -1.926,31.204 -25.269,53.49c-9.37,8.946 -29.94,17.255 -8.775,17.512c14.382,0.175 135.144,16.497 152.112,18.235c3.463,5.678 2.427,5.778 3.094,12.133c-9.114,-0.511 -49.729,-2.788 -113.512,-11.643c-101.159,-14.044 -101.854,-13.643 -109.468,-9.254c-2.083,-3.06 -4.166,-6.119 -6.248,-9.179c6.096,-3.751 4.548,-4.79 5.276,-11.753c0.647,-6.195 13.38,-43.715 21.027,-77.603Z" style="fill:#393e44;"/><path d="M2090.078,218.703c4.303,-11.375 5.076,-10.648 11.014,-21.15c1.208,-2.137 -0.631,-8.429 -0.837,-9.133c-10.79,-36.906 18.905,-41.305 28.156,-37.621c28.614,11.397 1.128,47.972 1.349,49.699c1.811,14.115 14.953,-4.673 19.789,-5.127c14.721,-1.382 2.416,22.693 2.397,26.282c-0.02,3.698 17.633,30.816 -2.168,23.082c-11.545,-4.509 -11.799,-2.415 -21.811,2.324c-10.981,5.197 -42.491,5.278 -37.889,-28.356Z" style="fill:#c6cdd2;"/><path d="M888.142,1957.928c8.152,-3.227 45.489,-1.2 56.662,11.147c1.675,2.126 3.349,4.252 5.024,6.379c-1.193,5.238 -1.922,30.973 -27.116,49.546c-27.573,20.326 -35.558,12.904 -40.801,12.189c-5.791,-0.79 -16.57,2.749 -12.29,-11.048c10.585,-34.126 4.621,-35.583 18.521,-68.213Z" style="fill:#f1f4f4;"/><path d="M837.102,1560.924c171.729,10.597 187.266,15.902 202.695,21.17c-23.909,16.315 -39.263,10.616 -44.54,11.921c-32.306,7.989 -32.454,1.703 -65.619,-0.768c-40.445,-3.013 -40.254,-2.622 -80.603,-5.509c-5.152,-5.25 -5.464,-5.66 -12.699,-3.743l-2.056,0.837c-0.074,-0.731 -0.792,-7.799 -0.708,-9.158c0.483,-7.769 1.752,-7.32 3.53,-14.751Z" style="fill:#485058;"/><path d="M2572.338,209.851c-0.521,53.953 -65.191,33.483 -55.704,8.833c18.214,-47.322 -14.196,-66.944 23.315,-78.721c2.487,-0.781 42.677,-10.448 28.733,11.819c-8.379,13.381 5.16,36.991 -22.473,36.748c-16.492,-0.145 -8.175,8.742 -5.817,8.895c18.669,1.205 25.157,-6.966 31.946,12.427Z" style="fill:#ced4d9;"/><path d="M2502.197,-46.864c5.603,-3.92 4.612,-4.907 5.184,-4.926c28.708,-0.969 33.213,0.929 35.861,2.045c5.848,2.465 2.983,28.888 3.422,32.751c1.251,11.011 37.348,5.782 38.752,7.718c9.468,13.062 4.504,14.407 4.625,33.999c0.066,10.622 35.248,6.727 36.696,6.84c2.37,0.186 10.378,8.238 0.051,8.997c-32.245,2.368 -33.779,5.15 -37.076,0.106c-10.743,-16.436 -15.073,-8.169 -34.535,-8.654c-16.174,-0.403 -1.174,-43.625 -14.802,-42.005c-0.131,0.016 -25.129,0.154 -26.94,0.146c-15.33,-0.072 -11.052,-22.391 -11.238,-37.018Z" style="fill:#fdfdfd;"/><path d="M1961.745,206.919c-25.566,27.149 -0.188,55.242 -18.124,55.868c-13.717,0.479 -10.304,-62.283 -3.211,-65.58c18.365,-8.536 19.869,-0.555 50.973,-8.643c28.915,-7.519 25.6,36.952 24.437,63.268c-0.677,0.928 -8.167,11.201 -14.228,1.907c-3.73,-5.719 3.077,-59.131 -12.08,-45.905c-6.548,5.714 0.594,65.01 -16.634,50.666c-9.367,-7.799 -0.034,-54.103 -6.73,-53.341c-0.377,0.043 0,0 -4.402,1.759Z" style="fill:#c3cacf;"/><path d="M1794.029,269.171c-0.848,8.899 -3.484,10.363 -11.24,5.94c-5.357,-3.055 -22.627,-61.377 -20.453,-14.675c1.103,23.693 -15.28,20.554 -17.439,8.745c-0.59,-3.225 -1.775,-65.357 0.087,-71.14c6.582,-20.443 65.148,-20.513 42.164,31.464c-3.86,8.728 -3.904,9.237 6.882,39.666Z" style="fill:#bec6cb;"/><path d="M834.479,1477.311c20.726,1.627 20.39,1.731 41.432,2.676c170.212,7.642 192.587,11.406 204.905,8.187c2.511,8.769 0.737,8.687 -0.61,17.504c-0.106,0.693 1.461,0.917 1.355,1.61c-6.317,-2.883 -8.787,-4.01 -86.442,-7.824c-24.779,-1.217 -90.178,-5.488 -131.164,-7.466c-20.183,-0.974 -30.002,5.752 -29.476,-14.688Z" style="fill:#9da5ac;"/><path d="M2247.901,221.586c0.022,7.752 1.28,7.497 0.03,15.194c-7.254,0.673 -11.63,4.314 -41.733,4.94c-13.457,0.28 -13.609,-8.779 -13.791,-82.725c-0.058,-23.428 43.157,-17.951 46.52,-14.823c15.511,14.426 -24.949,14.741 -27.144,20.628c-5.329,14.293 0.098,16.558 15.324,15.767c14.209,-0.739 12.608,10.759 10.618,13.054c-7.782,8.975 -30.492,-8.292 -27.314,24.839c0.539,5.616 19.706,8.127 37.49,3.128Z" style="fill:#c2c9cf;"/><path d="M2362.065,152.562c24.645,0.43 24.488,3.224 28.604,9.641c5.958,9.289 3.12,60.015 2.096,61.122c-17.999,19.456 -12.055,-45.529 -17.855,-51.015c-17.991,-17.018 -12.675,50.217 -17.506,54.304c-15.045,12.725 -15.015,-37.41 -13.513,-49.8c3.091,-25.486 -6.332,-47.35 5.342,-50.97c11.552,-3.583 11.944,8.253 12.831,26.717Z" style="fill:#c5ccd2;"/><path d="M808.615,2789.474c8.06,-0.566 150.394,28.918 150.782,29.118c1.372,0.706 1.645,2.805 3.017,3.511c-79.03,-0.591 -78.724,0.775 -158.026,-0.259c0.962,-22.638 2.744,-22.28 4.227,-32.37Z" style="fill:#61666d;"/><path d="M2623.991,191.497c0.216,0.765 1.616,5.723 0.689,9.917c-5.827,5.365 -5.36,6.125 -12.912,7.785c-53.372,11.736 -41.304,-88.976 -2.935,-76.844c21.954,6.942 18.742,30.185 18.938,32.824c1.158,15.581 -30.839,7.469 -33.986,14.558c-7.952,17.912 22.276,9.982 30.207,11.759Z" style="fill:#c6ccd2;"/><path d="M2448.49,167.816c0.665,18.301 6.459,52.171 -6.695,53.011c-9.71,0.62 -43.584,13.496 -38.605,-23.033c3.665,-26.885 40.009,-17.672 26.834,-29.943c-6.076,-5.659 -31.463,9.687 -23.953,-8.853c2.2,-5.432 33.233,-27.018 42.419,8.818Z" style="fill:#c6cdd3;"/><path d="M1150.429,2135.511c-22.065,-2.439 -21.924,-2.417 -23.83,-2.635c-9.383,-1.069 -9.379,-13.551 -0.138,-13.886c10.507,-0.381 7.677,-4.689 7.766,-15.221c0.246,-29.039 2.813,-34.973 -8.02,-41.458c-5.888,-3.525 15.396,-32.76 15.397,-32.761c6.523,-5.663 26.332,33.417 21.151,36.193c-6.858,3.675 -7.986,4.974 -7.44,50.064c0.075,6.189 1.655,5.573 7.366,8.038c1.243,0.536 13.569,14.682 -12.252,11.665Z" style="fill:#a77648;"/><path d="M1203.816,2143.306c-10.935,-3.721 -8.435,-9.368 -8.4,-27.601c0.032,-17.13 1.714,-38.726 -3.854,-44.206c-2.154,-2.12 -9.158,-9.014 13.24,-35.384c4.612,-5.43 28.944,36.062 20.117,38c-10.466,2.298 -7.224,19.506 -7.272,38.581c-0.052,21.171 7.347,32.293 -13.832,30.61Z" style="fill:#a77749;"/><path d="M2025.494,1909.941c1.457,11.321 2.829,11.886 -3.792,21.071c-7.017,4.878 -6.466,5.784 -14.811,7.487l-3.562,-1.713c-3.09,-3.879 -9.923,-12.459 -34.542,-51.476c-1.08,-1.711 -7.319,-11.599 16.997,-18.727c13.262,-3.888 34.553,28.34 39.71,43.358Z" style="fill:#d55140;"/><path d="M2459.993,164.969c0.106,-1.379 -0.948,-12.908 6.354,-16.564c5.283,-2.645 18.435,-4.923 20.07,-5.206c33.725,-5.84 25.793,64 20.881,69.232c-15.955,16.994 -10.443,-44.899 -15.233,-50.036c-19.162,-20.547 -13,49.682 -19.457,54.58c-16.786,12.735 -12.601,-45.788 -12.614,-52.007Z" style="fill:#cbd2d7;"/><path d="M1872.006,200.888c0.428,-0.009 0.41,0.004 9.198,0.522c28.88,1.702 9.345,38.094 17.881,46.975c15.954,16.599 7.578,-42.275 14.393,-48.176c10.891,-9.431 11.888,8.302 11.957,9.522c3.018,53.657 -1.445,54.591 -5.815,55.505c-18.482,3.867 -20.445,9.717 -35.1,-2.447c-0.429,-4.707 -0.61,-4.41 -2.867,-8.307c-2.942,-19.939 1.651,-20.311 -3.49,-38.854l-3.189,0.624c-1.486,-0.78 -2.972,-1.56 -4.458,-2.339c-0.01,-1.049 -0.068,-7.475 1.49,-13.024Z" style="fill:#bfc6cc;"/><path d="M1836.207,209.916c3.624,13.402 4.931,13.131 3.52,26.99c-0.943,9.26 -27.014,4.113 -26.727,14.594c0.402,14.694 22.16,6.264 23.243,6.429c12.187,1.864 -3.861,33.869 -32.367,10.976c-21.906,-41.376 11.717,-84.837 32.332,-58.99Z" style="fill:#bbc3c8;"/><path d="M1714.912,2042.428c3.282,-0.126 27.58,-1.058 29.553,28.49c0.748,11.201 4.096,9.549 13.168,16.302c15.314,11.399 5.755,14.35 4.559,14.614c-7.603,1.675 -48.053,-35.685 -22.177,-0.394c0.727,0.991 10.515,14.341 -1.973,15.241c-5.35,0.386 -4.424,-1.944 -38.523,-54.879c-7.419,-11.518 4.291,-13.472 15.392,-19.373Z" style="fill:#d0553b;"/><path d="M1039.796,1582.094c4.948,3.217 4.971,3.127 5.344,3.475c2.181,2.036 7.035,12.443 -32.264,18.698c-44.385,7.064 -175.512,-8.046 -177.664,-8.775c-1.815,-5.228 -1.064,-5.14 -0.933,-10.659l2.056,-0.837c3.516,1.683 3.513,1.147 6.79,3.249c0.399,0.256 0.438,0.037 5.909,0.493c40.349,2.887 40.157,2.496 80.603,5.509c33.165,2.47 33.313,8.756 65.619,0.768c5.278,-1.305 20.631,4.394 44.54,-11.921Z" style="fill:#727a81;"/><path d="M2247.901,221.586c9.855,-18.729 10.592,-20.016 1.532,-39.396c-12.115,-25.914 10.314,-16.089 12.237,-13.18c1.974,2.987 2.807,6.738 5.209,9.392c2.513,2.777 10.991,-17.29 19.865,-16.354c11.084,1.169 1.617,16.008 -0.252,20.642c-14.474,35.893 18.692,45.554 3.417,51.254c-10.523,3.926 -16.714,-13.969 -18.3,-14.898c-8.77,-5.136 -0.61,16.493 -23.677,17.733c1.25,-7.697 -0.008,-7.442 -0.03,-15.194Z" style="fill:#d0d7db;"/><path d="M1902.373,1998.819c-14.316,-10.739 -14.672,-13.347 -17.679,-10.656c-5.522,4.942 -0.02,5.424 9.89,18.099c3.474,4.443 -2.752,20.015 -13.009,4.746c-35.358,-52.636 -33.979,-55.437 -30.088,-59.038c18.891,-17.487 42.129,-1.719 42.589,14.483c0.451,15.891 5.663,13.565 19.23,27.478c0.669,0.686 6.098,14.723 -10.932,4.888Z" style="fill:#d14933;"/><path d="M2633.838,189.786c3.963,-2.329 3.399,-3.394 7.859,-3.166c1.347,0.069 35.995,0.154 3.398,-16.514c-14.032,-7.175 -9.571,-29.949 -7.609,-32.834c16.922,-24.892 51.352,6.187 28.214,7.609c-28.103,1.727 -7.219,13.614 -6.06,13.993c32.812,10.708 14.919,59.489 -23.773,41.708c-1.089,-5.619 -1.033,-5.297 -2.028,-10.795Z" style="fill:#c1c8ce;"/><path d="M861.012,2095.168c-4.422,-6.846 -5.193,-11.054 2.952,-10.343c58.157,5.076 58.098,3.754 116.141,11.149c41.537,5.292 44.624,0.957 49.589,10.856c0.648,1.446 -0.834,1.393 -0.149,2.922c0.259,0.578 0.317,0.494 4.276,6.662c-13.566,-3.158 -58.689,-13.662 -172.81,-21.245Z" style="fill:#1d2025;"/><path d="M1930.613,1945.753c-7.437,-11.09 -26.74,-35.119 -13.712,-35.133c5.557,-0.006 53.642,70.312 32.744,65.079c-8.578,-2.148 -50.666,-45.598 -34.997,-21.353c3.23,4.998 28.223,36.365 14.187,35.659c-5.956,-0.299 -56.022,-74.246 -30.022,-64.819c2.057,0.746 1.056,1.703 21.24,17.222c4.818,3.704 4.723,4.323 10.559,3.345Z" style="fill:#d2533c;"/><path d="M2182.332,970.721c0.727,-0.09 25.415,-3.147 5.229,7.512c-3.382,1.786 -46.456,33.119 -67.123,12.382c-5.419,-5.438 -2.729,-7.483 -9.384,-11.78c-11.418,-7.371 8.475,-13.864 14.402,-13.087c22.416,2.938 22.642,-2.578 44.825,2.541c6.061,1.399 5.625,1.658 12.051,2.432Z" style="fill:#ee8c72;"/><path d="M2024.074,251.664c1.249,-7.925 -1.999,-12.154 6.147,-11.55c34.588,2.566 -2.208,-17.356 -4.605,-22.659c-15.319,-33.886 34.911,-43.391 31.324,-22.696c-1.453,8.381 -29.437,5.895 -15.625,15.993c3.895,2.847 22.812,4.441 19.465,28.907c-1.339,9.785 -18.862,28.143 -36.705,12.005Z" style="fill:#bcc4ca;"/><path d="M2336.678,170.092c-1.076,1.057 -1.044,2.94 -2.12,3.997c-3.557,3.495 -19.617,-6.484 -23.959,17.713c-5.581,31.107 23.041,22.111 24.104,23.267c13.521,14.697 -21.409,26.568 -32.014,11.145c-15.148,-22.031 -4.564,-47.733 -2.991,-51.553c8.275,-20.095 36.249,-26.627 36.979,-4.569Z" style="fill:#c9d0d6;"/><path d="M2187.769,838.839c13.531,-13.916 16.65,-24.672 80.675,-1.712c0.81,0.29 5.992,6.392 -8.061,7.115c-24.049,-11.503 -40.627,-18.829 -33.132,-2.255c7.117,15.738 -7.761,27.373 -9.68,28.874c-7.522,1.506 -7.481,1.175 -14.304,-2.003c-5.519,-6.051 -8.146,-5.183 -9.34,-23.626c-1.042,-0.505 0.141,-1.29 -1.041,-1.863c-3.186,-1.545 -2.339,-2.071 -5.117,-4.531Z" style="fill:#492f22;"/><path d="M1832.42,1976.234c-2.425,-5.459 -4.81,-5.545 -1.841,-9.514c7.937,-10.608 17.539,9.587 34.216,36.525c21.803,35.218 -12.945,40.656 -25.277,28.746c-7.748,-7.483 -29.087,-50.104 -28.99,-50.448c6.105,-21.663 29.527,42.975 40.715,44.74c24.026,3.789 -17.529,-48.22 -18.823,-50.05Z" style="fill:#d1503a;"/><path d="M838.988,488.426c2.645,3.082 9.718,8.088 -5.722,24.159c-39.377,-17.029 -41.842,-13.316 -64.779,-11.325c-0.832,0.072 -10.916,-0.56 0.651,-10.416c30.354,-25.863 58.358,-7.589 69.85,-2.419Z" style="fill:#452d20;"/><path d="M878.912,1954.551c-7.646,33.888 -20.38,71.408 -21.027,77.603c-0.727,6.963 0.821,8.002 -5.276,11.753c-4.665,-90.405 -8.109,-96.109 -0.581,-95.039c0,0 24.733,5.229 26.883,5.684Z" style="fill:#4d5358;"/><path d="M1994.994,1941.84c1.949,8.574 -1.809,7.342 -2.719,7.918c0,0 -14.718,9.534 -15.998,10.363c-0.294,0.132 -6.879,5.236 -10.988,-0.032c-3.941,-5.053 -34.219,-51.769 -34.639,-52.691c-3.826,-8.401 25.644,-24.993 28.387,-18.646c3.057,7.074 -1.45,5.81 -10.952,13.616c-4.31,3.541 3.334,18.155 10.599,16.847c0.957,-0.172 25.22,-4.538 10.085,6.792c-10.392,7.779 2.323,22.525 7.673,19.532c8.965,-5.015 9.093,-7.441 18.551,-3.699Z" style="fill:#cf4a35;"/><path d="M1872.006,200.888c-1.558,5.549 -1.5,11.976 -1.49,13.024l-1.179,1.933c-4.681,11.703 -4.55,32.376 2.864,41.511c1.413,4.815 1.343,4.569 3.377,9.319c-0.957,1.097 -8.421,9.65 -18.06,2.273c-15.597,-11.937 -6.856,-15.894 -7.081,-38.317c-0.189,-18.872 -6.415,-24.307 -6.513,-24.726c-0.196,-0.842 1.425,-1.442 1.229,-2.284c7.02,-9.886 2.869,-12.812 9.852,-16.443c7.004,-3.641 13.819,10.212 17.001,13.71Z" style="fill:#c9cfd3;"/><path d="M622.447,549.908c-23.743,17.22 14.887,37.983 -3.043,38.894c-4.733,0.24 -38.571,-26.86 -8.682,-44.437c1.418,-0.834 17.869,-4.053 3.369,-27.761c-10.201,-16.679 -39.194,1.081 -26.362,-13.728c23.603,-27.239 60.626,28.849 34.718,47.033Z" style="fill:#ec9875;"/><path d="M1750.067,2049.937c-10.402,-17.523 -14.307,-17.194 -11.07,-23.184c2.182,-4.037 18.586,-13.086 20.316,-14.04c2.926,-1.614 15.139,5.69 2.042,12.721c-18.85,10.119 1.952,22.125 5.654,20.431c18.93,-8.66 10.091,6.233 9.403,6.86c-2.7,2.461 -8.686,3.334 1.044,17.832c6.305,9.396 15.948,-8.21 21.91,-1.606c5.964,6.607 -5.627,11.957 -17.115,19.19c-8.441,5.315 -12.708,-7.452 -32.183,-38.206Z" style="fill:#d14c36;"/><path d="M858.859,2053.085c7.614,-4.389 8.31,-4.79 109.468,9.254c63.783,8.855 104.397,11.132 113.512,11.643c0.039,1.964 0.077,3.928 0.116,5.892c-33.896,0.238 -214.965,-21.846 -223.096,-26.788Z" style="fill:#5e646e;"/><path d="M2063.013,830.114c28.026,-20.026 56.932,13.593 53.692,17.819c-0.705,0.919 -2.648,-0.005 -3.353,0.915c-1.132,-1.092 -22.628,-21.83 -18.521,-6.613c2.525,9.355 7.093,11.983 -5.851,25.647c-22.797,5.765 -22.383,-21.258 -23.213,-25.776c-2.962,-5.635 -3.086,-5.599 -2.754,-11.991Z" style="fill:#523525;"/><path d="M2229.874,1214.621c21.282,-14.674 30.319,0.967 53.869,21.213c-6.367,1.331 -6.162,1.814 -18.058,17.709c-17.199,-17.057 -16.556,-17.279 -35.913,-32.273c0.034,-2.217 0.068,-4.433 0.102,-6.65Z" style="fill:#d5dae1;"/><path d="M574.222,585.514c10.615,12.538 9.952,12.614 19.557,26.052c13.694,19.159 43.698,15.692 28.662,24.803c-18.424,11.163 -38.769,-12.246 -56.584,-29.839c4.485,-10.515 4.654,-10.115 8.366,-21.017Z" style="fill:#ef9a76;"/><path d="M1821.151,2044.341c11.541,18.422 -0.85,17.391 -1.759,16.431c-8.209,-8.67 -27.425,-53.49 -37.05,-50.495c-35.29,10.981 24.423,-37.142 21.75,-16.754c-0.289,2.207 -8.258,6.814 -5.917,11.573c10.517,21.374 20.895,36.261 22.975,39.246Z" style="fill:#cc4a35;"/><path d="M2021.702,1931.013c1.014,1.759 -0.023,2.299 1.865,3.236c5.592,2.777 5.701,1.806 12.558,0.99c3.087,9.076 -2.583,7.107 -11.586,13.857c-34.298,25.718 -42.267,22.79 -41.31,17.07c0.122,-0.727 0.443,-2.645 -6.951,-6.045c1.28,-0.829 15.998,-10.363 15.998,-10.363c0.91,-0.576 4.668,0.656 2.719,-7.918c0.853,-0.008 3.196,3.449 8.334,-5.054c1.187,0.571 2.375,1.142 3.562,1.713c8.345,-1.703 7.794,-2.609 14.811,-7.487Z" style="fill:#c48950;"/><path d="M2260.383,844.242c-0.199,0.88 3.099,3.025 -4.439,11.88c-18.754,22.029 -35.291,15.884 -38.373,14.739c1.919,-1.501 16.798,-13.135 9.68,-28.874c-7.495,-16.574 9.083,-9.248 33.132,2.255Z" style="fill:#faf8f6;"/><path d="M2112.18,918.209c17.691,22.459 27.387,5.128 34.101,13.51c9.966,12.441 -46.714,10.828 -41.301,-18.012c1.426,-7.599 15.739,-19.916 22.302,-45.138c3.343,-12.848 0.621,-19.778 7.688,-15.376c10.725,6.681 -22.146,63.012 -22.79,65.017Z" style="fill:#f09776;"/><path d="M942.986,2120.885c5.564,19.462 -27.811,15.249 -79.503,29.784c-0.732,-0.608 -7.746,-6.43 -5.358,-10.618c1.388,-2.435 64.979,-10.419 84.861,-19.166Z" style="fill:#242a32;"/><path d="M2041.905,1904.349c12.794,8.647 19.989,26.964 14.126,31.09c-0.599,0.422 -0.562,0.379 -7.593,5.122c-4.167,-6.015 -4.845,-5.389 -12.314,-5.322c-6.857,0.816 -6.966,1.786 -12.558,-0.99c-1.888,-0.937 -0.851,-1.477 -1.865,-3.236c6.622,-9.185 5.249,-9.751 3.792,-21.071c1.65,-1.143 -0.637,-2.199 1.019,-3.347c0.237,-0.164 0.224,0.343 3.605,0.143c0.96,-0.057 4.563,-0.27 11.787,-2.388Z" style="fill:#f7c19e;"/><path d="M2143.388,1900.294c9.998,-1.611 11.884,-5.101 14.743,0.859c1.787,3.726 12.825,35.893 13.901,39.028c9.609,28.003 13.871,31.638 2.03,39.456c-10.318,-19.032 -18.393,-62.202 -24.606,-75.7c-2.53,-5.497 -4.467,-2.682 -6.068,-3.643Z" style="fill:#ed9779;"/><path d="M1957.297,2084.345c0.535,-2.291 -1.656,-4.676 -1.121,-6.967c1.924,-8.234 9.931,0.912 89.316,-56.529c4.59,-3.321 8.409,1.649 4.957,4.731c-25.719,22.964 -70.002,41.873 -93.152,58.765Z" style="fill:#eea47d;"/><path d="M777.458,537.857c2.714,-15.556 46.296,-18.946 41.674,-6.041c-6.913,19.304 -6.4,38.98 -19.755,26.636c-1.914,-12.365 1.695,-11.878 3.435,-23.783c0.959,-6.557 -3.377,-2.222 -25.354,3.188Z" style="fill:#493122;"/><path d="M2358.311,911.368c16.033,-0.725 15.846,2.763 21.412,17.603c-11.785,9.05 -11.798,10.569 -27.496,9.662c-0.738,-0.52 -1.951,0.851 -2.689,0.331c-3.705,-2.61 -2.777,-3.261 -1.926,-7.797c1.684,-8.976 -2.066,-11.744 10.7,-19.799Z" style="fill:#f6f7f4;"/><path d="M2113.352,848.848c5.876,8.221 -3.921,29.694 -24.372,19.034c12.944,-13.664 8.376,-16.292 5.851,-25.647c-4.107,-15.217 17.388,5.521 18.521,6.613Z" style="fill:#f9f9f8;"/><path d="M1869.336,215.845c1.879,0.136 3.758,0.271 5.638,0.407l3.189,-0.624c5.14,18.543 0.548,18.915 3.49,38.854c-6.598,3.762 -6.495,3.881 -7.125,4.062c-0.837,0.241 -1.489,-1.43 -2.326,-1.188c-7.415,-9.135 -7.545,-29.808 -2.864,-41.511Z" style="fill:#5c6671;"/><path d="M1081.925,2100.795c-0.57,7.662 0.411,7.804 -3.403,14.538c-16.788,4.447 -31.315,1.618 -44.7,1.08c-3.959,-6.169 -4.017,-6.085 -4.276,-6.662c-0.685,-1.529 0.797,-1.475 0.149,-2.922c5.972,1.893 9.015,1.696 9.809,1.644c23.033,-1.495 28.735,0.507 42.421,-7.678Z" style="fill:#1f232a;"/><path d="M2011.399,1908.116c-6.126,2.731 -6.301,2.253 -10.522,7.735c-17.01,-28.684 -28.201,-39.872 -12.448,-38.388c8.56,0.807 21.638,27.893 22.97,30.653Z" style="fill:#cf985b;"/><path d="M777.458,537.857c21.977,-5.41 26.313,-9.746 25.354,-3.188c-1.741,11.906 -5.349,11.418 -3.435,23.783c-2.617,0.857 -1.24,2.443 -4.034,3.358c-0.214,0.07 -0.455,0.149 -2.547,-1.203c-12.117,-7.835 -10.833,-9.112 -15.338,-22.749Z" style="fill:#fbfbfa;"/><path d="M2003.041,2075.516c39.042,-19.24 36.11,-23.99 54.629,-33.293c3.655,-1.836 8.923,1.696 1.898,6.889c-30.384,22.459 -52.512,31.446 -52.711,31.445c-2.107,-0.014 -1.708,-5.027 -3.816,-5.041Z" style="fill:#eda37d;"/><path d="M811.412,714.058l-1.009,2.784c-3.664,0.303 -26.811,2.22 -44.091,-12.981c-16.8,-14.779 6.96,-2.755 31.791,4.66c7.098,2.12 6.792,1.935 13.309,5.537Z" style="fill:#e89572;"/><path d="M852.628,661.281c-6.111,1.627 -27.788,7.968 -30.2,8.674c0.107,-10.908 -1.714,-12.097 2.352,-13.587c18.534,-6.794 26.44,3.143 27.849,4.913Z" style="fill:#e78c67;"/><path d="M1715.066,2064.285c-6.606,-16.808 12.419,-13.138 17.458,0.484c0.485,1.31 -1.829,23.32 -17.458,-0.484Z" style="fill:#daa36c;"/><path d="M2128.311,1201.449c1.177,-0.358 6.594,-7.435 17.256,8.118c6.313,9.209 -8.187,7.563 -17.832,14.128c0.192,-7.415 0.384,-14.831 0.576,-22.246Z" style="fill:#d4dade;"/><path d="M2122.653,218.682c10.02,17.019 -16.927,19.407 -15.331,2.901c1.134,-11.732 6.908,-11.315 15.331,-2.901Z" style="fill:#5d6771;"/><path d="M2540.104,211.729c1.347,-0.09 19.802,-1.318 13.217,10.492c-6.49,11.638 -37.241,0.335 -13.217,-10.492Z" style="fill:#555d66;"/><path d="M2260.258,802.316c19.629,2.652 18.812,4.903 36.108,14.458c-1.715,1.104 -1.938,3.805 -3.653,4.91c-2.18,1.404 -28.991,-12.343 -29.828,-12.89c-5.182,-3.381 -2.179,-5.372 -2.627,-6.478Z" style="fill:#ee956c;"/><path d="M1771.108,202.963c1.137,1.153 12.722,12.906 -0.957,20.216c-8.687,4.642 -20.271,-20.579 0.957,-20.216Z" style="fill:#4e5a65;"/><path d="M1866.711,1966.233c-7.001,-16.438 7.719,-13.589 12.968,-4.88c0.572,0.949 4.076,32.159 -12.968,4.88Z" style="fill:#d29859;"/><path d="M2191.402,844.783l2.525,0.45c1.194,18.443 3.821,17.574 9.34,23.626c-6.287,1.79 -8.404,0.989 -9.086,0.731c-16.401,-6.206 -3.958,-23.195 -2.778,-24.806Z" style="fill:#f6f1ea;"/><path d="M2536.533,164.888c0.331,-1.046 4.337,-13.711 11.507,-7.468c8.782,7.647 -9.165,29.454 -11.507,7.468Z" style="fill:#575f69;"/><path d="M2011.399,1908.116c0.924,1.119 14.825,17.942 -2.054,18.022c-4.937,0.023 -8.122,-9.278 -8.468,-10.287c4.221,-5.482 4.396,-5.004 10.522,-7.735Z" style="fill:#f7b695;"/><path d="M2608.742,150.23c6.412,10.213 0.434,11.821 -11.812,11.95c-4.685,0.049 -8.227,-15.554 11.812,-11.95Z" style="fill:#676d74;"/><path d="M2431.642,200.424c-14.095,14.899 -13.248,-2.727 -10.472,-5.409c6.952,-6.717 11.675,-4.141 10.472,5.409Z" style="fill:#636d78;"/><path d="M2124.619,173.927c-4.624,17.642 -12.161,2.283 -9.995,-2.72c5.153,-11.902 9.734,1.934 9.995,2.72Z" style="fill:#626c78;"/><path d="M1824.815,221.255c4.354,18.232 -12.945,7.474 -11.379,3.554c2.612,-6.535 4.453,-4.458 11.379,-3.554Z" style="fill:#737d85;"/><path d="M965.411,1967.87c-1.578,1.58 -3.156,3.16 -4.734,4.74c-3.616,0.948 -7.233,1.895 -10.849,2.843c-1.675,-2.126 -3.349,-4.252 -5.024,-6.379c1.143,-0.459 0.941,-5.755 20.607,-1.205Z" style="fill:#8e97a0;"/><path d="M1881.652,254.482c2.257,3.897 2.438,3.6 2.867,8.307c-1.714,0.363 -1.693,3.638 -3.407,4.002c-1.174,0.249 -1.091,-2.551 -2.265,-2.798c0,0 -3.008,2.468 -3.269,2.683c-2.034,-4.751 -1.963,-4.504 -3.377,-9.319c0.837,-0.241 1.489,1.43 2.326,1.188c0.63,-0.182 0.528,-0.301 7.125,-4.062Z" style="fill:#8f979f;"/><path d="M2633.838,189.786c0.996,5.498 0.939,5.177 2.028,10.795c-0.886,0.145 -6.051,0.988 -11.187,0.833c0.927,-4.194 -0.473,-9.152 -0.689,-9.917c3.282,-0.57 6.565,-1.141 9.847,-1.711Z" style="fill:#838a91;"/><path d="M836.335,1583.996c7.235,-1.917 7.547,-1.507 12.699,3.743c-5.471,-0.457 -5.51,-0.237 -5.909,-0.493c-3.277,-2.103 -3.274,-1.567 -6.79,-3.249Z" style="fill:#5c636d;"/><path d="M2187.769,838.839c2.778,2.459 1.931,2.985 5.117,4.531c1.181,0.573 -0.001,1.358 1.041,1.863l-2.525,-0.45c-0.456,0.149 -5.698,1.865 -5.698,1.865c-2.407,-4.194 -0.445,-4 2.065,-7.809Z" style="fill:#8a7361;"/><path d="M912.323,2122.442c3.395,-2.904 4.367,-8.262 4.377,-3.743c0,0 -4.026,3.443 -4.377,3.743Z" style="fill:#2b3039;"/><path d="M1870.515,213.912c1.486,0.78 2.972,1.56 4.458,2.339c-1.879,-0.136 -3.758,-0.271 -5.638,-0.407l1.179,-1.933Z" style="fill:#8b949e;"/><path d="M2229.874,1214.621c-0.034,2.217 -0.068,4.433 -0.102,6.65c-1.966,-3.339 -1.308,-3.309 0.102,-6.65Z" style="fill:#dadfe6;"/><path d="M1702.118,1513.203c2.065,0.194 4.131,0.388 6.196,0.582l-1.136,1.245c-1.687,-0.609 -3.373,-1.218 -5.06,-1.827Z" style="fill:#e8b581;"/><path d="M738.601,821.266c3.089,2.373 7.708,3.974 3.768,2.895c-2.572,-0.704 -1.356,-2.234 -3.768,-2.895Z" style="fill:#f3b595;"/></g></g></svg>