<?xml version="1.0" encoding="UTF-8" standalone="no"?><!DOCTYPE svg PUBLIC "-//W3C//DTD SVG 1.1//EN" "http://www.w3.org/Graphics/SVG/1.1/DTD/svg11.dtd"><svg width="100%" height="100%" viewBox="0 0 3705 2148" version="1.1" xmlns="http://www.w3.org/2000/svg" xmlns:xlink="http://www.w3.org/1999/xlink" xml:space="preserve" xmlns:serif="http://www.serif.com/" style="fill-rule:evenodd;clip-rule:evenodd;stroke-linejoin:round;stroke-miterlimit:2;"><rect id="Mesa-de-trabajo1" serif:id="Mesa de trabajo1" x="0" y="0" width="3704.637" height="2147.344" style="fill:none;"/><clipPath id="_clip1"><rect x="0" y="0" width="3704.637" height="2147.344"/></clipPath><g clip-path="url(#_clip1)"><g id="MaterCard_Logo.jpg"><path d="M3777.994,2148.261l-3832.738,0c-1.949,-27.175 -1.749,-27.212 -1.749,-2126.584c0,-2.473 0,-30.008 0.886,-30.894c0.516,-0.516 0.724,-0.886 3799.816,-0.886c2.041,-0 33.35,-0.412 34.648,0.886c0.991,0.991 0.886,1.389 0.886,2148.097c-0,6.734 -1.501,8.051 -1.749,9.381Z" style="fill:#fefefe;"/><path d="M1860.056,300.903c-17.742,22.872 -223.36,211.403 -289.859,537.988c-1.761,8.646 -20.584,101.092 -16.803,109.007c0.895,1.873 2.971,3.011 3.866,4.884c-72.219,104.229 -10.791,191.699 0.135,207.86c-0.368,0.695 -4.604,8.686 -4.604,8.686c14.358,214.347 128.123,410.033 146.861,442.263c59.497,102.34 151.829,198.656 155.644,201.122c1.888,1.221 4.439,1.117 6.328,2.337l-1.673,4.401c-30.178,21.928 -27.494,24.711 -55.309,49.396c-435.021,386.071 -1138.171,346.769 -1522.88,-146.489c-412.837,-529.323 -236.658,-1286.515 312.011,-1594.597c51.243,-28.774 348.764,-195.833 725.242,-116.968c351.976,73.733 508.78,271.156 541.041,290.112Z" style="fill:#fd100e;"/><path d="M1860.056,300.903c26.684,-18.413 325.7,-356.949 855.849,-304.539c612.81,60.582 1010.581,615.609 952.499,1169.164c-78.636,749.456 -852.312,1165.411 -1500.648,867.079c-189.437,-87.17 -286.386,-198.375 -307.806,-213.157l1.673,-4.401c72.192,-73.703 262.623,-284.331 301.514,-630.723c0.497,-4.426 1.1,-4.116 4.83,-11.434c155.156,129.326 348.502,38.328 386.471,-108.611c-0.983,-1.685 0.514,-4.149 -0.47,-5.834c-0.13,-0.223 -114.302,-0.177 -115.896,-0.083c-14.926,0.881 -34.921,70.241 -127.914,59.778c-94.908,-10.679 -144.875,-151.61 -45.833,-213.086c60.828,-37.755 126.998,-12.052 153.313,21.602c3.912,5.003 9.083,20.361 24.09,20.412c8.697,0.029 102.26,0.346 108.717,0.096c13.613,-0.528 -15.642,-63.596 -41.805,-92.569c-102.622,-113.644 -255.986,-102.196 -343.661,-18.193c-0.901,0.863 -0.827,0.807 -11.158,10.899c-16.808,-22.838 -5.537,-55.092 -68.083,-207.503c-78.955,-192.397 -217.522,-327.876 -225.682,-338.898Z" style="fill:#cd7914;"/><path d="M1860.056,300.903c8.16,11.022 146.727,146.5 225.682,338.898c62.546,152.411 51.275,184.665 68.083,207.503c-10.736,13.151 -67.364,68.95 -59.347,186.844c2.64,38.816 23.136,74.056 26.522,79.877c16.307,28.036 26.502,37.53 46.972,58.869c-3.73,7.317 -4.333,7.007 -4.83,11.434c-38.891,346.393 -229.321,557.021 -301.514,630.723c-1.888,-1.221 -4.439,-1.117 -6.328,-2.337c-3.815,-2.466 -96.147,-98.782 -155.644,-201.122c-18.737,-32.23 -132.503,-227.916 -146.861,-442.263c0,0 4.235,-7.991 4.604,-8.686c106.216,126.419 257.996,72.205 306.319,-24.999c8.183,-16.459 -4.323,-13.139 -22.625,-13.109c-35.734,0.058 -35.525,-0.513 -71.289,-0.275c-10.498,0.07 -50.107,41.316 -108.148,11.959c-21.086,-10.665 -47.687,-43.645 -30.857,-44.326c26.54,-1.074 245.556,3.283 248.491,-2.65c8.323,-16.823 14.992,-182.253 -162,-207.49c-32.829,-4.681 -88.802,9.578 -122.895,35.777c-19.783,15.202 -29.891,28.038 -37.13,37.251c-0.895,-1.873 -2.971,-3.011 -3.866,-4.884c-3.782,-7.915 15.042,-100.361 16.803,-109.007c66.5,-326.585 272.118,-515.115 289.859,-537.988Z" style="fill:#aa0906;"/><path d="M554.2,933.347c-2.626,10.525 -2.605,10.458 -2.837,11.367c-0.904,3.554 -0.598,3.321 -1.485,6.985c-12.963,53.512 -89.423,269.285 -90.264,270.206c-6.726,7.365 -80.95,3.067 -81.902,2.589c-5.121,-2.571 -79.796,-219.472 -95.294,-287.373c-0.99,-0.093 -1.98,-0.186 -2.971,-0.278c-1.152,0.029 -1.096,-2.655 -2.247,-2.625c-3.588,0.092 3.007,16.852 3.008,145.066c0.001,141.792 0.833,144.385 -4.661,145.886c-1.271,0.347 -92.798,1.679 -96.518,-0.818c-3.064,-2.057 -2.832,-3.183 -2.812,-411.596c0.001,-22.154 -5.359,-31.961 16.906,-31.751c129.502,1.221 133.516,-3.261 137.266,6.072c2.568,6.392 75.467,224.608 84.291,258.393c0.246,0.941 5.349,20.481 9.904,7.054c7.077,-20.865 2.324,-22.047 83.327,-262.491c4.579,-13.593 10.402,-7.68 139.432,-9.274c12.049,-0.149 16.916,-2.717 17.176,9.501c0.035,1.663 0.033,427.34 0.003,427.822c-0.503,7.987 -4.3,9.875 -99.753,7.474c-10.48,-0.264 -8.589,-5.886 -8.589,-104.978c0,-133.298 0.083,-136.951 4.248,-180.135c0.683,-7.079 -1.845,-6.139 -3.17,-7.735c-1.019,0.213 -2.038,0.427 -3.057,0.64Z" style="fill:#fefefe;"/><path d="M3160.43,1112.583c-2.979,-12.424 -31.734,-98.527 37.824,-177.564c6.538,-7.429 45.319,-51.495 110.535,-55.526c59.574,-3.682 88.554,24.877 94.135,24.389c9.177,-0.802 -2.641,-118.19 6.855,-121.998c4.993,-2.002 92.138,-1.029 94.647,-0.608c8.254,1.382 5.746,28.914 5.746,42.743c0.003,396.809 0.35,398.031 -3.063,400.443c-2.895,2.046 -90.713,1.216 -92.903,0.563c-10.88,-3.243 2.17,-30.672 -15.275,-18.149c-52.542,37.719 -115.128,28.357 -146.886,12.365c-66.539,-33.505 -84.002,-88.439 -91.616,-106.658Z" style="fill:#fefefe;"/><path d="M2153.82,847.303c10.332,-10.092 10.257,-10.036 11.158,-10.899c87.675,-84.004 241.04,-95.451 343.661,18.193c26.163,28.973 55.418,92.041 41.805,92.569c-6.457,0.25 -100.02,-0.067 -108.717,-0.096c-15.007,-0.051 -20.178,-15.408 -24.09,-20.412c-26.315,-33.654 -92.486,-59.358 -153.313,-21.602c-99.042,61.475 -49.075,202.406 45.833,213.086c92.993,10.464 112.988,-58.897 127.914,-59.778c1.594,-0.094 115.766,-0.14 115.896,0.083c0.983,1.685 -0.514,4.149 0.47,5.834c-37.969,146.94 -231.315,237.938 -386.471,108.611c-20.469,-21.339 -30.665,-30.833 -46.972,-58.869c-3.385,-5.82 -23.882,-41.06 -26.522,-79.877c-8.017,-117.894 48.61,-173.692 59.347,-186.844Z" style="fill:#fefefe;"/><path d="M857.57,878.758c70.301,2.114 77.814,33.111 84.68,23.101c1.815,-2.645 -3.612,-15.503 9.042,-15.718c90.315,-1.538 93.678,-2.388 95.412,5.056c0.682,2.929 -0.277,283.392 0.478,319.474c0.459,21.966 -10.118,14.958 -31.953,14.966c-58.423,0.022 -68.418,2.193 -68.718,-7.322c-0.118,-3.758 0.352,-7.516 0.304,-11.276c-0.244,-18.949 -32.514,33.9 -115.286,24.335c-102.481,-11.843 -200.231,-158.202 -103.706,-289.711c43.629,-59.441 118.221,-62.441 129.747,-62.905Z" style="fill:#fefefe;"/><path d="M2563.394,1060.529c-6.308,-69.128 42.51,-145.208 106.926,-169.936c96.685,-37.114 144.826,25.67 146.413,8.416c0.884,-9.603 0.378,-13.518 15.388,-13.147c64.534,1.598 85.782,-3.662 88.46,5.965c0.026,0.095 0.487,321.937 -0.252,326.648c-1.262,8.049 -4.835,7.307 -88.21,7.107c-19.789,-0.047 -9.082,-17.526 -12.296,-21.778c-2.153,-2.848 -13.75,4.923 -14.803,5.628c-93.157,62.421 -239.226,-7.264 -241.628,-148.905Z" style="fill:#fefefe;"/><path d="M1557.259,952.782c7.239,-9.213 17.348,-22.049 37.13,-37.251c34.093,-26.199 90.066,-40.458 122.895,-35.777c176.992,25.237 170.324,190.667 162,207.49c-2.935,5.932 -221.95,1.576 -248.491,2.65c-16.83,0.681 9.771,33.661 30.857,44.326c58.041,29.357 97.65,-11.889 108.148,-11.959c35.764,-0.238 35.555,0.333 71.289,0.275c18.302,-0.03 30.808,-3.351 22.625,13.109c-48.323,97.203 -200.103,151.418 -306.319,24.999c-10.927,-16.162 -72.354,-103.631 -0.135,-207.86Z" style="fill:#fefefe;"/><path d="M1236.494,881.857c35.468,7.761 77.69,19.193 94.562,92.231c3.474,15.038 -6.732,11.905 -83.085,11.904c-21.665,-0 -14.86,-10.006 -20.037,-18.614c-23.717,-39.442 -79.699,17.854 -24.641,39.606c25.138,9.932 159.699,21.323 136.675,135.769c-21.729,108.013 -240.396,136.187 -272.845,-7.053c-4.287,-18.924 7.341,-12.545 26.937,-12.529c70.175,0.056 74.398,-2.544 78.125,8.903c18.28,56.153 90.411,3.921 45.127,-25.414c-24.717,-16.011 -159.032,-12.848 -140.396,-135.939c6.666,-44.028 48.233,-68.356 54.466,-72.005c42.196,-24.696 96.66,-17.911 105.111,-16.858Z" style="fill:#fefefe;"/><path d="M1332.807,902.849c0.834,-12.555 -3.846,-16.373 5.383,-18.101c1.065,-0.2 27.595,0.177 29.59,-1.265c7.724,-5.586 -0.229,-93.877 4.847,-100.136c4.694,-5.788 6.404,-2.915 93.128,-2.334c16.241,0.109 8.234,9.707 9.812,95.659c0.295,16.075 37.108,4.774 42.964,10.924c3.747,3.935 2.27,4.632 1.55,67.898c-0.195,17.165 -37.337,4.715 -43.236,11.066c-4.517,4.863 0.838,247.384 -2.858,255.841c-2.697,6.171 -99.485,3.112 -101.129,1.961c-5.886,-4.122 -0.64,-243.968 -2.922,-254.344c-2.051,-9.329 -29.305,-5.341 -32.044,-6.191c-6.471,-2.008 -5.041,-36.754 -5.084,-60.975Z" style="fill:#fefefd;"/><path d="M2070.083,979.608c-80.728,5.37 -69.975,35.594 -69.975,129.707c0,111.524 1.065,114.523 -5.216,115.945c-0.605,0.137 -93.1,1.433 -96.731,-0.793c-3.146,-1.929 -2.969,-3.039 -2.968,-325.366c0,-19.498 9.232,-12.617 28.481,-12.618c60.304,-0.002 68.647,-2.657 68.844,8.785c0.148,8.577 -2.693,41.357 5.503,32.923c4.375,-4.502 23.64,-42.744 83.281,-42.765c7.966,-0.003 9.785,3.311 8.532,54.959c-0.132,5.458 -0.368,37.083 -4.19,39.001c-1.113,0.558 -1.143,0.016 -15.561,0.221Z" style="fill:#fefefe;"/><path d="M3136.184,979.576c-3.949,0.299 -33.981,2.573 -48.407,10.332c-30.896,16.617 -24.561,25.828 -25.067,209.504c-0.05,18.028 5.108,25.918 -12.863,26.195c-85.052,1.314 -87.692,3.211 -90.494,-3.47c-0.873,-2.081 -2.849,-329.682 1.044,-333.681c4.787,-4.916 5.767,-2.512 85.745,-2.004c18.058,0.115 6.231,36.74 9.824,40.11c5.273,4.945 11.031,-6.064 12.976,-8.414c26.875,-32.48 81.837,-40.172 83.464,-26.798c0.217,1.786 0.096,82.776 0.079,83.081c-0.439,7.56 -14.637,5.221 -16.299,5.144Z" style="fill:#fefefe;"/><path d="M2665.264,1056.781c7.823,-101.102 129.576,-95.506 152.255,-26.453c36.126,109.996 -142.371,148.003 -152.255,26.453Z" style="fill:#cd7913;"/><path d="M791.725,1056.749c8.46,-106.951 142.761,-96.363 155.745,-11.222c15.115,99.117 -147.456,126.09 -155.745,11.222Z" style="fill:#fc100e;"/><path d="M3258.789,1033.873c18.498,-53.858 66.672,-54.692 80.194,-53.876c55.463,3.348 76.488,55.763 72.182,84.402c-15.966,106.201 -179.375,82.302 -152.376,-30.526Z" style="fill:#cd7913;"/><path d="M1724.956,972.561c40.219,7.657 61.346,43.169 48.767,43.86c-10.512,0.578 -10.32,-1.394 -131.595,-0.183c-9.797,0.098 -15.904,0.27 -10.791,-8.046c10.244,-16.664 30.78,-27.356 33.949,-29.005c27.687,-14.415 28.937,-10.184 59.67,-6.626Z" style="fill:#aa0805;"/><path d="M3546.122,1203.086c0.57,-25.003 18.343,5.938 18.589,6.028c5.118,1.883 9.771,-21.647 18.511,-13.8c0,0 9.367,33.088 -5.237,28.22c-1.407,-6.228 -1.418,-6.184 -1.52,-6.726c-1.593,-8.472 -5.561,3.461 -5.738,3.992c-10.66,12.444 -9.88,-7.635 -14.164,-7.142c-2.242,0.258 -3.423,17.263 -9.707,10.461c-1.816,-1.966 -0.83,-19.352 -0.735,-21.032Z" style="fill:#f8f8f1;"/><path d="M3538.031,1199.521c-5.691,8.2 -3.232,8.764 -3.688,18.686c-0.451,9.813 -9.151,9.624 -9.848,-0.137c-1.462,-20.477 -4.571,-20.088 -4.017,-21.771c0.446,-1.356 14.145,-35.154 17.552,3.222Z" style="fill:#f9f7ea;"/><path d="M3570.728,1220.8c0.176,-0.531 4.145,-12.464 5.738,-3.992c0.102,0.542 0.113,0.498 1.52,6.726c-2.419,-0.911 -4.838,-1.823 -7.257,-2.734Z" style="fill:#d4a363;"/></g></g></svg>