<?xml version="1.0" encoding="UTF-8" standalone="no"?><!DOCTYPE svg PUBLIC "-//W3C//DTD SVG 1.1//EN" "http://www.w3.org/Graphics/SVG/1.1/DTD/svg11.dtd"><svg width="100%" height="100%" viewBox="0 0 3666 1242" version="1.1" xmlns="http://www.w3.org/2000/svg" xmlns:xlink="http://www.w3.org/1999/xlink" xml:space="preserve" xmlns:serif="http://www.serif.com/" style="fill-rule:evenodd;clip-rule:evenodd;stroke-linejoin:round;stroke-miterlimit:2;"><rect id="Mesa-de-trabajo1" serif:id="Mesa de trabajo1" x="0" y="0" width="3665.149" height="1241.392" style="fill:none;"/><g id="visa_logo.png"><path d="M3491.801,463.065l1.979,10.147c9.89,45.481 143.756,687.936 144.031,690.061c1.032,7.977 0.154,9.594 -8.108,9.911c-58.52,2.247 -233.141,0.165 -253.413,-0.076c-6.351,-0.076 -8.676,-2.063 -26.417,-97.413c-12.711,-68.316 -13.567,-70.045 -19.396,-70.685c-2.574,-0.283 -361.799,-0.223 -362.637,-0.127c-9.594,1.102 -8.521,12.408 -48.937,119.994c-1.837,4.891 -5.421,17.372 -14.088,38.726c-3.623,8.926 -4.613,9.118 -14.411,9.409c-8.927,0.265 -213.423,-0.512 -288.595,0.206c-13.839,0.132 2.583,-17.849 11.38,-44.632c7.534,-22.94 74.377,-178.111 81.017,-193.526c13.946,-32.375 245.664,-586.653 246.222,-587.965c101.47,-238.283 96.159,-252.504 151.232,-284.649c31.631,-18.463 46.051,-15.813 281.055,-15.827c6.545,-0 32.316,-3.979 33.318,7.524c0.604,6.933 2.283,6.536 18.718,84.95c5.429,25.904 63.618,303.538 67.049,323.97l-251.115,94.37c-26.963,-134.107 -37.019,-173.563 -38.757,-190.062c-3.032,-28.786 -11.814,9.6 -12.342,11.005c-1.402,3.731 -41.061,113.577 -42.09,116.231c-11.48,29.612 -10.178,29.843 -21.616,59.655c-38.904,101.406 -34.875,102.674 -74.006,204.161c-8.289,21.498 6.922,14.591 14.557,14.559c213.467,-0.898 216.104,1.735 218.301,-3.799c0.348,-0.877 -42.47,-205.674 -44.048,-211.749l251.115,-94.37Z" style="fill:#002693;fill-opacity:1;"/><path d="M796.529,807.025c6.158,-0.238 4.335,-3.145 16.738,-34.344c22.509,-56.619 264.665,-665.749 280.212,-708.195c8.721,-23.81 15.716,-17.68 50.758,-17.68c255.889,-0.001 255.931,-0.179 257.189,0.163c6.406,1.742 4.147,5.623 -27.612,78.261c-6.621,15.144 -44.516,101.814 -80.031,190.476c-25.008,62.43 -317.43,756.438 -348.377,832.976c-8.064,19.943 -8.367,23.514 -30.002,23.519c-285.7,0.058 -286.05,-0.147 -288.077,-2.221c-2.796,-2.86 -70.852,-271.471 -76.097,-291.233c-15.398,-58.008 -123.024,-476.693 -125.823,-486.034c-44.498,-148.48 -14.699,-185.189 -150.346,-240.594c-120.446,-49.197 -210.591,-64.527 -232.225,-70.822c-4.266,-1.241 0.662,-26.71 2.504,-30.612c2.065,-4.373 3.847,-3.787 190.604,-3.805c332.626,-0.032 334.931,-2.401 370.343,16.916c70.573,38.497 63.792,78.969 112.75,328.481c74.826,381.344 67.768,382.425 77.491,414.748Z" style="fill:#0c1a67;fill-opacity:1;"/><path d="M2154.622,1189.873l-91.533,0c-1.697,-0.247 -2.052,-3.276 -3.749,-3.523c-6.945,-1.011 -14.038,0.044 -21.055,-0.089c-79.769,-1.514 -205.579,-30.607 -253.483,-54.257c-8.228,-4.062 10.652,-63.7 43.301,-225.346c3.2,-15.845 -1.479,-27.627 12.742,-20.383c149.864,76.346 270.801,67.457 292.668,67.178c146.518,-1.869 206.328,-87.235 153.502,-162.031c-61.377,-86.904 -403.715,-141.754 -385.936,-413.027c19.678,-300.252 409.933,-428.385 756.661,-305.219c2.969,1.055 8.314,0.752 2.925,26.994c-2.954,14.388 -4.185,13.91 -38.707,179.48c-5.197,24.926 -0.645,42.092 -23.226,30.335c-93.432,-48.644 -338.921,-82.342 -387.204,19.414c-63.901,134.672 281.175,157.6 375.39,359.138c59.252,126.748 32.519,414.179 -326.473,486.945c-79.671,16.149 -88.092,8.788 -102.07,10.87c-1.696,0.253 -2.056,3.268 -3.752,3.52Z" style="fill:#002182;fill-opacity:1;"/><path d="M1491.001,230.988c2.028,-10.192 16.322,-82.019 27.24,-127.009c10.778,-44.411 6.167,-56.982 23.81,-57.203c21.979,-0.275 207.404,-2.596 274.753,-0.052c6.047,0.228 5.892,2.301 3.908,7.901c-3.187,8.995 -18.565,84.395 -20.067,91.757c-20.382,99.934 -49.569,231.728 -50.946,239.042c-4.913,26.106 -105.253,489.619 -141.865,665.172c-24.513,117.536 -24.004,122.685 -34.139,122.171c-56.107,-2.849 -256.307,-0.886 -278.593,-0.667c-4.207,0.041 -4.988,-2.147 -0.426,-22.924c10.496,-47.802 94.311,-429.532 128.203,-598.172c6.482,-32.253 64.443,-300.332 68.122,-320.016Z" style="fill:#041e75;fill-opacity:1;"/><path d="M3491.801,463.065c1.872,4.942 2.342,4.737 1.979,10.147l-1.979,-10.147Z" style="fill:#002691;fill-opacity:0.38;"/></g></svg>